<svg width="64px" height="64px" viewBox="0 0 64 64" version="1.1" xmlns="http://www.w3.org/2000/svg" xmlns:xlink="http://www.w3.org/1999/xlink">
    <defs>
        <path d="M0,0 L60,0 C62.209139,-4.05812251e-16 64,1.790861 64,4 L64,64 L0,0 Z" id="path-1"></path>
    </defs>
    <g id="页面-1" stroke="none" stroke-width="1" fill="none" fill-rule="evenodd">
        <g id="版本2-扫码登录" transform="translate(-581.000000, -192.000000)">
            <g id="二维码-(3)备份-3" transform="translate(581.000000, 192.000000)">
                <mask id="mask-2" fill="white">
                    <use xlink:href="#path-1"></use>
                </mask>
                <use id="蒙版" fill="#F5F5F5" xlink:href="#path-1"></use>
                <path d="M21.7278061,13.9177769 L50.3300015,13.9177769 L50.3300015,33.9397974 L21.7278061,33.9397974 L21.7278061,13.9177769 L21.7278061,13.9177769 Z M20.1484401,8.15815254 C17.8741368,8.15815254 16.0302045,10.006101 16.0302045,12.2859723 L16.0302045,35.5107202 C16.0302045,37.7904545 17.8737717,39.6385399 20.1484401,39.6385399 L30.1339157,39.6385399 L30.1339157,45.3359589 L23.0939489,45.335959 C22.3103815,45.335959 21.6751849,45.9713382 21.6751849,46.7545405 C21.6751849,47.5381079 22.3103815,48.1734871 23.0939489,48.1734871 L48.8817094,48.173487 C49.6652768,48.173487 50.300656,47.5381078 50.300656,46.7545404 C50.300656,45.9713381 49.6652768,45.3359589 48.8817094,45.3359589 L41.7582241,45.335959 L41.7582241,39.6385856 L51.9118319,39.6385856 C54.1863178,39.6385856 56.0302045,37.7905002 56.0302045,35.5107659 L56.0302045,12.2859723 C56.0301588,10.0064662 54.1862722,8.15815254 51.9117862,8.15815254 L20.1484401,8.15815254 Z M18.8759475,36.8241506 L18.8759475,11.0868663 L53.2461647,11.0868663 L53.2461647,36.8241506 L18.8759475,36.8241506 Z" id="形状" fill="#333333" fill-rule="nonzero" mask="url(#mask-2)"></path>
            </g>
        </g>
    </g>
</svg>
