<svg width="64px" height="64px" viewBox="0 0 64 64" version="1.1" xmlns="http://www.w3.org/2000/svg" xmlns:xlink="http://www.w3.org/1999/xlink">
    <defs>
        <path d="M0,0 L60,0 C62.209139,-4.05812251e-16 64,1.790861 64,4 L64,64 L0,0 Z" id="path-1"></path>
    </defs>
    <g id="页面-1" stroke="none" stroke-width="1" fill="none" fill-rule="evenodd">
        <g id="版本2-登录" transform="translate(-1128.000000, -192.000000)">
            <g id="二维码-(3)" transform="translate(1128.000000, 192.000000)">
                <mask id="mask-2" fill="white">
                    <use xlink:href="#path-1"></use>
                </mask>
                <use id="蒙版" fill="#F5F5F5" xlink:href="#path-1"></use>
                <g mask="url(#mask-2)" fill-rule="nonzero">
                    <g transform="translate(-8.000000, 8.000000)">
                        <polygon id="路径" fill="#000000" points="8.98246644 8.98447987 13.955453 8.98447987 13.955453 13.9574664 8.98246644 13.9574664"></polygon>
                        <path d="M22.899245,0.0406879195 L0.0291946309,0.0406879195 L0.0291946309,22.9107383 L8.98246644,22.9107383 L8.98246644,26.8910235 L13.955453,26.8910235 L13.955453,22.9107383 L22.9087248,22.9107383 L22.9087248,17.9377517 L26.8890101,17.9377517 L26.8890101,13.9574664 L22.9087248,13.9574664 L22.8991611,0.0406879195 L22.899245,0.0406879195 Z M17.9358221,17.9378356 L5.00218121,17.9378356 L5.00218121,5.01375839 L17.9262584,5.01375839 L17.9262584,17.9378356 L17.9358221,17.9378356 Z M8.98246644,49.7612416 L13.955453,49.7612416 L13.955453,54.7342282 L8.98246644,54.7342282 L8.98246644,49.7612416 Z M49.7496644,8.98447987 L54.722651,8.98447987 L54.722651,13.9574664 L49.7496644,13.9574664 L49.7496644,8.98447987 Z M31.8526007,31.463255 L31.8526007,36.8276007 L36.8255872,36.8276007 L36.8255872,31.864094 L40.8058725,31.864094 L40.8058725,26.8911074 L36.8255872,26.8911074 L36.8255872,22.9108221 L31.8526007,22.9108221 L31.8526007,31.463255 Z M31.8526007,49.6467282 L31.8526007,54.7342282 L36.8255872,54.7342282 L36.8255872,45.7809564 L40.8058725,45.7809564 L40.8058725,40.8079698 L31.8526007,40.8079698 L31.8526007,49.6467282 L31.8526007,49.6467282 Z M36.8255872,54.7342282 L40.8058725,54.7342282 L40.8058725,58.7145134 L36.8255872,58.7145134 L36.8255872,54.7342282 Z M26.8796141,58.7145134 L26.8796141,63.6780201 L36.8256711,63.6780201 L36.8256711,58.7145134 L26.8796141,58.7145134 Z" id="形状" fill="#333333"></path>
                        <path d="M45.778943,45.7809564 L40.8059564,45.7809564 L40.8059564,54.7342282 L49.7497483,54.7342282 L49.7497483,49.7612416 L45.7790268,49.7612416 L45.7790268,45.7809564 L45.778943,45.7809564 Z M49.7496644,63.6780201 L63.6760067,63.6780201 L63.6760067,58.7145134 L54.7227349,58.7145134 L54.7227349,54.7342282 L49.7496644,54.7342282 L49.7496644,63.6780201 L49.7496644,63.6780201 Z M63.6760067,31.8641779 L63.6760067,26.8911913 L54.7227349,26.8911913 L54.7227349,31.8641779 L63.6760067,31.8641779 Z M58.7029362,49.7612416 L63.6759228,49.7612416 L63.6759228,54.7342282 L58.7029362,54.7342282 L58.7029362,49.7612416 Z M26.8796141,17.9378356 L31.8526007,17.9378356 L31.8526007,22.9108221 L26.8796141,22.9108221 L26.8796141,17.9378356 Z M49.7496644,26.8911074 L49.7496644,22.9108221 L63.6760067,22.9108221 L63.6760067,0.0407718121 L40.8059564,0.0407718121 L40.8059564,5.01375839 L31.8526846,5.01375839 L31.8526846,8.99404362 L40.8059564,8.99404362 L40.8059564,13.9575503 L36.8256711,13.9575503 L36.8256711,17.9378356 L40.8059564,17.9378356 L40.8059564,22.9108221 L45.778943,22.9108221 L45.778943,26.8911074 L49.7496644,26.8911074 L49.7496644,26.8911074 Z M45.778943,5.0136745 L58.7030201,5.0136745 L58.7030201,17.9377517 L45.778943,17.9377517 L45.778943,5.0136745 Z M45.778943,36.8276007 L49.7496644,36.8276007 L49.7496644,40.8078859 L45.778943,40.8078859 L45.778943,36.8276007 Z M54.722651,45.7809564 L49.7496644,45.7809564 L49.7496644,49.7612416 L58.7029362,49.7612416 L58.7029362,40.8079698 L63.6759228,40.8079698 L63.6759228,36.8276846 L54.722651,36.8276846 L54.722651,45.7809564 Z M26.8796141,8.98447987 L31.8526007,8.98447987 L31.8526007,13.9574664 L26.8796141,13.9574664 L26.8796141,8.98447987 Z M13.955453,31.8641779 L17.9357383,31.8641779 L17.9357383,36.8276846 L13.955453,36.8276846 L13.955453,31.8641779 Z M26.8796141,26.8911074 L17.9358221,26.8911074 L17.9358221,31.864094 L22.8993289,31.864094 L22.8993289,36.8276007 L26.8796141,36.8276007 L26.8796141,26.8911074 L26.8796141,26.8911074 Z" id="形状" fill="#333333"></path>
                        <path d="M22.899245,54.7342282 L22.899245,45.7809564 L26.8795302,45.7809564 L26.8795302,40.8079698 L8.98246644,40.8079698 L8.98246644,31.8641779 L0.0291946309,31.8641779 L0.0291946309,36.8371644 L5.00218121,36.8371644 L5.00218121,40.8174497 L0.0291946309,40.8174497 L0.0291946309,63.6875 L22.899245,63.6875 L22.899245,58.7145134 L26.8795302,58.7145134 L26.8795302,54.7342282 L22.899245,54.7342282 Z M17.9358221,58.7145134 L5.00218121,58.7145134 L5.00218121,45.7808725 L17.9262584,45.7808725 L17.9262584,58.7145134 L17.9358221,58.7145134 Z M26.8796141,36.8276007 L31.8526007,36.8276007 L31.8526007,40.8078859 L26.8796141,40.8078859 L26.8796141,36.8276007 Z M40.8058725,31.8641779 L45.7788591,31.8641779 L45.7788591,36.8276846 L40.8058725,36.8276846 L40.8058725,31.8641779 Z M49.7496644,31.8641779 L54.722651,31.8641779 L54.722651,36.8276846 L49.7496644,36.8276846 L49.7496644,31.8641779 Z" id="形状" fill="#333333"></path>
                    </g>
                </g>
            </g>
        </g>
    </g>
</svg>
