<svg version="1.1" fill="#fff" xmlns="http://www.w3.org/2000/svg" xmlns:xlink="http://www.w3.org/1999/xlink" x="0px" y="0px"
    width="100%" viewBox="0 0 163.663 41.891" enable-background="new 0 0 163.663 41.891"
    xml:space="preserve">
  <path class="logo-symbol" d="M24.604,12.869v-3.13C24.604,4.37,20.031,0,14.412,0C8.791,0,4.217,4.37,4.217,9.739v3.13H0v22.302h0.028l14.382,6.72
    l14.382-6.72h0.028V12.869H24.604z M9.447,9.739c0-2.486,2.228-4.508,4.965-4.508c2.736,0,4.963,2.022,4.963,4.508v3.13H9.447V9.739
    z M23.021,31.462l-8.61,4.014L5.8,31.462v-13.36h17.221V31.462z"/>
  <g>
    <polygon points="40.475,12.83 40.475,18.074 46.629,18.074 46.629,35.175 52.441,35.175 52.441,18.074 58.562,18.074 58.562,12.83 
        "/>
    <path d="M79.397,20.263c0-4.447-3.099-7.436-7.716-7.436H61.186v22.348h5.783v-7.541h2.246l4.133,7.541h6.667l-4.894-8.289
      C77.248,26.066,79.397,23.968,79.397,20.263z M66.969,17.978h4.051c1.498,0,2.506,0.906,2.506,2.252
      c0,1.348-1.008,2.254-2.506,2.254h-4.051V17.978z"/>
    <polygon points="82.077,35.175 98.272,35.175 98.272,29.994 87.858,29.994 87.858,26.402 98.052,26.402 98.052,21.253 
      87.858,21.253 87.858,17.978 98.272,17.978 98.272,12.83 82.077,12.83 	"/>
    <polygon points="118.243,17.289 118.243,12.83 101.134,12.83 101.134,18.072 110.437,18.072 101.134,30.683 101.134,35.175 
      118.243,35.175 118.243,29.931 108.938,29.931 	"/>
    <path d="M130.806,12.48c-6.74,0-11.631,4.854-11.631,11.537c0,6.686,4.891,11.537,11.631,11.537
      c6.758,0,11.662-4.852,11.662-11.537C142.468,17.333,137.563,12.48,130.806,12.48z M130.806,30.277
      c-3.371,0-5.725-2.574-5.725-6.26c0-3.744,2.301-6.26,5.725-6.26c3.389,0,5.756,2.574,5.756,6.26S134.194,30.277,130.806,30.277z"
      />
    <path d="M158.769,26.886c2.129-0.82,4.281-2.918,4.281-6.623c0-4.447-3.102-7.436-7.719-7.436h-10.496v22.348h5.781v-7.541h2.248
      l4.133,7.541h6.666L158.769,26.886z M150.616,17.978h4.053c1.498,0,2.506,0.906,2.506,2.252c0,1.348-1.008,2.254-2.506,2.254
      h-4.053V17.978z"/>
  </g>
 </svg>
