<?xml version="1.0" encoding="UTF-8"?>
<svg width="512px" height="512px" viewBox="0 0 512 512" version="1.1" xmlns="http://www.w3.org/2000/svg" xmlns:xlink="http://www.w3.org/1999/xlink">
    <!-- Generator: Sketch 61 (89581) - https://sketch.com -->
    <title>icon</title>
    <desc>Created with Sketch.</desc>
    <g id="icon" stroke="none" stroke-width="1" fill="none" fill-rule="evenodd">
        <g id="Group-2" transform="translate(21.651786, 121.000000)" fill="#00B386" fill-rule="nonzero">
            <g id="Group" opacity="0.4" transform="translate(0.348214, 98.000000)">
                <path d="M44.392459,100.250642 L78.402623,156.890843 C80.4977049,160.360055 78.0301639,164.796871 74.0262295,164.796871 L5.98262295,164.796871 C1.97868852,164.796871 -0.488852459,160.360055 1.60622951,156.890843 L35.6163934,100.250642 C37.6183607,96.9230306 42.3904918,96.9230306 44.392459,100.250642 Z" id="Path"></path>
                <path d="M107.198361,2.87669782 L141.208525,59.5168982 C143.303607,62.9861105 140.836066,67.4229262 136.832131,67.4229262 L68.8118033,67.4229262 C64.8078689,67.4229262 62.3403279,62.9861105 64.4354098,59.5168982 L98.4455738,2.87669782 C100.424262,-0.450913958 105.196393,-0.450913958 107.198361,2.87669782 Z" id="Path"></path>
            </g>
            <path d="M429.707877,198.494148 L463.588025,255.098918 C465.675098,258.56596 463.21699,263 459.228362,263 L391.468066,263 C387.479438,263 385.02133,258.56596 387.108403,255.098918 L420.988551,198.494148 C422.959675,195.168617 427.713563,195.168617 429.707877,198.494148 Z" id="Path"></path>
            <path d="M299.707877,198.494148 L333.588025,255.098918 C335.675098,258.56596 333.21699,263 329.228362,263 L261.468066,263 C257.479438,263 255.02133,258.56596 257.108403,255.098918 L290.988551,198.494148 C292.959675,195.168617 297.713563,195.168617 299.707877,198.494148 Z" id="Path"></path>
            <path d="M172.718173,198.494148 L206.588251,255.098918 C208.674704,258.56596 206.217326,263 202.229884,263 L134.466545,263 C130.479102,263 128.021725,258.56596 130.108177,255.098918 L163.978256,198.494148 C165.971977,195.168617 170.724452,195.168617 172.718173,198.494148 Z" id="Path"></path>
            <path d="M365.718173,101.494148 L399.588251,158.098918 C401.674704,161.56596 399.217326,166 395.229884,166 L327.466545,166 C323.479102,166 321.021725,161.56596 323.108177,158.098918 L356.978256,101.494148 C358.971977,98.1686174 363.724452,98.1686174 365.718173,101.494148 Z" id="Path"></path>
            <path d="M235.707877,101.494148 L269.588025,158.098918 C271.675098,161.56596 269.21699,166 265.228362,166 L197.468066,166 C193.479438,166 191.02133,161.56596 193.108403,158.098918 L226.988551,101.494148 C228.982865,98.1686174 233.713563,98.1686174 235.707877,101.494148 Z" id="Path"></path>
            <path d="M299.707877,2.49414767 L333.588025,59.0989175 C335.675098,62.5659597 333.21699,67 329.228362,67 L261.468066,67 C257.479438,67 255.02133,62.5659597 257.108403,59.0989175 L290.988551,2.49414767 C292.959675,-0.831382557 297.713563,-0.831382557 299.707877,2.49414767 Z" id="Path"></path>
        </g>
    </g>
</svg>