<svg viewBox="0 0 200 200" xmlns="http://www.w3.org/2000/svg" xmlns:xlink="http://www.w3.org/1999/xlink"><linearGradient id="a" gradientTransform="matrix(-1 0 0 1 2228.6 0)" gradientUnits="userSpaceOnUse" x1="2072.39" x2="2086.18" y1="125.31" y2="125.31"><stop offset="0" stop-color="#68d9fd"/><stop offset="1" stop-color="#7ec8fe"/></linearGradient><path d="m136.07 154c3.48-1.68 59.3-.9 50.43-42s-65.59-36.16-79.41-64.8-50.88-16.3-71.88 4.93c-21.34 21.56-42 119.17 80.64 75.14 47.74-17.19 17.86 25.27 17.86 25.27" fill="#2e8e97" opacity=".2"/><path d="m140.18 55.62h1.27a.52.52 0 0 1 .55.51v17a.52.52 0 0 1 -.55.51h-1.27a.52.52 0 0 1 -.55-.51v-17a.56.56 0 0 1 .55-.51zm-78.78-14.08h.24a.51.51 0 0 1 .55.5v4.9a.52.52 0 0 1 -.55.51h-.24a.52.52 0 0 1 -.55-.51v-4.94a.51.51 0 0 1 .55-.46zm-.05 10.83h.41a.52.52 0 0 1 .55.5v9.3a.52.52 0 0 1 -.55.5h-.41a.52.52 0 0 1 -.55-.5v-9.3a.52.52 0 0 1 .55-.5zm.02 13.89h.34a.52.52 0 0 1 .55.5v9.38a.52.52 0 0 1 -.55.51h-.34a.52.52 0 0 1 -.55-.51v-9.38a.52.52 0 0 1 .55-.5z" fill="#2f2f33"/><path d="m70.91 22h60.69c5.14 0 9.32 3.85 9.32 8.57v131c0 4.73-4.18 8.57-9.32 8.57h-60.69c-5.14 0-9.32-3.84-9.32-8.57v-131c0-4.72 4.18-8.57 9.32-8.57z" fill="#2f2f33"/><g fill="#e6e8ec"><path d="m94.54 26.42h9.23a.89.89 0 0 1 .93.85v.38a.89.89 0 0 1 -.93.85h-9.23a.89.89 0 0 1 -.93-.85v-.38a.91.91 0 0 1 .93-.85z"/><ellipse cx="107.64" cy="27.45" rx="1.27" ry="1.16"/><path d="m129.73 25.87h-9.08v1a5 5 0 0 1 -5.19 4.77h-29a5 5 0 0 1 -5.18-4.77v-1h-8.48a6.06 6.06 0 0 0 -6.31 5.8v128.86a6 6 0 0 0 6.31 5.77h56.93a6.05 6.05 0 0 0 6.29-5.77v-128.88a6.06 6.06 0 0 0 -6.29-5.78z"/></g><path d="m78.49 122.88h46a.9.9 0 0 1 .93.86v2.26a.9.9 0 0 1 -.93.86h-46a.9.9 0 0 1 -.93-.86v-2.24a.9.9 0 0 1 .93-.88zm0 6.12h46a.89.89 0 0 1 .93.85v2.24a.89.89 0 0 1 -.93.86h-46a.9.9 0 0 1 -.93-.86v-2.24a.89.89 0 0 1 .93-.85zm0 6.19h46a.9.9 0 0 1 .93.86v2.24a.89.89 0 0 1 -.93.85h-46a.89.89 0 0 1 -.93-.85v-2.24a.9.9 0 0 1 .93-.86zm0 6.15h46a.9.9 0 0 1 .93.86v2.24a.9.9 0 0 1 -.93.86h-46a.9.9 0 0 1 -.93-.86v-2.24a.9.9 0 0 1 .93-.86zm0 6.15h16.31a.9.9 0 0 1 .93.86v2.24a.9.9 0 0 1 -.93.86h-16.31a.9.9 0 0 1 -.93-.86v-2.24a.9.9 0 0 1 .93-.86z" fill="#2e8e97" opacity=".1"/><path d="m70.32 66h62.31a1.31 1.31 0 0 1 1.37 1.24v42.76a1.31 1.31 0 0 1 -1.36 1.25h-62.32a1.31 1.31 0 0 1 -1.32-1.25v-42.76a1.3 1.3 0 0 1 1.32-1.24z" fill="#2e8e97" opacity=".1"/><path d="m146.93 131h9.28l-4.5-11.39h-9.28z" fill="url(#a)"/><ellipse cx="170.32" cy="170.76" fill="#2e8e97" opacity=".1" rx="14.68" ry="4.77"/><ellipse cx="163.09" cy="108.5" fill="#fef2ff" rx="5.36" ry="4.21" transform="matrix(.51683219 -.85608673 .85608673 .51683219 -14.089632 192.049698)"/><path d="m160.91 103.05s-1.58 1.51 1 2.06 4.39 1.42 3.52 2.68-2.5 4.52-.6 4.88 4.78-4 4.16-6-4.32-6.67-8.08-3.62z" fill="#101011"/><path d="m168.26 134.46 2.05 35.54s-10.29 2.06-8.23-.52l2.06-2.57-2.06-22.65-4.08 25.2s-11.32 0-7.72-2.06l3.6-2.06 1-29.85z" fill="#2f2f33"/><path d="m166.83 111.73s5.83 25.45.53 27l-13.25.53.53-10.07s-4.39 1.11-6-2.6c-1.47-3.42 6.57-2.43 7.42-7.16 1.19-6.49 8.65-10.88 10.77-7.7z" fill="#E64E62"/><path d="m43.68 94.13a17.36 17.36 0 1 1 17.32-17.36 17.38 17.38 0 0 1 -17.32 17.36z" fill="#dbdbdb"/><path d="m43.68 58.88a17.59 17.59 0 0 0 -16.41 11.05 17.88 17.88 0 1 0 34.41 6.84 18.17 18.17 0 0 0 -18-17.89zm0 1a16.91 16.91 0 1 1 -16.83 16.99 16.86 16.86 0 0 1 16.83-16.94z" fill="#fff"/><path d="m43.68 93.29a16.52 16.52 0 1 1 16.42-16.52 16.62 16.62 0 0 1 -16.42 16.52z" fill="#dbdbdb"/><path d="m43.68 59.93a17.07 17.07 0 1 0 11.89 5.07 17 17 0 0 0 -11.89-5.07zm0 .74a15.88 15.88 0 0 1 14.84 10 16.27 16.27 0 0 1 -3.47 17.58 16.12 16.12 0 1 1 -11.37-27.58z" fill="#2d2d2d"/><path d="m43.68 90.34a13.58 13.58 0 1 1 13.58-13.57 13.6 13.6 0 0 1 -13.58 13.57z" fill="#dbdbdb"/><path d="m43.68 63a13.73 13.73 0 1 0 5.16 26.41 13.79 13.79 0 0 0 4.42-22.41 13.48 13.48 0 0 0 -9.58-4zm0 .32a13.47 13.47 0 1 1 -13.47 13.45 13.49 13.49 0 0 1 13.47-13.47z" fill="#2d2d2d"/><path d="m36.32 85 1.79-6.73-2.74 1.05v-2.1l3.37-1.26 2.52-9.68h5.37l-2 7.47 3.16-1.16v2.21l-3.69 1.34-1.47 5.68 9.89.1-.84 3z" fill="#fff"/><path d="m46.94 65.93h-5.94l-2.53 9.79-3.42 1.28v2.73l2.64-.94-1.69 6.5h15.89l1-3.68-9.89-.11 1.36-5.15 3.74-1.35v-2.76l-3.05 1.06zm-.73.53-1.69 6.62-.31 1.06 1-.42 2.21-.85v1.48l-3.32 1.26-.31.11-.11.31-1.36 5.16-.22.73h.74l9.16.08-.64 2.52h-14.73l1.48-5.78.31-1.06-1.05.43-1.79.63v-1.45l3.05-1.15.37-.14.1-.31 2.42-9.37 4.74.11z" fill="#2d2d2d"/><path d="m92.19 107.18 12.1-19.89 12.42 19.89-12.42 7.26z" fill="#8992b1"/><path d="m104.29 86.34-12.73 20.94 12.73 7.79 13.15-7.79zm0 1.9 11.78 18.76-11.78 6.94-11.36-6.94z" fill="#fff"/><path d="m93.56 111.6 10.44 6.2h.53l11.15-6.52-11.39 15.72z" fill="#8992b1"/><path d="m117.44 109.7-13.15 7.79-12.42-7.37 12.42 17.78zm-3.57 3.16-9.58 13.26-8.94-13 8.41 5h1.06l9.05-5.36z" fill="#fff"/><path d="m104.71 88.13 12 19.05-12 7z" fill="#646993"/><path d="m104.29 86.34v28.66l13.15-7.78zm.95 3.47 10.76 17.19-10.73 6.31v-23.5z" fill="#fff"/><path d="m104.71 117.7 10.94-6.42-10.94 15z" fill="#646993"/><path d="m117.44 109.7-13.15 7.79v10.41zm-3.57 3.16-8.63 11.89v-6.84z" fill="#fff"/><path d="m92.4 107.28 11.89-7.15 12.1 7.15-12.1 7.16z" fill="#454a72"/><path d="m104.29 99.5-12.73 7.78 12.73 7.79 13.15-7.79zm0 1.26 11.15 6.63-11.15 6.61-10.84-6.63z" fill="#fff"/><path d="m97 118.64a29.31 29.31 0 1 1 -29.22-29.35 29.34 29.34 0 0 1 29.22 29.35z" fill="#ffaf66"/><path d="m91.87 118.64a24.15 24.15 0 1 1 -24.1-24.18 24.18 24.18 0 0 1 24.1 24.18z" fill="#ff9a36"/><path d="m80.3 114.43c.63-3.89-2.42-6-6.42-7.36l1.37-5.26-3.25-.81-1.27 5.15c-.84-.21-1.68-.42-2.63-.63l1.27-5.15-3.16-.85-1.37 5.26c-.73-.21-1.37-.31-2.1-.52l-4.42-1.16-.84 3.47a15.25 15.25 0 0 1 2.31.63 1.66 1.66 0 0 1 1.47 1.9l-1.47 6c.11 0 .21.1.32.1l-.32-.1-2.1 8.41a1.14 1.14 0 0 1 -1.48.74 18 18 0 0 1 -2.31-.63l-1.58 3.68 4.21 1c.84.21 1.58.42 2.31.64l-1.36 5.36 3.15.84 1.37-5.24 2.53.63-1.37 5.26 3.16.85 1.36-5.37c5.47 1 9.58.63 11.37-4.31 1.36-4-.11-6.32-3-7.79a5.17 5.17 0 0 0 4.21-4.74zm-6.31 0c-.95 3.69-6.53 1.79-8.32 1.37l1.58-6.42c1.75.32 7.58 1.16 6.75 5.05zm-1.06 10.32c-.94 4-7.68 1.79-9.89 1.26l1.79-7.16c2.11.64 9.17 1.69 8.1 5.9z" fill="#fff"/><path d="m36.5 171.31-.32-.13c-.08 0-7.26-2.77-10.62-9s-1.72-13.75-1.7-13.83l.08-.34.33.12c.07 0 7.25 2.78 10.61 9s1.72 13.75 1.7 13.82zm-12.11-22.48c-.28 1.55-1.13 7.78 1.71 13s8.52 8 9.95 8.59c.28-1.54 1.13-7.77-1.71-13s-8.51-8-10-8.6z" fill="#475c67"/><path d="m28.13 160c6.05 3.64 8.37 10.86 8.37 10.86s-7.5 1.31-13.5-2.33-8.38-10.86-8.38-10.86 7.46-1.33 13.51 2.33z" fill="#2e8e97"/><path d="m115 50.14-7.61-7.61a.29.29 0 0 0 -.42 0l-8.19 8.19a.29.29 0 0 1 -.42 0l-.25-.25a.3.3 0 0 0 -.51.21v3.55a.31.31 0 0 0 .3.3h3.55a.3.3 0 0 0 .21-.51.29.29 0 0 1 0-.42l3.77-3.79a.28.28 0 0 0 0-.41l-.34-.35a.29.29 0 0 1 .21-.5h3.54a.29.29 0 0 1 .3.29v3.55a.3.3 0 0 1 -.51.21l-.24-.24a.28.28 0 0 0 -.41 0l-6.37 6.36a.29.29 0 0 1 -.42 0l-7.78-7.78a.3.3 0 0 1 0-.43l10.39-10.39c.53-.53.26-.91.17-1l-2.12-2.12a.59.59 0 0 0 -.86 0l-13.22 13.25a1.16 1.16 0 0 0 -.36.69 1.24 1.24 0 0 0 .36.71l13.09 13.09a.8.8 0 0 0 1.16 0l13.06-13.06a1.05 1.05 0 0 0 -.08-1.54" fill="#E64E62"/></svg>