<svg width="154" height="160" viewBox="0 0 154 160" fill="none" xmlns="http://www.w3.org/2000/svg">
<rect width="153.412" height="160" fill="black" fill-opacity="0.01"/>
<mask id="mask0_66_3196" style="mask-type:alpha" maskUnits="userSpaceOnUse" x="0" y="0" width="154" height="160">
<rect width="153.412" height="160" fill="white"/>
</mask>
<g mask="url(#mask0_66_3196)">
<path d="M0 0H153V160.018H0V0Z" fill="white"/>
<rect x="8" y="12" width="137" height="56" rx="6" fill="#00142A"/>
<path d="M129.253 44.773L134.031 39.9957L129.258 35.2226" stroke="#737E8D" stroke-width="2"/>
<path d="M20.81 30C21.44 30 21.9 29.87 22.21 29.62C22.63 29.28 22.84 28.76 22.84 28.07C22.84 27.58 22.74 27.18 22.53 26.85C22.4 26.62 22.31 26.54 21.95 26.33L21.86 26.27C22.42 25.94 22.7 25.42 22.7 24.71C22.7 24.11 22.52 23.64 22.15 23.29C21.82 23 21.33 22.86 20.67 22.86H18.04V30H20.81ZM18.87 23.55H20.61C20.98 23.55 21.26 23.62 21.46 23.77C21.73 23.98 21.87 24.31 21.87 24.77C21.87 25.19 21.75 25.51 21.51 25.73C21.31 25.9 21.01 25.99 20.61 25.99H18.87V23.55ZM18.87 26.68H20.76C21.11 26.68 21.39 26.76 21.6 26.93C21.87 27.16 22.01 27.52 22.01 28.01C22.01 28.47 21.89 28.81 21.65 29.03C21.44 29.22 21.15 29.31 20.76 29.31H18.87V26.68ZM24.2267 27.86C24.2267 28.42 24.2767 28.84 24.3767 29.12C24.5967 29.77 25.1367 30.09 26.0067 30.09C26.6467 30.09 27.1067 29.87 27.3867 29.44L27.4467 30H28.0567V24.98H27.2667V27.53C27.2667 28.88 26.9367 29.41 26.1067 29.41C25.6267 29.41 25.3067 29.2 25.1467 28.79C25.0567 28.56 25.0167 28.22 25.0167 27.78V24.98H24.2267V27.86ZM30.8708 30.73C30.5808 31.5 30.4008 31.63 29.6508 31.63V32.3C30.9408 32.29 31.2108 32.09 31.6808 30.81L33.6508 24.98H32.8508L31.5408 29.1L30.0708 24.98H29.2708L31.1208 29.99L30.8708 30.73ZM40.7455 28.23C40.6355 28.98 40.0755 29.39 39.2255 29.39C38.0755 29.39 37.6355 28.75 37.6355 27.12V25.74C37.6355 24.13 38.0955 23.48 39.2155 23.48C40.0555 23.48 40.5955 23.89 40.6855 24.64L41.4455 24.58C41.3955 23.43 40.5755 22.78 39.2055 22.78C38.3755 22.78 37.7455 23.04 37.3355 23.55C36.9455 24.02 36.8055 24.62 36.8055 25.7V27.17C36.8055 28.09 36.9455 28.76 37.2355 29.19C37.6355 29.79 38.2855 30.09 39.1955 30.09C40.6055 30.09 41.4455 29.45 41.5155 28.32L40.7455 28.23ZM43.9239 30V27.55C43.9239 26.16 44.2339 25.58 44.9639 25.58C45.1939 25.58 45.4339 25.66 45.6739 25.82L46.0039 25.14C45.6939 24.97 45.3639 24.88 45.0339 24.88C44.5039 24.88 44.1039 25.07 43.8339 25.45L43.7539 24.98H43.1339V30H43.9239ZM48.3805 30.73C48.0905 31.5 47.9105 31.63 47.1605 31.63V32.3C48.4505 32.29 48.7205 32.09 49.1905 30.81L51.1605 24.98H50.3605L49.0505 29.1L47.5805 24.98H46.7805L48.6305 29.99L48.3805 30.73ZM53.1234 32.25V29.63C53.4734 29.94 53.9234 30.09 54.4934 30.09C55.7834 30.09 56.3834 29.39 56.3834 27.87V27.11C56.3834 25.58 55.7834 24.88 54.4934 24.88C53.8434 24.88 53.3634 25.05 53.0334 25.4L52.9534 24.98H52.3334V32.25H53.1234ZM55.5934 27.82C55.5934 28.89 55.1834 29.43 54.3734 29.43C53.5434 29.43 53.1234 28.92 53.1234 27.9V27.08C53.1234 26.05 53.5434 25.54 54.3734 25.54C55.1834 25.54 55.5934 26.08 55.5934 27.16V27.82ZM58.1477 28.33C58.1477 29.68 58.4677 30 59.7777 30H59.9577V29.33H59.7877C59.1377 29.34 58.9377 29.12 58.9377 28.41V25.64H59.9277V24.98H58.9377V23.37H58.1877L58.1477 24.98H57.5377V25.64H58.1477V28.33ZM61.1182 27.88C61.1182 29.39 61.7682 30.09 63.1782 30.09C64.6182 30.09 65.2682 29.4 65.2682 27.88V27.1C65.2682 25.57 64.6182 24.88 63.1782 24.88C61.7682 24.88 61.1182 25.59 61.1182 27.1V27.88ZM64.4782 27.83C64.4782 28.92 64.0682 29.43 63.1882 29.43C62.3182 29.43 61.9082 28.92 61.9082 27.83V27.15C61.9082 26.06 62.3182 25.54 63.1882 25.54C64.0682 25.54 64.4782 26.06 64.4782 27.15V27.83Z" fill="#E1E8F5" fill-opacity="0.6"/>
<path d="M20.806 39.914C19.762 39.968 18.916 40.238 18.232 40.742C17.332 41.372 16.882 42.272 16.882 43.442C16.882 44.774 17.512 45.764 18.772 46.43L20.806 47.186V51.578C20.194 51.506 19.726 51.308 19.402 50.984C18.97 50.57 18.736 49.868 18.664 48.896H16.72C16.828 50.372 17.242 51.452 17.998 52.172C18.646 52.802 19.582 53.162 20.806 53.234V54.818H21.922V53.234C23.038 53.162 23.938 52.892 24.658 52.424C25.594 51.776 26.08 50.822 26.08 49.544C26.08 48.248 25.45 47.258 24.208 46.556C24.028 46.484 23.254 46.178 21.922 45.674V41.552C22.408 41.606 22.804 41.75 23.11 41.984C23.56 42.308 23.848 42.866 23.956 43.64H25.864C25.684 42.344 25.234 41.39 24.496 40.814C23.848 40.292 23.002 39.986 21.922 39.914V38.438H20.806V39.914ZM21.922 47.582C22.03 47.618 22.138 47.672 22.246 47.708C23.506 48.14 24.136 48.788 24.136 49.616C24.136 50.246 23.866 50.732 23.362 51.092C22.966 51.344 22.498 51.506 21.922 51.578V47.582ZM20.806 45.26C20.77 45.26 20.752 45.242 20.734 45.242C19.474 44.774 18.844 44.18 18.844 43.442C18.844 42.758 19.078 42.254 19.582 41.93C19.888 41.714 20.302 41.57 20.806 41.534V45.26ZM32.193 39.896C30.681 39.896 29.511 40.526 28.683 41.804C27.927 42.974 27.549 44.558 27.549 46.574C27.549 48.572 27.927 50.156 28.683 51.344C29.511 52.604 30.681 53.252 32.193 53.252C33.705 53.252 34.875 52.604 35.703 51.344C36.459 50.156 36.837 48.554 36.837 46.574C36.837 44.576 36.459 42.992 35.703 41.804C34.875 40.526 33.705 39.896 32.193 39.896ZM32.193 41.552C33.237 41.552 33.993 42.128 34.425 43.298C34.731 44.09 34.893 45.188 34.893 46.574C34.893 47.942 34.731 49.04 34.425 49.85C33.993 51.002 33.237 51.596 32.193 51.596C31.131 51.596 30.393 51.002 29.961 49.85C29.637 49.04 29.493 47.942 29.493 46.574C29.493 45.188 29.637 44.09 29.961 43.298C30.393 42.128 31.131 41.552 32.193 41.552ZM44.8401 40.148V53H46.8021V47.24H53.1921V45.566H46.8021V41.822H53.5701V40.148H44.8401ZM59.0611 43.442C57.6931 43.442 56.5951 43.91 55.8031 44.864C54.9751 45.8 54.5791 46.952 54.5791 48.338C54.5791 49.868 55.0111 51.074 55.8751 51.974C56.6671 52.82 57.7651 53.252 59.1331 53.252C60.3751 53.252 61.4011 52.892 62.2111 52.19C62.8591 51.614 63.2731 50.876 63.4891 50.012H61.5811C61.3291 50.552 61.0591 50.966 60.7351 51.218C60.3211 51.524 59.7811 51.686 59.1151 51.686C58.3591 51.686 57.7651 51.434 57.3331 50.966C56.9011 50.48 56.6671 49.778 56.5951 48.878H63.6511C63.6331 47.222 63.2551 45.926 62.5351 44.99C61.7431 43.946 60.5731 43.442 59.0611 43.442ZM59.1151 45.008C60.6271 45.008 61.4731 45.818 61.6531 47.438H56.6311C56.7391 46.646 57.0091 46.052 57.4051 45.638C57.8371 45.206 58.3951 45.008 59.1151 45.008ZM69.2212 43.442C67.8532 43.442 66.7552 43.91 65.9632 44.864C65.1352 45.8 64.7392 46.952 64.7392 48.338C64.7392 49.868 65.1712 51.074 66.0352 51.974C66.8272 52.82 67.9252 53.252 69.2932 53.252C70.5352 53.252 71.5612 52.892 72.3712 52.19C73.0192 51.614 73.4332 50.876 73.6492 50.012H71.7412C71.4892 50.552 71.2192 50.966 70.8952 51.218C70.4812 51.524 69.9412 51.686 69.2752 51.686C68.5192 51.686 67.9252 51.434 67.4932 50.966C67.0612 50.48 66.8272 49.778 66.7552 48.878H73.8112C73.7932 47.222 73.4152 45.926 72.6952 44.99C71.9032 43.946 70.7332 43.442 69.2212 43.442ZM69.2752 45.008C70.7872 45.008 71.6332 45.818 71.8132 47.438H66.7912C66.8992 46.646 67.1692 46.052 67.5652 45.638C67.9972 45.206 68.5552 45.008 69.2752 45.008Z" fill="#E1E8F5"/>
<path d="M109.205 106.66C109.975 106.66 110.515 107.21 110.515 108C110.515 108.79 110.095 109.23 109.365 109.23C108.715 109.23 108.335 108.92 108.235 108.3L107.225 108.42C107.335 109.54 108.055 110.1 109.395 110.1C110.825 110.1 111.575 109.39 111.575 108.03C111.575 107.14 111.285 106.63 110.535 106.23C111.165 105.87 111.395 105.45 111.395 104.68C111.395 103.44 110.695 102.76 109.415 102.76C108.205 102.76 107.535 103.3 107.415 104.38L108.365 104.46C108.475 103.93 108.835 103.63 109.365 103.63C109.975 103.63 110.335 104.03 110.335 104.71C110.335 105.39 109.865 105.82 109.135 105.82H108.565V106.66H109.205ZM113.666 111.88L114.366 108.88H113.236L112.756 111.88H113.666ZM118.507 110V102.86H117.787L115.917 103.66L116.247 104.48L117.437 103.97V110H118.507ZM121.127 107.43C121.127 108.29 121.247 108.91 121.497 109.28C121.857 109.83 122.417 110.1 123.187 110.1C123.997 110.1 124.497 109.89 124.867 109.4C125.177 109 125.327 108.34 125.327 107.43V105.43C125.327 104.58 125.207 103.97 124.957 103.58C124.587 103.03 123.997 102.76 123.187 102.76C122.477 102.76 121.947 102.99 121.587 103.46C121.277 103.85 121.127 104.51 121.127 105.43V107.43ZM124.277 107.33C124.277 108.72 123.987 109.23 123.217 109.23C122.467 109.23 122.177 108.7 122.177 107.33V105.53C122.177 104.16 122.467 103.63 123.217 103.63C123.987 103.63 124.277 104.14 124.277 105.53V107.33ZM127.288 106.22C126.698 106.55 126.468 107.05 126.468 107.96C126.468 109.44 127.138 110.1 128.628 110.1C130.118 110.1 130.788 109.44 130.788 107.96C130.788 107.05 130.558 106.55 129.968 106.22C130.418 105.83 130.588 105.43 130.588 104.72C130.588 103.39 129.958 102.76 128.628 102.76C127.298 102.76 126.668 103.39 126.668 104.72C126.668 105.44 126.818 105.82 127.288 106.22ZM128.638 103.58C129.288 103.58 129.578 103.93 129.578 104.72C129.578 105.53 129.298 105.87 128.628 105.87C127.958 105.87 127.678 105.53 127.678 104.72C127.678 103.91 127.958 103.58 128.638 103.58ZM128.648 106.69C129.398 106.69 129.728 107.08 129.728 107.96C129.728 108.85 129.398 109.23 128.628 109.23C127.858 109.23 127.528 108.87 127.528 107.96C127.528 107.07 127.858 106.69 128.648 106.69ZM133.298 110V108.87H132.228V110H133.298ZM135.559 106.22C134.969 106.55 134.739 107.05 134.739 107.96C134.739 109.44 135.409 110.1 136.899 110.1C138.389 110.1 139.059 109.44 139.059 107.96C139.059 107.05 138.829 106.55 138.239 106.22C138.689 105.83 138.859 105.43 138.859 104.72C138.859 103.39 138.229 102.76 136.899 102.76C135.569 102.76 134.939 103.39 134.939 104.72C134.939 105.44 135.089 105.82 135.559 106.22ZM136.909 103.58C137.559 103.58 137.849 103.93 137.849 104.72C137.849 105.53 137.569 105.87 136.899 105.87C136.229 105.87 135.949 105.53 135.949 104.72C135.949 103.91 136.229 103.58 136.909 103.58ZM136.919 106.69C137.669 106.69 137.999 107.08 137.999 107.96C137.999 108.85 137.669 109.23 136.899 109.23C136.129 109.23 135.799 108.87 135.799 107.96C135.799 107.07 136.129 106.69 136.919 106.69ZM142.98 110V102.86H142.26L140.39 103.66L140.72 104.48L141.91 103.97V110H142.98Z" fill="#00142A"/>
<path d="M38.224 105V104.296H35.624V102.464H37.816V101.76H35.624V99.992H38.2V99.288H34.776V105H38.224ZM41.6011 105V99.992H43.2011V99.288H39.1451V99.992H40.7451V105H41.6011ZM45.1553 105V102.464H47.3473V105H48.2033V99.288H47.3473V101.76H45.1553V99.288H44.2993V105H45.1553ZM50.0488 105.168L51.9528 99.12H51.1448L49.2327 105.168H50.0488ZM53.1424 102.888C53.1424 103.656 53.2144 104 53.4144 104.32C53.7504 104.824 54.3264 105.08 55.1504 105.08C55.9104 105.08 56.4544 104.856 56.7984 104.416C57.0624 104.088 57.1504 103.72 57.1504 102.888V99.288H56.2944V102.888C56.2944 103.328 56.2464 103.648 56.1584 103.848C55.9824 104.208 55.6464 104.384 55.1504 104.384C54.6864 104.384 54.3584 104.232 54.1744 103.92C54.0544 103.712 53.9984 103.368 53.9984 102.888V99.288H53.1424V102.888ZM58.1861 104.184C58.5541 104.784 59.2261 105.08 60.1941 105.08C61.5061 105.08 62.2021 104.504 62.2021 103.44C62.2021 102.872 62.0181 102.464 61.6581 102.216C61.3621 102.024 61.2261 101.968 60.4661 101.784C59.5381 101.552 59.2341 101.296 59.2341 100.76C59.2341 100.224 59.5941 99.904 60.2021 99.904C60.7061 99.904 61.0821 100.072 61.3221 100.416L61.9621 100C61.6341 99.472 61.0581 99.208 60.2261 99.208C59.0821 99.208 58.4101 99.8 58.4101 100.8C58.4101 101.704 58.8661 102.168 60.0421 102.464C60.4581 102.568 60.7061 102.632 60.7941 102.656C60.8821 102.68 60.9701 102.728 61.0661 102.8C61.2741 102.944 61.3781 103.168 61.3781 103.464C61.3781 104.048 60.9621 104.376 60.2021 104.376C59.5461 104.376 59.0901 104.176 58.8421 103.768L58.1861 104.184ZM65.1793 105C66.6273 105.024 67.3393 104.288 67.2993 102.808V101.48C67.3393 100 66.6273 99.264 65.1793 99.288H63.2993V105H65.1793ZM64.1553 99.976H65.0273C66.0273 99.952 66.4353 100.4 66.4433 101.552V102.736C66.4353 103.888 66.0433 104.336 65.0273 104.312H64.1553V99.976ZM70.6324 105V99.992H72.2324V99.288H68.1764V99.992H69.7764V105H70.6324Z" fill="#00142A"/>
<path d="M34.138 115.328C34.348 115.688 34.804 115.916 35.398 115.946V116.798H35.872V115.934C36.658 115.85 37.054 115.466 37.054 114.788C37.054 114.404 36.916 114.122 36.646 113.942C36.436 113.804 36.31 113.756 35.752 113.63C35.014 113.456 34.756 113.252 34.756 112.838C34.756 112.424 35.068 112.178 35.578 112.178C35.992 112.178 36.292 112.304 36.466 112.55L36.844 112.304C36.67 112.01 36.346 111.842 35.872 111.788V111.128H35.398V111.776C35.134 111.8 34.93 111.854 34.792 111.932C34.462 112.106 34.27 112.46 34.27 112.874C34.27 113.498 34.636 113.852 35.506 114.05C35.824 114.128 36.016 114.176 36.082 114.194C36.148 114.218 36.226 114.254 36.304 114.308C36.478 114.422 36.568 114.596 36.568 114.83C36.568 115.28 36.214 115.538 35.59 115.538C35.068 115.538 34.714 115.382 34.522 115.076L34.138 115.328ZM38.6502 113.942C39.1602 113.942 39.5142 114.296 39.5142 114.818C39.5142 115.34 39.2262 115.634 38.7282 115.634C38.3022 115.634 38.0562 115.448 37.9842 115.076L37.5102 115.136C37.5762 115.73 38.0022 116.054 38.7402 116.054C39.5742 116.054 40.0122 115.628 40.0122 114.83C40.0122 114.278 39.8202 113.954 39.3462 113.738C39.7542 113.522 39.9042 113.27 39.9042 112.796C39.9042 112.058 39.5022 111.662 38.7642 111.662C38.0862 111.662 37.7082 111.956 37.6302 112.55L38.0742 112.592C38.1462 112.274 38.3862 112.082 38.7402 112.082C39.1542 112.082 39.4062 112.352 39.4062 112.808C39.4062 113.246 39.0942 113.54 38.6202 113.54H38.2602V113.942H38.6502ZM41.2365 117.128L41.6445 115.406H41.1045L40.8225 117.128H41.2365ZM44.13 116V111.716H43.788L42.738 112.172L42.894 112.568L43.632 112.244V116H44.13ZM47.3702 116V111.716H47.0282L45.9782 112.172L46.1342 112.568L46.8722 112.244V116H47.3702ZM49.0624 114.488C49.0624 114.98 49.1344 115.34 49.2784 115.568C49.4884 115.892 49.8184 116.054 50.2684 116.054C50.6824 116.054 50.9944 115.916 51.2044 115.64C51.3784 115.412 51.4684 115.028 51.4684 114.488V113.228C51.4684 112.736 51.3964 112.376 51.2524 112.148C51.0424 111.824 50.7124 111.662 50.2684 111.662C49.8544 111.662 49.5364 111.8 49.3264 112.076C49.1524 112.304 49.0624 112.688 49.0624 113.228V114.488ZM50.9764 114.44C50.9764 115.286 50.7724 115.634 50.2684 115.634C49.7584 115.634 49.5544 115.298 49.5544 114.44V113.276C49.5544 112.418 49.7584 112.082 50.2684 112.082C50.7724 112.082 50.9764 112.43 50.9764 113.276V114.44ZM52.9867 116V115.4H52.4887V116H52.9867ZM56.276 116V115.58H54.572L55.43 114.458C56.078 113.6 56.246 113.252 56.246 112.73C56.246 112.04 55.85 111.662 55.136 111.662C54.44 111.662 54.002 112.034 53.936 112.682L54.386 112.724C54.482 112.298 54.722 112.082 55.106 112.082C55.532 112.082 55.748 112.292 55.748 112.706C55.748 113.09 55.532 113.564 55.1 114.128L53.912 115.67V116H56.276ZM58.5383 111.716L57.5783 113.51C57.3203 113.99 57.2603 114.23 57.2603 114.692C57.2603 115.148 57.3383 115.472 57.4943 115.664C57.6983 115.922 58.0163 116.054 58.4483 116.054C58.8383 116.054 59.1383 115.946 59.3483 115.73C59.5403 115.526 59.6363 115.178 59.6363 114.692C59.6363 114.266 59.5643 113.954 59.4263 113.756C59.2283 113.486 58.9463 113.348 58.5803 113.348C58.3943 113.348 58.2503 113.384 58.1363 113.456L59.0963 111.716H58.5383ZM58.4603 113.744C58.9223 113.744 59.1383 114.044 59.1383 114.692C59.1383 115.34 58.9223 115.634 58.4483 115.634C57.9743 115.634 57.7583 115.34 57.7583 114.686C57.7583 114.032 57.9743 113.744 58.4603 113.744Z" fill="#00142A" fill-opacity="0.6"/>
<circle cx="20" cy="106" r="12" fill="#00142A" fill-opacity="0.04"/>
<path d="M26.9875 105.998C26.9875 109.844 23.8692 112.963 20.0223 112.963C16.1756 112.963 13.0571 109.844 13.0571 105.998C13.0571 102.151 16.1756 99.0324 20.0223 99.0324C23.8692 99.0324 26.9875 102.151 26.9875 105.998Z" fill="#1BA27A"/>
<path d="M23.2911 102.545H16.6958V104.137H19.1973V106.477H20.7896V104.137H23.2911V102.545Z" fill="white"/>
<path d="M20.0087 106.726C17.9393 106.726 16.2616 106.399 16.2616 105.995C16.2616 105.591 17.9392 105.263 20.0087 105.263C22.078 105.263 23.7556 105.591 23.7556 105.995C23.7556 106.399 22.078 106.726 20.0087 106.726ZM24.216 106.117C24.216 105.596 22.3323 105.174 20.0087 105.174C17.6851 105.174 15.8013 105.596 15.8013 106.117C15.8013 106.576 17.2619 106.958 19.1975 107.043V110.402H20.7896V107.044C22.74 106.962 24.216 106.578 24.216 106.117Z" fill="white"/>
<path d="M119.727 140V139.12H116.997L118.267 137.5C118.657 137 118.897 136.69 118.987 136.57C119.067 136.45 119.167 136.28 119.287 136.07C119.557 135.59 119.697 135.1 119.697 134.6C119.697 133.43 118.997 132.76 117.747 132.76C116.477 132.76 115.737 133.42 115.647 134.59L116.627 134.67C116.757 133.98 117.117 133.64 117.707 133.64C118.327 133.64 118.637 133.95 118.637 134.56C118.637 135.15 118.287 135.9 117.577 136.79L115.597 139.3V140H119.727ZM121.127 137.43C121.127 138.29 121.247 138.91 121.497 139.28C121.857 139.83 122.417 140.1 123.187 140.1C123.997 140.1 124.497 139.89 124.867 139.4C125.177 139 125.327 138.34 125.327 137.43V135.43C125.327 134.58 125.207 133.97 124.957 133.58C124.587 133.03 123.997 132.76 123.187 132.76C122.477 132.76 121.947 132.99 121.587 133.46C121.277 133.85 121.127 134.51 121.127 135.43V137.43ZM124.277 137.33C124.277 138.72 123.987 139.23 123.217 139.23C122.467 139.23 122.177 138.7 122.177 137.33V135.53C122.177 134.16 122.467 133.63 123.217 133.63C123.987 133.63 124.277 134.14 124.277 135.53V137.33ZM127.898 140V138.87H126.828V140H127.898ZM132.179 140V132.86H131.459L129.589 133.66L129.919 134.48L131.109 133.97V140H132.179ZM136.839 140L138.529 136.69C138.879 136.01 138.959 135.69 138.959 134.9C138.959 134.19 138.819 133.68 138.539 133.36C138.189 132.96 137.649 132.76 136.899 132.76C136.209 132.76 135.689 132.92 135.329 133.25C134.989 133.58 134.819 134.14 134.819 134.93C134.819 135.77 135.009 136.35 135.399 136.67C135.709 136.92 136.109 137.05 136.599 137.05C136.799 137.05 137.009 137.03 137.239 136.98L135.649 140H136.839ZM136.899 133.63C137.569 133.63 137.899 134.07 137.899 134.94C137.899 135.81 137.559 136.24 136.889 136.24C136.199 136.24 135.879 135.82 135.879 134.93C135.879 134.04 136.209 133.63 136.899 133.63ZM140.96 136.22C140.37 136.55 140.14 137.05 140.14 137.96C140.14 139.44 140.81 140.1 142.3 140.1C143.79 140.1 144.46 139.44 144.46 137.96C144.46 137.05 144.23 136.55 143.64 136.22C144.09 135.83 144.26 135.43 144.26 134.72C144.26 133.39 143.63 132.76 142.3 132.76C140.97 132.76 140.34 133.39 140.34 134.72C140.34 135.44 140.49 135.82 140.96 136.22ZM142.31 133.58C142.96 133.58 143.25 133.93 143.25 134.72C143.25 135.53 142.97 135.87 142.3 135.87C141.63 135.87 141.35 135.53 141.35 134.72C141.35 133.91 141.63 133.58 142.31 133.58ZM142.32 136.69C143.07 136.69 143.4 137.08 143.4 137.96C143.4 138.85 143.07 139.23 142.3 139.23C141.53 139.23 141.2 138.87 141.2 137.96C141.2 137.07 141.53 136.69 142.32 136.69Z" fill="#00142A"/>
<path d="M35.624 135V133.176L36.4 132.192L37.984 135H38.976L36.952 131.608L38.816 129.288H37.816L35.624 132.144V129.288H34.776V135H35.624ZM42.6577 133.496C42.5777 134.088 42.2097 134.384 41.5537 134.384C40.7297 134.384 40.4177 133.92 40.4177 132.696V131.608C40.4177 130.384 40.7297 129.92 41.5537 129.92C42.1777 129.92 42.5297 130.216 42.6017 130.808L43.3937 130.744C43.3377 129.752 42.6897 129.224 41.5297 129.224C40.8497 129.224 40.3377 129.424 40.0017 129.832C39.6817 130.208 39.5617 130.68 39.5617 131.552V132.744C39.5617 133.488 39.6817 134.032 39.9137 134.368C40.2577 134.84 40.7937 135.08 41.5297 135.08C42.7377 135.08 43.4017 134.568 43.4577 133.584L42.6577 133.496ZM44.4126 134.184C44.7806 134.784 45.4526 135.08 46.4206 135.08C47.7326 135.08 48.4286 134.504 48.4286 133.44C48.4286 132.872 48.2446 132.464 47.8846 132.216C47.5886 132.024 47.4526 131.968 46.6926 131.784C45.7646 131.552 45.4606 131.296 45.4606 130.76C45.4606 130.224 45.8206 129.904 46.4286 129.904C46.9326 129.904 47.3086 130.072 47.5486 130.416L48.1886 130C47.8606 129.472 47.2846 129.208 46.4526 129.208C45.3086 129.208 44.6366 129.8 44.6366 130.8C44.6366 131.704 45.0926 132.168 46.2686 132.464C46.6846 132.568 46.9326 132.632 47.0206 132.656C47.1086 132.68 47.1966 132.728 47.2926 132.8C47.5006 132.944 47.6046 133.168 47.6046 133.464C47.6046 134.048 47.1886 134.376 46.4286 134.376C45.7726 134.376 45.3166 134.176 45.0686 133.768L44.4126 134.184ZM49.8378 135.168L51.7418 129.12H50.9338L49.0218 135.168H49.8378ZM52.9315 132.888C52.9315 133.656 53.0035 134 53.2035 134.32C53.5395 134.824 54.1155 135.08 54.9395 135.08C55.6995 135.08 56.2435 134.856 56.5875 134.416C56.8515 134.088 56.9395 133.72 56.9395 132.888V129.288H56.0835V132.888C56.0835 133.328 56.0355 133.648 55.9475 133.848C55.7715 134.208 55.4355 134.384 54.9395 134.384C54.4755 134.384 54.1475 134.232 53.9635 133.92C53.8435 133.712 53.7875 133.368 53.7875 132.888V129.288H52.9315V132.888ZM57.9751 134.184C58.3431 134.784 59.0151 135.08 59.9831 135.08C61.2951 135.08 61.9911 134.504 61.9911 133.44C61.9911 132.872 61.8071 132.464 61.4471 132.216C61.1511 132.024 61.0151 131.968 60.2551 131.784C59.3271 131.552 59.0231 131.296 59.0231 130.76C59.0231 130.224 59.3831 129.904 59.9911 129.904C60.4951 129.904 60.8711 130.072 61.1111 130.416L61.7511 130C61.4231 129.472 60.8471 129.208 60.0151 129.208C58.8711 129.208 58.1991 129.8 58.1991 130.8C58.1991 131.704 58.6551 132.168 59.8311 132.464C60.2471 132.568 60.4951 132.632 60.5831 132.656C60.6711 132.68 60.7591 132.728 60.8551 132.8C61.0631 132.944 61.1671 133.168 61.1671 133.464C61.1671 134.048 60.7511 134.376 59.9911 134.376C59.3351 134.376 58.8791 134.176 58.6311 133.768L57.9751 134.184ZM64.9683 135C66.4163 135.024 67.1283 134.288 67.0883 132.808V131.48C67.1283 130 66.4163 129.264 64.9683 129.288H63.0883V135H64.9683ZM63.9443 129.976H64.8163C65.8163 129.952 66.2243 130.4 66.2323 131.552V132.736C66.2243 133.888 65.8323 134.336 64.8163 134.312H63.9443V129.976ZM70.4214 135V129.992H72.0214V129.288H67.9654V129.992H69.5654V135H70.4214Z" fill="#00142A"/>
<path d="M34.138 145.328C34.348 145.688 34.804 145.916 35.398 145.946V146.798H35.872V145.934C36.658 145.85 37.054 145.466 37.054 144.788C37.054 144.404 36.916 144.122 36.646 143.942C36.436 143.804 36.31 143.756 35.752 143.63C35.014 143.456 34.756 143.252 34.756 142.838C34.756 142.424 35.068 142.178 35.578 142.178C35.992 142.178 36.292 142.304 36.466 142.55L36.844 142.304C36.67 142.01 36.346 141.842 35.872 141.788V141.128H35.398V141.776C35.134 141.8 34.93 141.854 34.792 141.932C34.462 142.106 34.27 142.46 34.27 142.874C34.27 143.498 34.636 143.852 35.506 144.05C35.824 144.128 36.016 144.176 36.082 144.194C36.148 144.218 36.226 144.254 36.304 144.308C36.478 144.422 36.568 144.596 36.568 144.83C36.568 145.28 36.214 145.538 35.59 145.538C35.068 145.538 34.714 145.382 34.522 145.076L34.138 145.328ZM39.9342 146V145.58H38.2302L39.0882 144.458C39.7362 143.6 39.9042 143.252 39.9042 142.73C39.9042 142.04 39.5082 141.662 38.7942 141.662C38.0982 141.662 37.6602 142.034 37.5942 142.682L38.0442 142.724C38.1402 142.298 38.3802 142.082 38.7642 142.082C39.1902 142.082 39.4062 142.292 39.4062 142.706C39.4062 143.09 39.1902 143.564 38.7582 144.128L37.5702 145.67V146H39.9342ZM40.8945 144.488C40.8945 144.98 40.9665 145.34 41.1105 145.568C41.3205 145.892 41.6505 146.054 42.1005 146.054C42.5145 146.054 42.8265 145.916 43.0365 145.64C43.2105 145.412 43.3005 145.028 43.3005 144.488V143.228C43.3005 142.736 43.2285 142.376 43.0845 142.148C42.8745 141.824 42.5445 141.662 42.1005 141.662C41.6865 141.662 41.3685 141.8 41.1585 142.076C40.9845 142.304 40.8945 142.688 40.8945 143.228V144.488ZM42.8085 144.44C42.8085 145.286 42.6045 145.634 42.1005 145.634C41.5905 145.634 41.3865 145.298 41.3865 144.44V143.276C41.3865 142.418 41.5905 142.082 42.1005 142.082C42.6045 142.082 42.8085 142.43 42.8085 143.276V144.44ZM44.8187 146V145.4H44.3207V146H44.8187ZM48.1081 146V145.58H46.4041L47.2621 144.458C47.9101 143.6 48.0781 143.252 48.0781 142.73C48.0781 142.04 47.6821 141.662 46.9681 141.662C46.2721 141.662 45.8341 142.034 45.7681 142.682L46.2181 142.724C46.3141 142.298 46.5541 142.082 46.9381 142.082C47.3641 142.082 47.5801 142.292 47.5801 142.706C47.5801 143.09 47.3641 143.564 46.9321 144.128L45.7441 145.67V146H48.1081ZM50.6163 146V141.716H50.2743L49.2243 142.172L49.3803 142.568L50.1183 142.244V146H50.6163Z" fill="#00142A" fill-opacity="0.6"/>
<circle cx="20" cy="136" r="12" fill="#00142A" fill-opacity="0.04"/>
<path d="M20 143C23.866 143 27 139.866 27 136C27 132.134 23.866 129 20 129C16.134 129 13 132.134 13 136C13 139.866 16.134 143 20 143Z" fill="#2DBD96"/>
<path fill-rule="evenodd" clip-rule="evenodd" d="M18.9061 136L21.1811 138.319L22.6248 136.875C22.8873 136.613 23.2811 136.613 23.4998 136.875C23.7623 137.138 23.7623 137.575 23.4998 137.838L21.6186 139.763C21.3561 140.025 20.9623 140.025 20.6998 139.763L17.9873 136.963V138.625C17.9873 138.975 17.6811 139.281 17.3311 139.281C16.9811 139.281 16.6748 138.975 16.6748 138.625V133.375C16.6748 133.025 16.9811 132.719 17.3311 132.719C17.6811 132.719 17.9873 133.025 17.9873 133.375V135.038L20.6998 132.238C20.9623 131.975 21.3561 131.975 21.6186 132.238L23.4998 134.163C23.7623 134.425 23.7623 134.863 23.4998 135.125C23.2373 135.388 22.8436 135.388 22.6248 135.125L21.1811 133.638L18.9061 136ZM21.1811 135.344C21.5311 135.344 21.8373 135.65 21.8373 136C21.8373 136.35 21.5311 136.656 21.1811 136.656C20.8311 136.656 20.5248 136.35 20.5248 136C20.5248 135.65 20.8311 135.344 21.1811 135.344Z" fill="white"/>
<path d="M9.472 87V82.592L11.056 85.832H11.48L13.056 82.592V87H13.696V81.288H13.056L11.264 85.024L9.472 81.288H8.832V87H9.472ZM16.4513 84.64C15.3073 84.64 14.9233 84.952 14.9233 85.88C14.9233 86.752 15.2993 87.072 16.3313 87.072C16.9393 87.072 17.2433 86.976 17.4993 86.712L17.5473 87H18.0513V84.456C18.0513 84.016 17.9953 83.688 17.8833 83.488C17.6513 83.096 17.2273 82.904 16.5953 82.904C15.9713 82.904 15.4833 83.104 15.1393 83.504L15.5793 83.84C15.8193 83.568 16.1393 83.432 16.5393 83.432C16.8832 83.432 17.1313 83.528 17.2753 83.72C17.3713 83.856 17.4193 84.072 17.4193 84.36V84.64H16.4513ZM17.4193 85.744C17.4193 86.008 17.3793 86.184 17.3073 86.28C17.1713 86.456 16.8913 86.544 16.4753 86.544C15.7633 86.544 15.5312 86.376 15.5312 85.864C15.5312 85.328 15.8033 85.12 16.5153 85.12H17.4193V85.744ZM20.0704 87V85.04C20.0704 83.928 20.3184 83.464 20.9024 83.464C21.0864 83.464 21.2784 83.528 21.4704 83.656L21.7344 83.112C21.4864 82.976 21.2224 82.904 20.9584 82.904C20.5344 82.904 20.2144 83.056 19.9984 83.36L19.9344 82.984H19.4384V87H20.0704ZM23.2813 87V86.104L24.0413 85.16L25.2413 87H25.9453L24.4253 84.688L25.7933 82.984H25.0653L23.2813 85.264V81.288H22.6493V87H23.2813ZM29.8086 85.12V84.832C29.8086 83.496 29.3046 82.904 28.1766 82.904C27.0486 82.904 26.5446 83.496 26.5446 84.832V85.176C26.5446 86.464 27.0886 87.072 28.2406 87.072C28.9046 87.072 29.3926 86.864 29.6966 86.456L29.2246 86.152C29.0086 86.416 28.6966 86.544 28.3046 86.544C27.5766 86.544 27.1846 86.112 27.1846 85.288V85.12H29.8086ZM27.1846 84.576C27.1846 84.296 27.2406 84.048 27.3526 83.84C27.5126 83.568 27.7926 83.432 28.2006 83.432C28.5606 83.432 28.8246 83.544 28.9846 83.776C29.1286 83.976 29.2006 84.248 29.2006 84.576V84.64H27.1846V84.576ZM31.1603 85.664C31.1603 86.744 31.4163 87 32.4643 87H32.6083V86.464H32.4723C31.9523 86.472 31.7923 86.296 31.7923 85.728V83.512H32.5843V82.984H31.7923V81.696H31.1923L31.1603 82.984H30.6723V83.512H31.1603V85.664ZM33.482 86.448C33.77 86.864 34.29 87.072 35.05 87.072C36.114 87.072 36.65 86.68 36.65 85.888C36.65 85.472 36.53 85.176 36.29 85C36.106 84.864 35.746 84.76 35.194 84.68C34.882 84.64 34.674 84.584 34.562 84.528C34.394 84.424 34.314 84.272 34.314 84.064C34.314 83.64 34.57 83.432 35.082 83.432C35.506 83.432 35.762 83.544 36.01 83.84L36.49 83.544C36.186 83.12 35.698 82.904 35.034 82.904C34.178 82.904 33.706 83.328 33.706 84.096C33.706 84.44 33.81 84.696 34.026 84.88C34.194 85.024 34.522 85.136 35.026 85.208C35.402 85.256 35.65 85.312 35.77 85.376C35.954 85.464 36.042 85.632 36.042 85.872C36.042 86.32 35.706 86.544 35.026 86.544C34.506 86.544 34.226 86.44 33.946 86.152L33.482 86.448Z" fill="#00142A" fill-opacity="0.4"/>
</g>
</svg>
