<svg width="233" height="160" viewBox="0 0 233 160" fill="none" xmlns="http://www.w3.org/2000/svg">
<rect width="232" height="160" fill="white"/>
<mask id="mask0_66_3232" style="mask-type:alpha" maskUnits="userSpaceOnUse" x="0" y="0" width="233" height="160">
<rect width="232.113" height="160" fill="white"/>
</mask>
<g mask="url(#mask0_66_3232)">
</g>
<rect x="17" y="144" width="56" height="6" transform="rotate(-90 17 144)" fill="#00142A" fill-opacity="0.04"/>
<rect x="17" y="144" width="11" height="6" transform="rotate(-90 17 144)" fill="#2DBD96"/>
<rect x="33" y="144" width="56" height="6" transform="rotate(-90 33 144)" fill="#00142A" fill-opacity="0.04"/>
<rect x="33" y="144" width="15" height="6" transform="rotate(-90 33 144)" fill="#EB6666"/>
<rect x="49" y="144" width="56" height="6" transform="rotate(-90 49 144)" fill="#00142A" fill-opacity="0.04"/>
<rect x="49" y="144" width="13" height="6" transform="rotate(-90 49 144)" fill="#EB6666"/>
<rect x="65" y="144" width="56" height="6" transform="rotate(-90 65 144)" fill="#00142A" fill-opacity="0.04"/>
<rect x="65" y="144" width="18" height="6" transform="rotate(-90 65 144)" fill="#2DBD96"/>
<rect x="81" y="144" width="56" height="6" transform="rotate(-90 81 144)" fill="#00142A" fill-opacity="0.04"/>
<rect x="81" y="144" width="18" height="6" transform="rotate(-90 81 144)" fill="#2DBD96"/>
<rect x="97" y="144" width="56" height="6" transform="rotate(-90 97 144)" fill="#00142A" fill-opacity="0.04"/>
<rect x="97" y="144" width="20" height="6" transform="rotate(-90 97 144)" fill="#2DBD96"/>
<rect x="113" y="144" width="56" height="6" transform="rotate(-90 113 144)" fill="#00142A" fill-opacity="0.04"/>
<rect x="113" y="144" width="27" height="6" transform="rotate(-90 113 144)" fill="#EB6666"/>
<rect x="129" y="144" width="56" height="6" transform="rotate(-90 129 144)" fill="#00142A" fill-opacity="0.04"/>
<rect x="129" y="144" width="25" height="6" transform="rotate(-90 129 144)" fill="#EB6666"/>
<rect x="145" y="144" width="56" height="6" transform="rotate(-90 145 144)" fill="#00142A" fill-opacity="0.04"/>
<rect x="145" y="144" width="32" height="6" transform="rotate(-90 145 144)" fill="#2DBD96"/>
<rect x="161" y="144" width="56" height="6" transform="rotate(-90 161 144)" fill="#00142A" fill-opacity="0.04"/>
<rect x="161" y="144" width="36" height="6" transform="rotate(-90 161 144)" fill="#2DBD96"/>
<rect x="177" y="144" width="56" height="6" transform="rotate(-90 177 144)" fill="#00142A" fill-opacity="0.04"/>
<rect x="177" y="144" width="36" height="6" transform="rotate(-90 177 144)" fill="#2DBD96"/>
<rect x="193" y="144" width="56" height="6" transform="rotate(-90 193 144)" fill="#00142A" fill-opacity="0.04"/>
<rect x="193" y="144" width="43" height="6" transform="rotate(-90 193 144)" fill="#2DBD96"/>
<rect x="209" y="144" width="56" height="6" transform="rotate(-90 209 144)" fill="#00142A" fill-opacity="0.04"/>
<rect x="209" y="144" width="47" height="6" transform="rotate(-90 209 144)" fill="#2DBD96"/>
<path d="M48.536 32C49.34 32 49.928 31.844 50.3 31.544C50.816 31.148 51.068 30.512 51.068 29.648C51.068 29.06 50.96 28.58 50.732 28.208C50.624 28.004 50.408 27.8 50.108 27.596L49.988 27.524C50.6 27.128 50.912 26.516 50.912 25.688C50.912 24.932 50.684 24.356 50.24 23.948C49.844 23.6 49.22 23.432 48.38 23.432H45.152V32H48.536ZM46.424 24.464H48.284C49.184 24.464 49.64 24.896 49.64 25.772C49.64 26.252 49.508 26.6 49.256 26.816C49.04 26.996 48.716 27.092 48.284 27.092H46.424V24.464ZM46.424 28.124H48.452C49.352 28.124 49.796 28.604 49.796 29.552C49.796 30.5 49.352 30.968 48.452 30.968H46.424V28.124ZM55.929 32V24.488H58.329V23.432H52.245V24.488H54.645V32H55.929ZM64.3108 29.744C64.1908 30.632 63.6388 31.076 62.6548 31.076C61.4188 31.076 60.9508 30.38 60.9508 28.544V26.912C60.9508 25.076 61.4188 24.38 62.6548 24.38C63.5908 24.38 64.1188 24.824 64.2268 25.712L65.4148 25.616C65.3307 24.128 64.3588 23.336 62.6188 23.336C61.5988 23.336 60.8308 23.636 60.3268 24.248C59.8468 24.812 59.6668 25.52 59.6668 26.828V28.616C59.6668 29.732 59.8468 30.548 60.1948 31.052C60.7108 31.76 61.5148 32.12 62.6188 32.12C64.4308 32.12 65.4268 31.352 65.5108 29.876L64.3108 29.744ZM67.8739 32.252L70.7299 23.18H69.5179L66.6499 32.252H67.8739ZM72.5144 28.832C72.5144 29.984 72.6224 30.5 72.9224 30.98C73.4264 31.736 74.2904 32.12 75.5264 32.12C76.6664 32.12 77.4824 31.784 77.9984 31.124C78.3944 30.632 78.5264 30.08 78.5264 28.832V23.432H77.2424V28.832C77.2424 29.492 77.1704 29.972 77.0384 30.272C76.7744 30.812 76.2704 31.076 75.5264 31.076C74.8304 31.076 74.3384 30.848 74.0624 30.38C73.8824 30.068 73.7984 29.552 73.7984 28.832V23.432H72.5144V28.832ZM80.0799 30.776C80.6319 31.676 81.6399 32.12 83.0919 32.12C85.0599 32.12 86.1039 31.256 86.1039 29.66C86.1039 28.808 85.8279 28.196 85.2879 27.824C84.8439 27.536 84.6399 27.452 83.4999 27.176C82.1079 26.828 81.6519 26.444 81.6519 25.64C81.6519 24.836 82.1919 24.356 83.1039 24.356C83.8599 24.356 84.4239 24.608 84.7839 25.124L85.7439 24.5C85.2519 23.708 84.3879 23.312 83.1399 23.312C81.4239 23.312 80.4159 24.2 80.4159 25.7C80.4159 27.056 81.0999 27.752 82.8639 28.196C83.4879 28.352 83.8599 28.448 83.9919 28.484C84.1239 28.52 84.2559 28.592 84.3999 28.7C84.7119 28.916 84.8679 29.252 84.8679 29.696C84.8679 30.572 84.2439 31.064 83.1039 31.064C82.1199 31.064 81.4359 30.764 81.0639 30.152L80.0799 30.776ZM90.5697 32C92.7417 32.036 93.8097 30.932 93.7497 28.712V26.72C93.8097 24.5 92.7417 23.396 90.5697 23.432H87.7497V32H90.5697ZM89.0337 24.464H90.3417C91.8417 24.428 92.4537 25.1 92.4657 26.828V28.604C92.4537 30.332 91.8657 31.004 90.3417 30.968H89.0337V24.464ZM98.7493 32V24.488H101.149V23.432H95.0653V24.488H97.4653V32H98.7493Z" fill="#00142A"/>
<circle cx="28" cy="28" r="12" fill="#00142A" fill-opacity="0.04"/>
<g clip-path="url(#clip0_66_3232)">
<path d="M34.7802 29.7036C33.8453 33.4536 30.0471 35.7358 26.2966 34.8007C22.5477 33.8658 20.2655 30.0674 21.2009 26.3176C22.1353 22.5672 25.9335 20.2848 29.6828 21.2197C33.433 22.1546 35.7151 25.9534 34.7801 29.7037L34.7802 29.7036H34.7802Z" fill="#F7931A"/>
<path d="M31.0871 27.0027C31.2264 26.0711 30.5172 25.5704 29.5474 25.2364L29.862 23.9745L29.0939 23.7831L28.7876 25.0117C28.5857 24.9614 28.3783 24.9139 28.1722 24.8669L28.4807 23.6301L27.713 23.4387L27.3982 24.7002C27.2311 24.6621 27.067 24.6245 26.9078 24.5849L26.9086 24.5809L25.8494 24.3164L25.645 25.1368C25.645 25.1368 26.2149 25.2675 26.2029 25.2755C26.514 25.3531 26.5702 25.559 26.5609 25.7223L26.2025 27.1598C26.2239 27.1653 26.2517 27.1731 26.2824 27.1854C26.2567 27.1791 26.2295 27.1721 26.2012 27.1654L25.6989 29.1792C25.6608 29.2737 25.5644 29.4155 25.3469 29.3616C25.3546 29.3728 24.7886 29.2223 24.7886 29.2223L24.4072 30.1016L25.4068 30.3508C25.5928 30.3974 25.775 30.4462 25.9545 30.4921L25.6366 31.7684L26.4039 31.9598L26.7186 30.697C26.9282 30.7539 27.1317 30.8064 27.3308 30.8559L27.0171 32.1127L27.7852 32.3041L28.1031 31.0302C29.4129 31.2781 30.3978 31.1781 30.8123 29.9934C31.1464 29.0395 30.7957 28.4894 30.1066 28.1306C30.6085 28.0148 30.9866 27.6847 31.0874 27.0028L31.0871 27.0026L31.0871 27.0027ZM29.3321 29.4637C29.0947 30.4175 27.4887 29.9019 26.968 29.7726L27.3898 28.0817C27.9105 28.2117 29.5802 28.4689 29.3321 29.4637H29.3321ZM29.5696 26.9889C29.3531 27.8565 28.0164 27.4157 27.5828 27.3076L27.9652 25.7741C28.3988 25.8821 29.7952 26.0839 29.5697 26.9889H29.5696Z" fill="white"/>
</g>
<path d="M171.7 26.172V28.464H172.768V26.172H175.012V25.188H172.768V22.884H171.7V25.188H169.456V26.172H171.7ZM179.536 30V21.432H178.672L176.428 22.392L176.824 23.376L178.252 22.764V30H179.536ZM187.481 30V28.944H184.205L185.729 27C186.197 26.4 186.485 26.028 186.593 25.884C186.689 25.74 186.809 25.536 186.953 25.284C187.277 24.708 187.445 24.12 187.445 23.52C187.445 22.116 186.605 21.312 185.105 21.312C183.581 21.312 182.693 22.104 182.585 23.508L183.761 23.604C183.917 22.776 184.349 22.368 185.057 22.368C185.801 22.368 186.173 22.74 186.173 23.472C186.173 24.18 185.753 25.08 184.901 26.148L182.525 29.16V30H187.481ZM190.805 30V28.644H189.521V30H190.805ZM195.943 30V21.432H195.079L192.835 22.392L193.231 23.376L194.659 22.764V30H195.943ZM203.887 30V28.944H200.611L202.135 27C202.603 26.4 202.891 26.028 202.999 25.884C203.095 25.74 203.215 25.536 203.359 25.284C203.683 24.708 203.851 24.12 203.851 23.52C203.851 22.116 203.011 21.312 201.511 21.312C199.987 21.312 199.099 22.104 198.991 23.508L200.167 23.604C200.323 22.776 200.755 22.368 201.463 22.368C202.207 22.368 202.579 22.74 202.579 23.472C202.579 24.18 202.159 25.08 201.307 26.148L198.931 29.16V30H203.887ZM205.34 24.24C205.34 25.596 205.904 26.172 207.248 26.172C208.592 26.172 209.156 25.596 209.156 24.24V23.256C209.156 21.876 208.592 21.312 207.248 21.312C205.904 21.312 205.34 21.876 205.34 23.256V24.24ZM208.124 24.12C208.124 24.972 207.836 25.392 207.248 25.392C206.66 25.392 206.372 24.972 206.372 24.12V23.376C206.372 22.524 206.66 22.092 207.248 22.092C207.836 22.092 208.124 22.524 208.124 23.376V24.12ZM211.484 28.176C211.484 29.556 212.048 30.12 213.392 30.12C214.736 30.12 215.3 29.556 215.3 28.176V27.192C215.3 25.812 214.736 25.248 213.392 25.248C212.732 25.248 212.228 25.416 211.904 25.752C211.628 26.04 211.484 26.52 211.484 27.192V28.176ZM214.268 28.056C214.268 28.908 213.98 29.34 213.392 29.34C212.804 29.34 212.516 28.908 212.516 28.056V27.312C212.516 26.46 212.804 26.028 213.392 26.028C213.98 26.028 214.268 26.46 214.268 27.312V28.056ZM209.54 30L212.24 21.432H211.1L208.4 30H209.54Z" fill="#2DBD96"/>
<path d="M24.56 57V54.42H25.92V52.7H24.56V48.7H22.62V52.7H19.3L23.64 42.72H21.38L16.88 53.12V54.42H22.62V57H24.56ZM31.4808 50.32C33.0208 50.32 34.1008 51.42 34.1008 53C34.1008 54.58 33.2608 55.46 31.8008 55.46C30.5008 55.46 29.7408 54.84 29.5408 53.6L27.5208 53.84C27.7408 56.08 29.1808 57.2 31.8608 57.2C34.7208 57.2 36.2208 55.78 36.2208 53.06C36.2208 51.28 35.6408 50.26 34.1408 49.46C35.4008 48.74 35.8608 47.9 35.8608 46.36C35.8608 43.88 34.4608 42.52 31.9008 42.52C29.4808 42.52 28.1408 43.6 27.9008 45.76L29.8008 45.92C30.0208 44.86 30.7408 44.26 31.8008 44.26C33.0208 44.26 33.7408 45.06 33.7408 46.42C33.7408 47.78 32.8008 48.64 31.3408 48.64H30.2008V50.32H31.4808ZM40.4016 60.76L41.8016 54.76H39.5416L38.5816 60.76H40.4016ZM48.1842 57L52.5842 44V42.72H44.8042V44.48H50.3442L45.9042 57H48.1842ZM56.845 49.44C55.665 50.1 55.205 51.1 55.205 52.92C55.205 55.88 56.545 57.2 59.525 57.2C62.505 57.2 63.845 55.88 63.845 52.92C63.845 51.1 63.385 50.1 62.205 49.44C63.105 48.66 63.445 47.86 63.445 46.44C63.445 43.78 62.185 42.52 59.525 42.52C56.865 42.52 55.605 43.78 55.605 46.44C55.605 47.88 55.905 48.64 56.845 49.44ZM59.545 44.16C60.845 44.16 61.425 44.86 61.425 46.44C61.425 48.06 60.865 48.74 59.525 48.74C58.185 48.74 57.625 48.06 57.625 46.44C57.625 44.82 58.185 44.16 59.545 44.16ZM59.565 50.38C61.065 50.38 61.725 51.16 61.725 52.92C61.725 54.7 61.065 55.46 59.525 55.46C57.985 55.46 57.325 54.74 57.325 52.92C57.325 51.14 57.985 50.38 59.565 50.38ZM68.1058 50.56C68.6658 49.98 69.3458 49.68 70.1658 49.68C71.6658 49.68 72.3258 50.58 72.3258 52.68C72.3258 54.52 71.5858 55.44 70.1058 55.44C68.8658 55.44 68.1458 54.82 67.9658 53.58L65.9458 53.84C66.1658 56.06 67.5458 57.18 70.0458 57.18C71.5858 57.18 72.7458 56.76 73.4858 55.9C74.1258 55.2 74.4458 54.1 74.4458 52.56C74.4458 51.1 74.1658 50 73.6258 49.3C72.9258 48.42 71.8658 47.98 70.4858 47.98C69.8658 47.98 69.2258 48.12 68.5858 48.42L68.9858 44.48H74.0058V42.72H67.2058L66.5458 50.24L68.1058 50.56ZM79.6666 57V54.74H77.5266V57H79.6666ZM86.3288 57L90.7288 44V42.72H82.9488V44.48H88.4888L84.0488 57H86.3288ZM97.1295 57L101.53 44V42.72H93.7495V44.48H99.2895L94.8495 57H97.1295Z" fill="#00142A"/>
<path d="M16.23 74.88C16.58 75.48 17.34 75.86 18.33 75.91V77.33H19.12V75.89C20.43 75.75 21.09 75.11 21.09 73.98C21.09 73.34 20.86 72.87 20.41 72.57C20.06 72.34 19.85 72.26 18.92 72.05C17.69 71.76 17.26 71.42 17.26 70.73C17.26 70.04 17.78 69.63 18.63 69.63C19.32 69.63 19.82 69.84 20.11 70.25L20.74 69.84C20.45 69.35 19.91 69.07 19.12 68.98V67.88H18.33V68.96C17.89 69 17.55 69.09 17.32 69.22C16.77 69.51 16.45 70.1 16.45 70.79C16.45 71.83 17.06 72.42 18.51 72.75C19.04 72.88 19.36 72.96 19.47 72.99C19.58 73.03 19.71 73.09 19.84 73.18C20.13 73.37 20.28 73.66 20.28 74.05C20.28 74.8 19.69 75.23 18.65 75.23C17.78 75.23 17.19 74.97 16.87 74.46L16.23 74.88ZM25.5704 76V74.69H26.2804V73.99H25.5704V71.8H24.8104V73.99H22.8504L25.0704 68.86H24.1904L21.9104 74.16V74.68H24.8104V76H25.5704ZM29.1508 72.57C30.0008 72.57 30.5908 73.16 30.5908 74.03C30.5908 74.9 30.1108 75.39 29.2808 75.39C28.5708 75.39 28.1608 75.08 28.0408 74.46L27.2508 74.56C27.3608 75.55 28.0708 76.09 29.3008 76.09C30.6908 76.09 31.4208 75.38 31.4208 74.05C31.4208 73.13 31.1008 72.59 30.3108 72.23C30.9908 71.87 31.2408 71.45 31.2408 70.66C31.2408 69.43 30.5708 68.77 29.3408 68.77C28.2108 68.77 27.5808 69.26 27.4508 70.25L28.1908 70.32C28.3108 69.79 28.7108 69.47 29.3008 69.47C29.9908 69.47 30.4108 69.92 30.4108 70.68C30.4108 71.41 29.8908 71.9 29.1008 71.9H28.5008V72.57H29.1508ZM33.4612 77.88L34.1412 75.01H33.2412L32.7712 77.88H33.4612ZM37.3437 76L39.6037 69.36V68.86H35.8437V69.56H38.7337L36.4637 76H37.3437ZM41.9241 72.69C42.2441 72.39 42.6241 72.24 43.0541 72.24C43.8841 72.24 44.2641 72.75 44.2641 73.87C44.2641 74.86 43.8241 75.39 42.9941 75.39C42.3441 75.39 41.9141 75.06 41.8041 74.46L41.0141 74.56C41.1441 75.58 41.8041 76.09 42.9741 76.09C43.7041 76.09 44.2641 75.87 44.6341 75.44C44.9441 75.11 45.0941 74.57 45.0941 73.82C45.0941 73.11 44.9641 72.59 44.7141 72.25C44.3841 71.79 43.8741 71.56 43.1841 71.56C42.8041 71.56 42.4441 71.65 42.1141 71.83L42.3541 69.56H44.8841V68.86H41.6641L41.3241 72.56L41.9241 72.69ZM47.3245 72.69C47.6445 72.39 48.0245 72.24 48.4545 72.24C49.2845 72.24 49.6645 72.75 49.6645 73.87C49.6645 74.86 49.2245 75.39 48.3945 75.39C47.7445 75.39 47.3145 75.06 47.2045 74.46L46.4145 74.56C46.5445 75.58 47.2045 76.09 48.3745 76.09C49.1045 76.09 49.6645 75.87 50.0345 75.44C50.3445 75.11 50.4945 74.57 50.4945 73.82C50.4945 73.11 50.3645 72.59 50.1145 72.25C49.7845 71.79 49.2745 71.56 48.5845 71.56C48.2045 71.56 47.8445 71.65 47.5145 71.83L47.7545 69.56H50.2845V68.86H47.0645L46.7245 72.56L47.3245 72.69ZM53.0448 76V75H52.2148V76H53.0448ZM57.3071 76V68.86H56.7371L54.9871 69.62L55.2471 70.28L56.4771 69.74V76H57.3071ZM63.9275 76V75.3H61.0875L62.5175 73.43C63.5975 72 63.8775 71.42 63.8775 70.55C63.8775 69.4 63.2175 68.77 62.0275 68.77C60.8675 68.77 60.1375 69.39 60.0275 70.47L60.7775 70.54C60.9375 69.83 61.3375 69.47 61.9775 69.47C62.6875 69.47 63.0475 69.82 63.0475 70.51C63.0475 71.15 62.6875 71.94 61.9675 72.88L59.9875 75.45V76H63.9275Z" fill="#00142A" fill-opacity="0.6"/>
<defs>
<clipPath id="clip0_66_3232">
<rect width="14" height="14" fill="white" transform="translate(21 21)"/>
</clipPath>
</defs>
</svg>
