<?xml version="1.0" encoding="UTF-8"?>
<svg width="24px" height="24px" viewBox="0 0 24 24" version="1.1" xmlns="http://www.w3.org/2000/svg" xmlns:xlink="http://www.w3.org/1999/xlink">
    <!-- Generator: Sketch 56.3 (81716) - https://sketch.com -->
    <title>Icon/arrowright</title>
    <desc>Created with Sketch.</desc>
    <g id="Icon/arrowright" stroke="none" stroke-width="1" fill="none" fill-rule="evenodd">
        <g>
            <rect id="矩形" x="0" y="0" width="24" height="24"></rect>
            <path d="M18.7928932,12 L15.6464466,8.85355339 C15.4511845,8.65829124 15.4511845,8.34170876 15.6464466,8.14644661 C15.8417088,7.95118446 16.1582912,7.95118446 16.3535534,8.14644661 L20,11.7928932 C20.3905243,12.1834175 20.3905243,12.8165825 20,13.2071068 L16.3535534,16.8535534 C16.1582912,17.0488155 15.8417088,17.0488155 15.6464466,16.8535534 C15.4511845,16.6582912 15.4511845,16.3417088 15.6464466,16.1464466 L18.7928932,13 L4.5,13 C4.22385763,13 4,12.7761424 4,12.5 C4,12.2238576 4.22385763,12 4.5,12 L18.7928932,12 Z" id="形状结合" fill="#24AE8F"></path>
        </g>
    </g>
</svg>