<?xml version="1.0" encoding="UTF-8"?>
<svg width="1025px" height="957px" viewBox="0 0 1025 957" version="1.1" xmlns="http://www.w3.org/2000/svg" xmlns:xlink="http://www.w3.org/1999/xlink">
    <!-- Generator: Sketch 52.2 (67145) - http://www.bohemiancoding.com/sketch -->
    <title>Group 2</title>
    <desc>Created with Sketch.</desc>
    <defs>
        <radialGradient cx="52.758276%" cy="45.2312396%" fx="52.758276%" fy="45.2312396%" r="48.2816039%" gradientTransform="translate(0.527583,0.452312),scale(1.000000,0.999866),rotate(90.000000),scale(1.000000,1.025441),translate(-0.527583,-0.452312)" id="radialGradient-1">
            <stop stop-color="#FFFFFF" stop-opacity="0.374377264" offset="0%"></stop>
            <stop stop-color="#E8EAEE" stop-opacity="0" offset="100%"></stop>
        </radialGradient>
        <path d="M809.891877,864.461684 L606.662379,747.112973 L809.891877,629.762213 L1013.12138,747.112973 L809.891877,864.461684 Z M604.614107,982.994453 L401.386657,865.643693 L604.614107,748.292934 L807.843605,865.643693 L604.614107,982.994453 Z M196.108887,747.112973 L399.338386,629.762213 L602.567884,747.112973 L399.338386,864.461684 L196.108887,747.112973 Z M196.110936,510.047436 L399.338386,392.698725 L602.565836,510.047436 L399.338386,627.396147 L196.110936,510.047436 Z M196.108887,272.983947 L399.338386,155.633187 L602.565836,272.983947 L399.338386,390.334706 L196.108887,272.983947 Z M604.614107,37.102467 L807.843605,154.451178 L604.614107,271.799889 L401.386657,154.451178 L604.614107,37.102467 Z M809.891877,155.633187 L1013.12138,272.983947 L809.891877,390.332658 L606.662379,272.983947 L809.891877,155.633187 Z M401.386657,391.516715 L604.614107,274.165956 L807.843605,391.514667 L604.614107,508.865427 L401.386657,391.516715 Z M807.843605,628.580204 L604.614107,745.930964 L401.386657,628.580204 L604.614107,511.229445 L807.843605,628.580204 Z M1013.12138,510.047436 L809.891877,627.396147 L606.66033,510.047436 L809.891877,392.696676 L1013.12138,510.047436 Z M1024.13698,980.179755 L1024.13698,977.815737 L1015.1676,982.992404 L811.9381,865.643693 L1015.1676,748.294982 L1024.13698,753.471649 L1024.13698,751.107631 L1017.21587,747.112973 L1024.13698,743.116267 L1024.13698,740.7502 L1015.1676,745.930964 L811.9381,628.580204 L1015.1676,511.229445 L1024.13698,516.40816 L1024.13698,514.042094 L1017.21587,510.047436 L1024.13698,506.050729 L1024.13698,503.686711 L1015.1676,508.865427 L811.9381,391.514667 L1015.1676,274.165956 L1024.13698,279.342623 L1024.13698,276.978605 L1017.21587,272.983947 L1024.13698,268.985192 L1024.13698,266.623222 L1015.1676,271.799889 L811.940148,154.451178 L1015.16965,37.1004184 L1024.13698,42.2770855 L1024.13698,39.9151159 L1017.21587,35.9184094 L1024.13698,31.9237514 L1024.13698,29.5576848 L1015.16965,34.7364003 L956.509199,0.86374938 L952.414705,0.86374938 L1013.12138,35.9184094 L809.891877,153.269169 L606.662379,35.9184094 L667.371098,0.86374938 L663.274555,0.86374938 L604.614107,34.7364003 L545.955708,0.86374938 L541.861213,0.86374938 L602.565836,35.9184094 L399.338386,153.269169 L196.108887,35.9184094 L256.815558,0.86374938 L252.719015,0.86374938 L194.060616,34.7364003 L135.402217,0.86374938 L131.305674,0.86374938 L192.014393,35.9184094 L0.0012289629,146.791678 L0.0012289629,149.155696 L194.060616,37.1004184 L397.292162,154.451178 L194.062664,271.799889 L0.0012289629,159.744612 L0.0012289629,162.10863 L192.014393,272.983947 L0.0012289629,383.857215 L0.0012289629,386.223282 L194.062664,274.165956 L397.292162,391.514667 L194.062664,508.865427 L0.0012289629,396.808101 L0.0012289629,399.172119 L192.014393,510.047436 L0.0012289629,620.920704 L0.0012289629,623.28677 L194.062664,511.229445 L397.292162,628.580204 L194.062664,745.930964 L0.0012289629,633.873638 L0.0012289629,636.237656 L192.014393,747.112973 L0.0012289629,857.986241 L0.0012289629,860.350259 L194.062664,748.292934 L397.292162,865.643693 L194.062664,982.994453 L0.0012289629,870.937127 L0.0012289629,873.301145 L192.014393,984.176462 L121.078654,1025.13707 L125.173149,1025.13707 L194.060616,985.360519 L262.948083,1025.13707 L267.044626,1025.13707 L196.108887,984.174413 L399.338386,866.825702 L602.567884,984.174413 L531.632145,1025.13707 L535.72664,1025.13707 L604.614107,985.358471 L673.501574,1025.13707 L677.596069,1025.13707 L606.662379,984.174413 L809.891877,866.825702 L1013.12138,984.174413 L942.185637,1025.13707 L946.28218,1025.13707 L1015.16965,985.358471 L1024.13698,990.535138 L1024.13698,988.173168 L1017.21587,984.174413 L1024.13698,980.179755 Z" id="path-2"></path>
        <filter x="-90.9%" y="-90.9%" width="281.8%" height="281.8%" filterUnits="objectBoundingBox" id="filter-4">
            <feGaussianBlur stdDeviation="50" in="SourceGraphic"></feGaussianBlur>
        </filter>
        <filter x="-90.9%" y="-90.9%" width="281.8%" height="281.8%" filterUnits="objectBoundingBox" id="filter-5">
            <feGaussianBlur stdDeviation="50" in="SourceGraphic"></feGaussianBlur>
        </filter>
        <filter x="-90.9%" y="-90.9%" width="281.8%" height="281.8%" filterUnits="objectBoundingBox" id="filter-6">
            <feGaussianBlur stdDeviation="50" in="SourceGraphic"></feGaussianBlur>
        </filter>
        <path d="M634,362.668662 C634,365.0608 630.320876,367 625.783083,367 C621.245291,367 617.566166,365.0608 617.566166,362.668662 C617.566166,360.276525 621.245291,358.339286 625.783083,358.339286 C630.320876,358.339286 634,360.276525 634,362.668662" id="path-7"></path>
        <filter x="-155.2%" y="-294.4%" width="410.3%" height="688.9%" filterUnits="objectBoundingBox" id="filter-8">
            <feOffset dx="0" dy="0" in="SourceAlpha" result="shadowOffsetOuter1"></feOffset>
            <feGaussianBlur stdDeviation="8.5" in="shadowOffsetOuter1" result="shadowBlurOuter1"></feGaussianBlur>
            <feColorMatrix values="0 0 0 0 0.996078431   0 0 0 0 0.956862745   0 0 0 0 0.874509804  0 0 0 1 0" type="matrix" in="shadowBlurOuter1"></feColorMatrix>
        </filter>
        <path d="M16.4338336,243.150805 C16.4338336,245.542943 12.7547091,247.482143 8.21691678,247.482143 C3.67912449,247.482143 0,245.542943 0,243.150805 C0,240.758668 3.67912449,238.821429 8.21691678,238.821429 C12.7547091,238.821429 16.4338336,240.758668 16.4338336,243.150805" id="path-9"></path>
        <filter x="-155.2%" y="-294.4%" width="410.3%" height="688.9%" filterUnits="objectBoundingBox" id="filter-10">
            <feOffset dx="0" dy="0" in="SourceAlpha" result="shadowOffsetOuter1"></feOffset>
            <feGaussianBlur stdDeviation="8.5" in="shadowOffsetOuter1" result="shadowBlurOuter1"></feGaussianBlur>
            <feColorMatrix values="0 0 0 0 0.996078431   0 0 0 0 0.956862745   0 0 0 0 0.874509804  0 0 0 1 0" type="matrix" in="shadowBlurOuter1"></feColorMatrix>
        </filter>
        <path d="M429.433834,4.33035714 C429.433834,6.72303636 425.754709,8.66071429 421.216917,8.66071429 C416.679124,8.66071429 413,6.72303636 413,4.33035714 C413,1.93767792 416.679124,0 421.216917,0 C425.754709,0 429.433834,1.93767792 429.433834,4.33035714" id="path-11"></path>
        <filter x="-155.2%" y="-294.4%" width="410.3%" height="688.9%" filterUnits="objectBoundingBox" id="filter-12">
            <feOffset dx="0" dy="0" in="SourceAlpha" result="shadowOffsetOuter1"></feOffset>
            <feGaussianBlur stdDeviation="8.5" in="shadowOffsetOuter1" result="shadowBlurOuter1"></feGaussianBlur>
            <feColorMatrix values="0 0 0 0 0.996078431   0 0 0 0 0.956862745   0 0 0 0 0.874509804  0 0 0 1 0" type="matrix" in="shadowBlurOuter1"></feColorMatrix>
        </filter>
        <filter x="0.0%" y="0.0%" width="100.0%" height="100.0%" filterUnits="objectBoundingBox" id="filter-13">
            <feGaussianBlur stdDeviation="0" in="SourceGraphic"></feGaussianBlur>
        </filter>
        <path d="M0.84,6.269 C20.202,8.445 7.586,36.664 30.32,53.13 C57.013,72.464 86.321,38.074 88.028,31.838 C89.312,24.062 82.562,26.594 80.727,29.067 C79.822,30.289 76.391,37.054 67.626,37.766 C50.508,39.155 50.965,28.383 42.627,15.984 C36.547,6.943 26.82,0.922 16.655,0.922 C11.351,0.922 5.926,2.562 0.84,6.269" id="path-14"></path>
        <path d="M0.84,6.269 C20.202,8.445 7.586,36.664 30.32,53.13 C57.013,72.464 86.321,38.074 88.028,31.838 C89.312,24.062 82.562,26.594 80.727,29.067 C79.822,30.289 76.391,37.054 67.626,37.766 C50.508,39.155 50.965,28.383 42.627,15.984 C36.547,6.943 26.82,0.922 16.655,0.922 C11.351,0.922 5.926,2.562 0.84,6.269" id="path-16"></path>
        <path d="M0.84,6.269 C20.202,8.445 7.586,36.664 30.32,53.13 C57.013,72.464 86.321,38.074 88.028,31.838 C89.312,24.062 82.562,26.594 80.727,29.067 C79.822,30.289 76.391,37.054 67.626,37.766 C50.508,39.155 50.965,28.383 42.627,15.984 C36.547,6.943 26.82,0.922 16.655,0.922 C11.351,0.922 5.926,2.562 0.84,6.269" id="path-18"></path>
        <path d="M0.84,6.269 C20.202,8.445 7.586,36.664 30.32,53.13 C57.013,72.464 86.321,38.074 88.028,31.838 C89.312,24.062 82.562,26.594 80.727,29.067 C79.822,30.289 76.391,37.054 67.626,37.766 C50.508,39.155 50.965,28.383 42.627,15.984 C36.547,6.943 26.82,0.922 16.655,0.922 C11.351,0.922 5.926,2.562 0.84,6.269" id="path-20"></path>
        <path d="M0.84,6.269 C20.202,8.445 7.586,36.664 30.32,53.13 C57.013,72.464 86.321,38.074 88.028,31.838 C89.312,24.062 82.562,26.594 80.727,29.067 C79.822,30.289 76.391,37.054 67.626,37.766 C50.508,39.155 50.965,28.383 42.627,15.984 C36.547,6.943 26.82,0.922 16.655,0.922 C11.351,0.922 5.926,2.562 0.84,6.269" id="path-22"></path>
        <path d="M0.84,6.269 C20.202,8.445 7.586,36.664 30.32,53.13 C57.013,72.464 86.321,38.074 88.028,31.838 C89.312,24.062 82.562,26.594 80.727,29.067 C79.822,30.289 76.391,37.054 67.626,37.766 C50.508,39.155 50.965,28.383 42.627,15.984 C36.547,6.943 26.82,0.922 16.655,0.922 C11.351,0.922 5.926,2.562 0.84,6.269" id="path-24"></path>
        <path d="M0.84,6.269 C20.202,8.445 7.586,36.664 30.32,53.13 C57.013,72.464 86.321,38.074 88.028,31.838 C89.312,24.062 82.562,26.594 80.727,29.067 C79.822,30.289 76.391,37.054 67.626,37.766 C50.508,39.155 50.965,28.383 42.627,15.984 C36.547,6.943 26.82,0.922 16.655,0.922 C11.351,0.922 5.926,2.562 0.84,6.269" id="path-26"></path>
        <path d="M0.953,13.269 C8.786,10.907 23.325,13.522 27.692,20.904 C29.114,12.589 17.048,1.524 11.13,0.132 L0.953,13.269 Z" id="path-28"></path>
        <path d="M0.953,13.269 C8.786,10.907 23.325,13.522 27.692,20.904 C29.114,12.589 17.048,1.524 11.13,0.132 L0.953,13.269 Z" id="path-30"></path>
        <polygon id="path-32" points="0.4358 0.6576 28.303425 0.6576 28.303425 17 0.4358 17"></polygon>
        <path d="M0.435,8.292 C7.561,14.023 23.726,16.969 27.511,17 L27.62,17 C27.975,16.997 28.204,16.965 28.283,16.904 C28.84,16.47 17.922,4.235 14.291,0.658 L0.435,8.292 Z" id="path-34"></path>
        <path d="M0.871,30.092 C-1.328,48.344 12.174,65.074 30.928,67.333 C49.681,69.591 66.769,56.547 68.969,38.294 C71.167,20.041 57.666,3.312 38.912,1.052 C37.492,0.881 36.082,0.798 34.688,0.798 C17.656,0.798 2.903,13.22 0.871,30.092 Z" id="path-36"></path>
        <path d="M0.871,30.092 C-1.328,48.344 12.174,65.074 30.928,67.333 C49.681,69.591 66.769,56.547 68.969,38.294 C71.167,20.041 57.666,3.312 38.912,1.052 C37.492,0.881 36.082,0.798 34.688,0.798 C17.656,0.798 2.903,13.22 0.871,30.092" id="path-38"></path>
        <path d="M0.624,19.552 C-0.818,31.525 6.706,42.336 17.375,43.621 C28.044,44.907 37.919,36.191 39.362,24.219 C40.805,12.247 33.28,1.436 22.611,0.151 C21.911,0.067 21.212,0.025 20.521,0.025 C10.681,0.025 1.971,8.368 0.624,19.552" id="path-40"></path>
        <path d="M0.624,19.552 C-0.818,31.525 6.706,42.336 17.375,43.621 C28.044,44.907 37.919,36.191 39.362,24.219 C40.805,12.247 33.28,1.436 22.611,0.151 C21.911,0.067 21.212,0.025 20.521,0.025 C10.681,0.025 1.971,8.368 0.624,19.552" id="path-42"></path>
        <path d="M5.836,39.982 C2.297,45.174 1.787,47.993 1.062,54.011 C-0.712,68.733 9.664,82.253 24.23,84.446 C32.438,85.672 41.316,91.13 41.976,99.572 C45.882,100.043 48.912,100.408 52.819,100.879 C55.465,92.834 65.385,89.645 73.648,90.398 C88.318,91.735 101.609,81.059 103.382,66.336 C104.106,60.319 104.28,57.459 102.076,51.575 C107.865,41.909 112.637,20.85 108.696,12.389 C96.267,12.06 81.746,21.393 73.84,33.167 L37.637,28.805 C32.751,15.49 20.862,2.977 8.711,0.346 C2.873,7.628 2.508,29.218 5.836,39.982 Z" id="path-44"></path>
        <path d="M5.836,39.982 C2.297,45.174 1.787,47.993 1.062,54.011 C-0.712,68.733 9.664,82.253 24.23,84.446 C32.438,85.672 41.316,91.13 41.976,99.572 C45.882,100.043 48.912,100.408 52.819,100.879 C55.465,92.834 65.385,89.645 73.648,90.398 C88.318,91.735 101.609,81.059 103.382,66.336 C104.106,60.319 104.28,57.459 102.076,51.575 C107.865,41.909 112.637,20.85 108.696,12.389 C96.267,12.06 81.746,21.393 73.84,33.167 L37.637,28.805 C32.751,15.49 20.862,2.977 8.711,0.346 C2.873,7.628 2.508,29.218 5.836,39.982 Z" id="path-46"></path>
        <path d="M5.433,0.707 C5.397,0.757 5.362,0.809 5.325,0.86 C5.272,0.937 5.218,1.012 5.166,1.089 C5.127,1.146 5.09,1.207 5.052,1.266 C5.001,1.343 4.951,1.42 4.902,1.499 C4.864,1.562 4.827,1.626 4.789,1.689 C4.743,1.766 4.698,1.842 4.653,1.921 C4.614,1.989 4.576,2.059 4.538,2.129 C4.494,2.209 4.449,2.289 4.406,2.37 C4.369,2.442 4.332,2.515 4.296,2.587 C4.253,2.668 4.213,2.75 4.172,2.833 C4.136,2.907 4.1,2.982 4.064,3.057 C4.023,3.144 3.984,3.231 3.943,3.319 L3.837,3.558 C3.8,3.642 3.762,3.729 3.725,3.815 L3.62,4.07 C3.585,4.155 3.551,4.243 3.516,4.33 L3.41,4.603 L3.315,4.856 C3.28,4.952 3.245,5.048 3.21,5.145 C3.18,5.234 3.148,5.324 3.118,5.414 L3.021,5.699 C2.991,5.79 2.962,5.885 2.931,5.978 C2.9,6.077 2.868,6.175 2.838,6.275 C2.809,6.365 2.783,6.456 2.756,6.547 C2.723,6.653 2.692,6.758 2.661,6.866 C2.635,6.955 2.61,7.046 2.585,7.137 C2.554,7.245 2.525,7.352 2.495,7.462 C2.468,7.565 2.441,7.671 2.414,7.774 L2.337,8.071 C2.312,8.173 2.287,8.276 2.263,8.379 C2.148,8.856 2.038,9.344 1.935,9.841 L1.91,9.964 L1.842,10.313 C1.82,10.422 1.798,10.53 1.779,10.639 L1.717,10.976 L1.661,11.296 C1.638,11.426 1.616,11.559 1.595,11.691 L1.549,11.966 C1.527,12.105 1.505,12.245 1.483,12.386 L1.443,12.655 C1.424,12.787 1.404,12.921 1.385,13.054 L1.345,13.349 C1.325,13.491 1.308,13.633 1.289,13.776 L1.256,14.036 L1.204,14.469 L1.171,14.761 L1.128,15.16 L1.094,15.483 L1.052,15.908 L1.03,16.151 L0.987,16.639 L0.968,16.874 L0.931,17.36 L0.915,17.579 L0.879,18.111 L0.871,18.254 C0.86,18.445 0.847,18.637 0.838,18.83 L0.831,18.966 C0.711,21.305 0.696,23.681 0.783,26.008 L0.787,26.097 C0.795,26.315 0.805,26.533 0.815,26.75 L0.816,26.796 C0.827,27.017 0.838,27.237 0.851,27.456 L0.853,27.513 C0.893,28.209 0.941,28.899 0.998,29.579 L0.999,29.593 C1.329,33.505 1.952,37.126 2.836,39.982 L2.835,39.982 C3.034,40.625 3.245,41.232 3.47,41.792 L36.702,37.043 C36.348,34.315 35.639,31.541 34.635,28.801 C34.591,28.681 34.545,28.562 34.499,28.443 L34.376,28.119 C34.33,27.996 34.281,27.874 34.233,27.751 C34.189,27.642 34.145,27.531 34.1,27.421 L33.957,27.071 L33.816,26.735 C33.766,26.617 33.716,26.498 33.665,26.379 L33.521,26.052 C33.454,25.901 33.387,25.75 33.318,25.6 C33.237,25.422 33.156,25.245 33.073,25.068 L32.929,24.768 C32.87,24.643 32.81,24.517 32.747,24.392 C32.693,24.278 32.637,24.165 32.58,24.051 L32.421,23.734 L32.235,23.372 L32.07,23.057 C32.009,22.94 31.947,22.823 31.884,22.706 C31.816,22.577 31.746,22.45 31.676,22.322 L31.532,22.06 C31.415,21.85 31.299,21.642 31.18,21.435 L31.001,21.127 L30.791,20.77 L30.609,20.467 C30.539,20.35 30.467,20.232 30.394,20.115 L30.205,19.807 L29.982,19.453 L29.801,19.168 C29.71,19.027 29.619,18.888 29.527,18.749 L29.28,18.376 C29.178,18.224 29.076,18.072 28.972,17.92 L28.799,17.671 C28.711,17.542 28.621,17.412 28.531,17.284 L28.342,17.018 L28.08,16.656 L27.887,16.393 C27.794,16.266 27.699,16.141 27.605,16.014 L27.427,15.777 C27.275,15.577 27.122,15.379 26.969,15.182 L26.966,15.177 L26.947,15.155 C26.801,14.969 26.655,14.784 26.507,14.601 C26.435,14.512 26.363,14.423 26.291,14.336 C26.199,14.223 26.107,14.111 26.015,14 L25.805,13.749 L25.511,13.402 L25.305,13.162 C25.204,13.045 25.102,12.93 25.001,12.815 L24.799,12.585 C24.635,12.401 24.469,12.218 24.303,12.037 L24.202,11.928 C24.066,11.782 23.929,11.636 23.792,11.49 L23.584,11.272 C23.473,11.157 23.363,11.043 23.253,10.93 L23.052,10.725 C22.942,10.615 22.833,10.505 22.722,10.395 L22.499,10.174 C22.38,10.057 22.262,9.943 22.144,9.829 L21.966,9.659 C21.787,9.487 21.605,9.318 21.423,9.148 L21.322,9.057 C21.171,8.918 21.019,8.779 20.865,8.643 L20.681,8.481 C20.555,8.37 20.43,8.259 20.304,8.151 L20.094,7.97 C19.969,7.863 19.844,7.758 19.718,7.653 L19.521,7.489 C19.381,7.373 19.239,7.258 19.096,7.143 L18.946,7.022 C18.757,6.87 18.567,6.72 18.375,6.574 L18.222,6.457 C18.077,6.346 17.93,6.235 17.783,6.125 L17.589,5.983 C17.456,5.886 17.324,5.79 17.191,5.694 L16.97,5.537 C16.845,5.449 16.72,5.362 16.595,5.277 L16.37,5.121 C16.216,5.017 16.062,4.915 15.909,4.813 L15.776,4.726 C15.577,4.595 15.377,4.467 15.177,4.342 L15.017,4.243 C14.868,4.152 14.72,4.061 14.57,3.971 L14.349,3.839 C14.217,3.762 14.085,3.685 13.953,3.609 L13.726,3.481 C13.588,3.403 13.451,3.327 13.312,3.252 L13.111,3.142 C12.935,3.047 12.758,2.956 12.583,2.865 L12.493,2.818 C12.285,2.712 12.078,2.609 11.869,2.508 L11.711,2.433 C11.555,2.359 11.4,2.286 11.244,2.215 L11.031,2.119 C10.894,2.057 10.755,1.996 10.617,1.937 L10.383,1.838 C10.239,1.777 10.095,1.719 9.952,1.661 L9.76,1.583 C9.566,1.507 9.373,1.434 9.179,1.363 L9.126,1.342 C8.916,1.265 8.708,1.192 8.498,1.121 L8.294,1.054 C8.15,1.006 8.006,0.96 7.863,0.915 C7.783,0.89 7.704,0.866 7.625,0.842 C7.493,0.803 7.362,0.765 7.231,0.727 L6.972,0.655 C6.832,0.616 6.692,0.58 6.55,0.544 L6.349,0.493 C6.136,0.44 5.924,0.391 5.711,0.346 C5.617,0.462 5.524,0.583 5.433,0.707 Z" id="path-48"></path>
        <path d="M39.07,0.141 L38.862,0.143 C38.717,0.145 38.571,0.146 38.425,0.15 L38.158,0.16 C38.021,0.164 37.884,0.171 37.748,0.178 C37.665,0.182 37.583,0.186 37.5,0.191 C37.35,0.201 37.198,0.212 37.046,0.224 L36.833,0.241 C36.613,0.26 36.392,0.281 36.171,0.306 L36.114,0.314 C35.909,0.336 35.704,0.362 35.498,0.39 L35.291,0.42 C35.139,0.441 34.986,0.465 34.832,0.489 L34.58,0.53 C34.434,0.555 34.284,0.581 34.136,0.609 L33.906,0.651 C33.738,0.684 33.569,0.717 33.401,0.752 L33.23,0.787 C33.003,0.837 32.776,0.887 32.549,0.94 L32.451,0.964 C32.258,1.01 32.065,1.058 31.871,1.108 L31.65,1.167 C31.498,1.207 31.346,1.249 31.194,1.291 L30.944,1.363 C30.797,1.405 30.65,1.448 30.503,1.492 L30.258,1.566 C30.091,1.619 29.926,1.672 29.759,1.726 L29.581,1.783 C29.356,1.858 29.132,1.935 28.907,2.014 L28.757,2.067 C28.584,2.129 28.41,2.192 28.236,2.257 L27.98,2.354 C27.839,2.408 27.697,2.462 27.555,2.518 L27.302,2.619 C27.151,2.68 26.999,2.742 26.848,2.804 L26.625,2.897 C26.457,2.968 26.288,3.041 26.119,3.115 L25.943,3.191 C25.723,3.289 25.503,3.389 25.283,3.491 L25.107,3.574 C24.942,3.65 24.777,3.729 24.612,3.808 L24.383,3.921 C24.235,3.993 24.088,4.067 23.942,4.141 L23.695,4.266 C23.546,4.342 23.398,4.419 23.25,4.496 L23.034,4.61 C22.853,4.707 22.672,4.805 22.491,4.905 L22.371,4.969 C22.154,5.09 21.937,5.212 21.722,5.336 L21.51,5.459 C21.367,5.542 21.225,5.625 21.084,5.709 L20.813,5.871 C20.681,5.951 20.548,6.032 20.414,6.114 L20.171,6.264 C20.036,6.348 19.902,6.434 19.768,6.519 L19.514,6.681 C19.346,6.789 19.18,6.899 19.012,7.01 L18.887,7.092 C18.684,7.227 18.48,7.366 18.277,7.506 L18.025,7.681 C17.899,7.769 17.773,7.857 17.647,7.947 L17.391,8.13 L17.022,8.397 L16.759,8.591 C16.643,8.677 16.527,8.765 16.411,8.852 C16.32,8.92 16.229,8.989 16.139,9.058 C15.951,9.201 15.764,9.346 15.579,9.492 L15.555,9.51 L15.552,9.514 C15.356,9.667 15.16,9.824 14.966,9.982 L14.736,10.171 C14.614,10.27 14.492,10.37 14.372,10.471 L14.122,10.682 L13.782,10.971 L13.535,11.185 C13.417,11.287 13.3,11.392 13.182,11.495 L12.955,11.697 C12.818,11.819 12.683,11.943 12.548,12.068 L12.219,12.37 C12.098,12.483 11.975,12.598 11.855,12.712 L11.61,12.947 L11.309,13.238 L11.053,13.491 C10.954,13.588 10.857,13.685 10.759,13.782 L10.512,14.034 L10.223,14.331 L9.976,14.588 C9.812,14.76 9.648,14.934 9.486,15.11 L9.283,15.331 C9.185,15.439 9.087,15.546 8.989,15.654 C8.901,15.753 8.814,15.852 8.725,15.951 L8.49,16.218 L8.226,16.525 L7.995,16.796 C7.913,16.893 7.831,16.99 7.751,17.087 C7.661,17.194 7.573,17.301 7.485,17.409 L7.275,17.667 C7.152,17.819 7.031,17.972 6.91,18.125 C6.807,18.254 6.707,18.386 6.606,18.516 L6.389,18.8 C6.311,18.902 6.233,19.006 6.156,19.109 L5.94,19.402 L5.717,19.709 C5.647,19.805 5.579,19.901 5.51,19.999 C5.434,20.106 5.358,20.213 5.283,20.32 L5.088,20.605 C5.016,20.71 4.943,20.817 4.871,20.922 C3.244,23.345 1.896,25.871 0.905,28.438 L32.06,40.942 C32.411,40.451 32.76,39.913 33.105,39.335 C34.642,36.769 36.106,33.4 37.356,29.678 L37.36,29.666 C37.577,29.018 37.788,28.359 37.991,27.693 L38.009,27.639 C38.072,27.428 38.135,27.217 38.198,27.005 L38.211,26.961 C38.272,26.752 38.333,26.543 38.392,26.335 L38.417,26.248 C39.053,24.008 39.605,21.696 40.043,19.396 L40.069,19.261 C40.105,19.072 40.14,18.883 40.174,18.694 L40.199,18.555 L40.291,18.028 L40.328,17.811 L40.407,17.331 L40.444,17.099 L40.519,16.615 L40.554,16.373 L40.615,15.949 L40.659,15.628 L40.711,15.23 L40.749,14.94 L40.8,14.507 L40.831,14.246 C40.847,14.103 40.863,13.96 40.878,13.816 L40.908,13.522 C40.922,13.388 40.935,13.253 40.947,13.12 L40.971,12.85 C40.984,12.708 40.997,12.566 41.007,12.425 L41.029,12.148 C41.04,12.015 41.05,11.88 41.059,11.747 L41.078,11.424 L41.099,11.082 C41.106,10.971 41.111,10.861 41.116,10.751 L41.132,10.395 L41.136,10.27 C41.155,9.763 41.166,9.263 41.167,8.772 C41.167,8.667 41.168,8.559 41.167,8.455 L41.163,8.149 C41.162,8.041 41.161,7.932 41.158,7.826 C41.156,7.713 41.152,7.601 41.148,7.488 C41.145,7.394 41.142,7.3 41.139,7.208 C41.133,7.095 41.129,6.985 41.123,6.875 C41.118,6.78 41.115,6.685 41.108,6.591 C41.101,6.487 41.095,6.383 41.087,6.281 C41.081,6.183 41.074,6.085 41.066,5.987 L41.04,5.689 C41.031,5.594 41.024,5.499 41.014,5.405 C41.003,5.302 40.992,5.201 40.98,5.1 L40.949,4.831 L40.911,4.541 C40.898,4.447 40.886,4.356 40.871,4.264 L40.829,3.992 C40.814,3.898 40.799,3.806 40.782,3.714 L40.736,3.457 C40.718,3.362 40.699,3.268 40.68,3.175 C40.664,3.093 40.646,3.012 40.628,2.932 C40.61,2.841 40.589,2.752 40.567,2.663 C40.548,2.584 40.53,2.504 40.511,2.427 C40.488,2.337 40.465,2.249 40.441,2.161 C40.42,2.084 40.4,2.007 40.377,1.93 C40.353,1.844 40.327,1.759 40.302,1.674 C40.28,1.603 40.259,1.531 40.236,1.462 C40.206,1.373 40.177,1.287 40.146,1.2 C40.124,1.134 40.101,1.066 40.077,1.001 C40.044,0.912 40.01,0.828 39.976,0.741 C39.953,0.683 39.931,0.623 39.908,0.567 C39.849,0.424 39.789,0.285 39.724,0.149 C39.535,0.143 39.344,0.141 39.152,0.141 C39.125,0.141 39.097,0.141 39.07,0.141 Z" id="path-50"></path>
        <path d="M1.426,20.221 L17.195,17.968 C16.212,10.382 9.44,2.06 2.488,0.555 C-0.447,4.217 -0.467,15.503 1.426,20.221 Z" id="path-52"></path>
        <path d="M5.852,12.761 L5.77,12.882 C3.722,15.927 2.26,19.42 1.571,23.214 C1.398,24.285 1.25,25.451 1.09,26.77 C0.687,30.125 0.916,33.417 1.68,36.527 C10.909,14.986 35.791,15.816 48.98,32.538 C50.564,34.546 53.505,34.902 55.521,33.328 C72.305,20.215 96.673,25.317 100.523,48.433 C102.003,45.594 103.006,42.45 103.411,39.096 C103.569,37.776 103.702,36.608 103.789,35.527 C104.02,31.675 103.429,27.933 102.161,24.487 L102.116,24.363 C98.631,15.035 90.182,7.891 79.664,6.625 L73.868,5.926 L37.665,1.565 L31.87,0.867 C30.768,0.735 29.673,0.67 28.589,0.67 C19.326,0.67 10.865,5.393 5.852,12.761" id="path-54"></path>
        <path d="M212.290927,164.146003 L177.348066,143.971823 L212.390055,123.608287 L247.441989,103.238122 L282.483978,82.8729282 L317.162766,102.894646 L351.614917,82.8729282 L386.887293,103.236464 L422.156354,123.6 L387.114365,143.963536 L351.843646,123.6 L317.178099,103.584919 L282.722652,123.608287 L247.672376,143.976796 L212.72951,164.284382 L247.660773,184.451934 L282.931492,204.81547 L247.889503,225.179006 L212.618785,204.81547 L177.348066,184.451934 L212.290927,164.146003 Z M423.841989,164.569061 L388.8,184.934254 L353.749724,205.302762 L318.707735,225.667956 L283.425414,205.29779 L318.467403,184.934254 L353.519337,164.564088 L388.561326,144.198895 L423.841989,164.569061 Z M458.403315,224.230939 L493.445304,203.867403 L528.725967,224.237569 L563.769613,203.874033 L599.038674,224.237569 L563.996685,244.599448 L528.954696,264.964641 L493.902762,285.334807 L529.175138,305.698343 L494.133149,326.063536 L458.862431,305.698343 L423.820442,326.063536 L388.549724,305.7 L423.591713,285.336464 L388.31105,264.964641 L353.038674,244.601105 L388.08232,224.239227 L423.132597,203.867403 L458.403315,224.230939 L423.351381,244.601105 L458.633702,264.971271 L493.685635,244.601105 L458.403315,224.230939 Z M210.719337,3.12638804e-13 L246,20.3685083 L210.958011,40.7320442 L175.91768,61.0972376 L140.864088,81.4674033 L176.134807,101.832597 L141.094475,122.194475 L105.823757,101.832597 L70.781768,122.194475 L35.4994475,101.825967 L70.539779,81.4607735 L35.2723757,61.0972376 L1.27897692e-13,40.7337017 L35.041989,20.3701657 L70.0939227,3.12638804e-13 L105.362983,20.3635359 L70.3127072,40.7337017 L105.583425,61.0972376 L140.633702,40.7287293 L105.362983,20.3635359 L140.40663,3.12638804e-13 L175.675691,20.3635359 L210.719337,3.12638804e-13 Z" id="path-56"></path>
        <linearGradient x1="50%" y1="0%" x2="50%" y2="100%" id="linearGradient-58">
            <stop stop-color="#00054A" offset="0%"></stop>
            <stop stop-color="#00043D" offset="100%"></stop>
        </linearGradient>
        <linearGradient x1="50%" y1="-24.156104%" x2="50%" y2="100%" id="linearGradient-59">
            <stop stop-color="#0D1472" offset="0%"></stop>
            <stop stop-color="#00054A" offset="100%"></stop>
        </linearGradient>
    </defs>
    <g id="Page-1" stroke="none" stroke-width="1" fill="none" fill-rule="evenodd">
        <g id="404" transform="translate(-456.000000, -76.000000)">
            <g id="Group-2" transform="translate(456.000000, 76.000000)">
                <g id="网格" style="mix-blend-mode: lighten;">
                    <g id="Group-3">
                        <mask id="mask-3" fill="white">
                            <use xlink:href="#path-2"></use>
                        </mask>
                        <use id="Fill-1" fill="url(#radialGradient-1)" opacity="0.100000001" xlink:href="#path-2"></use>
                        <circle id="Oval" fill="#FFFFFF" opacity="0.300000012" filter="url(#filter-4)" mask="url(#mask-3)" cx="183.5" cy="513.5" r="82.5"></circle>
                        <circle id="Oval-Copy-2" fill="#FFFFFF" opacity="0.300000012" filter="url(#filter-5)" mask="url(#mask-3)" cx="806.5" cy="617.5" r="82.5"></circle>
                        <circle id="Oval-Copy-3" fill="#FFFFFF" opacity="0.300000012" filter="url(#filter-6)" mask="url(#mask-3)" cx="606.5" cy="267.5" r="82.5"></circle>
                    </g>
                    <g id="0" transform="translate(184.000000, 268.000000)" opacity="0.699999988">
                        <g id="Fill-6">
                            <use fill="black" fill-opacity="1" filter="url(#filter-8)" xlink:href="#path-7"></use>
                            <use fill="#FFFFFF" fill-rule="evenodd" xlink:href="#path-7"></use>
                        </g>
                        <g id="Fill-8">
                            <use fill="black" fill-opacity="1" filter="url(#filter-10)" xlink:href="#path-9"></use>
                            <use fill="#FFFFFF" fill-rule="evenodd" xlink:href="#path-9"></use>
                        </g>
                        <g id="Fill-10">
                            <use fill="black" fill-opacity="1" filter="url(#filter-12)" xlink:href="#path-11"></use>
                            <use fill="#FFFFFF" fill-rule="evenodd" xlink:href="#path-11"></use>
                        </g>
                    </g>
                </g>
                <g id="KU" transform="translate(702.000000, 351.000000)">
                    <ellipse id="Oval" fill="#00043D" opacity="0.5" filter="url(#filter-13)" cx="75.5" cy="144" rx="67.5" ry="14"></ellipse>
                    <g id="Group-134">
                        <path d="M88.0281,93.6443 C86.3211,99.8803 57.0131,134.2703 30.3201,114.9373 C7.5861,98.4713 20.2021,70.2523 0.8401,68.0763 C15.6741,57.2673 33.3741,64.0333 42.6271,77.7903 C50.9651,90.1903 50.5071,100.9613 67.6261,99.5733 C76.3911,98.8613 79.8221,92.0953 80.7271,90.8743 C82.5621,88.4013 89.3111,85.8703 88.0281,93.6443" id="Fill-1" fill="#E95506"></path>
                        <g id="Group-24" transform="translate(0.000000, 61.807000)">
                            <g id="Group-5">
                                <mask id="mask-15" fill="white">
                                    <use xlink:href="#path-14"></use>
                                </mask>
                                <g id="Clip-4"></g>
                                <path d="M76.3309,36.6879 C62.9799,52.2959 43.5299,58.5739 27.4879,43.6549 C11.8439,29.1049 18.6509,10.2439 5.5599,6.7199 C21.6889,10.5579 13.7339,24.3699 31.2879,39.7359 C46.4949,53.0479 63.2989,49.9759 76.3309,36.6879" id="Fill-3" fill="#EC6D20" mask="url(#mask-15)"></path>
                            </g>
                            <g id="Group-8">
                                <mask id="mask-17" fill="white">
                                    <use xlink:href="#path-16"></use>
                                </mask>
                                <g id="Clip-7"></g>
                                <path d="M1.5877,6.1376 C15.7967,-4.0434 32.6817,2.4526 41.5277,15.6076 C49.5377,27.5156 49.0977,37.8616 65.5397,36.5276 C67.8527,36.3406 69.7767,35.7146 71.3717,34.8796 C69.4417,36.4026 66.8007,37.7276 63.2457,38.0156 C46.8037,39.3496 47.2427,29.0046 39.2337,17.0956 C30.8587,4.6426 15.2797,-1.8434 1.5877,6.1376" id="Fill-6" fill="#E0370D" mask="url(#mask-17)"></path>
                            </g>
                            <g id="Group-11">
                                <mask id="mask-19" fill="white">
                                    <use xlink:href="#path-18"></use>
                                </mask>
                                <g id="Clip-10"></g>
                                <path d="M1.8719,-10.3971 C13.5229,-18.7031 29.7089,-15.9901 38.0149,-4.3391 C46.3209,7.3129 43.6079,23.4979 31.9569,31.8039 C20.3049,40.1099 4.1199,37.3969 -4.1861,25.7459 C-12.4921,14.0949 -9.7791,-2.0911 1.8719,-10.3971" id="Fill-9" fill="#FBE1B9" mask="url(#mask-19)"></path>
                            </g>
                            <g id="Group-14">
                                <mask id="mask-21" fill="white">
                                    <use xlink:href="#path-20"></use>
                                </mask>
                                <g id="Clip-13"></g>
                                <path d="M42.1541,16.5619 C41.8801,17.7459 41.5221,18.9119 41.0841,20.0489 C40.5161,19.0799 39.9061,18.0929 39.2341,17.0959 C30.8591,4.6419 15.2801,-1.8431 1.5881,6.1379 C15.7971,-4.0431 32.6811,2.4529 41.5281,15.6069 C41.7431,15.9269 41.9511,16.2449 42.1541,16.5619" id="Fill-12" fill="#F9CD9D" mask="url(#mask-21)"></path>
                            </g>
                            <g id="Group-17">
                                <mask id="mask-23" fill="white">
                                    <use xlink:href="#path-22"></use>
                                </mask>
                                <g id="Clip-16"></g>
                                <path d="M21.4139,36.2279 C13.5449,23.3259 16.5029,9.6659 5.5599,6.7199 C19.9439,10.1419 15.1749,21.4979 26.4239,34.8129 C24.7889,35.4589 23.1099,35.9299 21.4139,36.2279" id="Fill-15" fill="#FDEAC7" mask="url(#mask-23)"></path>
                            </g>
                            <g id="Group-20">
                                <mask id="mask-25" fill="white">
                                    <use xlink:href="#path-24"></use>
                                </mask>
                                <g id="Clip-19"></g>
                                <path d="M52.8484,43.5511 C45.4654,45.1851 40.0354,56.0261 43.5374,67.4181 L51.5524,77.0121 L54.9364,59.1011 C52.8314,56.4571 54.1784,46.8671 52.8484,43.5511" id="Fill-18" fill="#CF200D" mask="url(#mask-25)"></path>
                            </g>
                            <g id="Group-23">
                                <mask id="mask-27" fill="white">
                                    <use xlink:href="#path-26"></use>
                                </mask>
                                <g id="Clip-22"></g>
                                <path d="M56.6561,33.4798 C50.5711,35.6338 46.4301,46.2798 49.7381,56.6958 L56.7381,65.0418 L58.9311,47.9208 C57.0901,45.6128 57.8781,36.4848 56.6561,33.4798" id="Fill-21" fill="#CF200D" mask="url(#mask-27)"></path>
                            </g>
                        </g>
                        <path d="M121.1297,96.9382 L110.9527,110.0762 C118.7867,107.7142 133.3247,110.3292 137.6917,117.7112 C139.1137,109.3952 127.0487,98.3312 121.1297,96.9382" id="Fill-25" fill="#E95506"></path>
                        <g id="Group-33" transform="translate(110.000000, 96.807000)">
                            <g id="Group-29">
                                <mask id="mask-29" fill="white">
                                    <use xlink:href="#path-28"></use>
                                </mask>
                                <g id="Clip-28"></g>
                                <path d="M12.242,13.4046 C18.591,14.1556 25.201,16.9296 27.849,21.6746 C27.973,20.9016 27.988,20.1046 27.908,19.2956 C24.481,15.3796 18.113,13.1866 12.242,12.7616 L12.242,13.4046 Z" id="Fill-27" fill="#D8340C" mask="url(#mask-29)"></path>
                            </g>
                            <g id="Group-32">
                                <mask id="mask-31" fill="white">
                                    <use xlink:href="#path-30"></use>
                                </mask>
                                <g id="Clip-31"></g>
                                <path d="M11.4803,1.5961 C14.1233,4.3601 15.4603,10.5181 14.1453,14.4191 L7.5293,13.7411 L9.4963,5.2051 L11.4803,1.5961 Z" id="Fill-30" fill="#D8340C" mask="url(#mask-31)"></path>
                            </g>
                        </g>
                        <g id="Group-36" transform="translate(92.000000, 126.807000)">
                            <mask id="mask-33" fill="white">
                                <use xlink:href="#path-32"></use>
                            </mask>
                            <g id="Clip-35"></g>
                            <path d="M14.2908,0.6576 C17.9218,4.2356 28.8408,16.4706 28.2828,16.9036 C27.4048,17.5856 8.3488,14.6556 0.4358,8.2916 L14.2908,0.6576 Z" id="Fill-34" fill="#E95506" mask="url(#mask-33)"></path>
                        </g>
                        <g id="Group-39" transform="translate(92.000000, 126.807000)">
                            <mask id="mask-35" fill="white">
                                <use xlink:href="#path-34"></use>
                            </mask>
                            <g id="Clip-38"></g>
                            <path d="M16.0047,2.4154 L22.6617,8.2094 C17.2957,5.7824 6.9997,9.7544 5.3317,13.4414 L1.6487,11.1584 L16.0047,2.4154 Z" id="Fill-37" fill="#CF200D" mask="url(#mask-35)"></path>
                        </g>
                        <path d="M83.9275,138.1394 C102.6815,140.3984 119.7695,127.3544 121.9685,109.1014 C124.1665,90.8484 110.6655,74.1184 91.9115,71.8594 C73.1575,69.6004 56.0695,82.6454 53.8705,100.8984 C51.6715,119.1514 65.1735,135.8804 83.9275,138.1394" id="Fill-40" fill="#E95506"></path>
                        <g id="Group-48" transform="translate(53.000000, 70.807000)">
                            <g id="Group-44">
                                <mask id="mask-37" fill="white">
                                    <use xlink:href="#path-36"></use>
                                </mask>
                                <g id="Clip-43"></g>
                                <path d="M3.0809,18.9164 C10.8149,16.1914 22.1109,20.0204 27.4279,25.9254 C28.2269,27.0174 28.8639,28.1474 29.2999,29.2804 L29.6669,23.1894 L21.6999,13.5564 L6.5249,11.4694 L3.0809,18.9164 Z" id="Fill-42" fill="#D8340C" mask="url(#mask-37)"></path>
                            </g>
                            <g id="Group-47">
                                <mask id="mask-39" fill="white">
                                    <use xlink:href="#path-38"></use>
                                </mask>
                                <g id="Clip-46"></g>
                                <path d="M30.9275,67.3324 C46.7825,69.2424 61.4475,60.2134 66.9305,46.3454 C60.8975,59.1084 46.8735,67.2214 31.7665,65.4004 C13.0135,63.1424 -0.4885,46.4124 1.7095,28.1594 C2.0495,25.3394 2.7455,22.6434 3.7475,20.1084 C2.2915,23.1894 1.2985,26.5414 0.8705,30.0914 C-1.3285,48.3444 12.1735,65.0734 30.9275,67.3324" id="Fill-45" fill="#E0370D" mask="url(#mask-39)"></path>
                            </g>
                        </g>
                        <path d="M84.3748,134.4284 C95.0438,135.7144 104.9198,126.9974 106.3618,115.0264 C107.8048,103.0544 100.2798,92.2424 89.6108,90.9574 C78.9428,89.6724 69.0658,98.3884 67.6238,110.3594 C66.1818,122.3314 73.7068,133.1434 84.3748,134.4284" id="Fill-49" fill="#FEF4DF"></path>
                        <g id="Group-57" transform="translate(67.000000, 90.807000)">
                            <g id="Group-53">
                                <mask id="mask-41" fill="white">
                                    <use xlink:href="#path-40"></use>
                                </mask>
                                <g id="Clip-52"></g>
                                <path d="M23.0379,12.7621 C21.5239,11.6431 19.9819,10.7721 18.4699,9.6531 L14.4079,-0.5869 L9.7329,2.3231 C6.8429,2.2491 -4.4761,2.3101 3.6439,9.1761 C6.6209,10.1001 12.2699,8.8501 14.0699,8.0461 C14.5399,8.8741 14.6489,9.4251 14.8489,10.2341 C15.7419,13.8541 22.1519,13.4541 23.0379,12.7621" id="Fill-51" fill="#FBE1B9" mask="url(#mask-41)"></path>
                            </g>
                            <g id="Group-56">
                                <mask id="mask-43" fill="white">
                                    <use xlink:href="#path-42"></use>
                                </mask>
                                <g id="Clip-55"></g>
                                <path d="M17.0936,43.5882 C20.0616,43.9452 22.9686,43.5272 25.6506,42.4822 C23.2396,43.2732 20.6666,43.5622 18.0466,43.2462 C7.3786,41.9602 -0.1454,31.1492 1.2956,19.1772 C2.3366,10.5362 7.7716,3.5932 14.7266,0.8812 C7.3196,3.3102 1.4306,10.4862 0.3426,19.5192 C-1.0994,31.4902 6.4256,42.3032 17.0936,43.5882" id="Fill-54" fill="#FEFEFE" mask="url(#mask-43)"></path>
                            </g>
                        </g>
                        <path d="M78.6365,29.6125 L114.8395,33.9735 C122.7455,22.1995 137.2675,12.8665 149.6965,13.1965 C153.6375,21.6575 148.8655,42.7165 143.0755,52.3825 C145.2805,58.2655 145.1065,61.1265 144.3815,67.1435 C142.6085,81.8655 129.3185,92.5415 114.6485,91.2045 C106.3855,90.4515 96.4645,93.6415 93.8195,101.6865 C89.9115,101.2145 86.8825,100.8505 82.9755,100.3795 C82.3165,91.9375 73.4385,86.4795 65.2305,85.2525 C50.6635,83.0595 40.2885,69.5405 42.0625,54.8175 C42.7865,48.8005 43.2975,45.9805 46.8355,40.7895 C43.5075,30.0255 43.8725,8.4355 49.7105,1.1525 C61.8625,3.7835 73.7515,16.2975 78.6365,29.6125" id="Fill-58" fill="#FBE1B9"></path>
                        <g id="Group-66" transform="translate(41.000000, 0.807000)">
                            <g id="Group-62">
                                <mask id="mask-45" fill="white">
                                    <use xlink:href="#path-44"></use>
                                </mask>
                                <g id="Clip-61"></g>
                                <path d="M7.3445,54.2743 C9.2165,67.1443 16.0055,79.3183 29.0995,82.4533 C37.2555,84.4053 42.9975,93.3493 42.6295,99.6513 L40.4295,105.5033 L-1.7025,86.2283 L-1.6015,65.8903 L7.3445,54.2743 Z" id="Fill-60" fill="#F9CD9D" mask="url(#mask-45)"></path>
                            </g>
                            <g id="Group-65">
                                <mask id="mask-47" fill="white">
                                    <use xlink:href="#path-46"></use>
                                </mask>
                                <g id="Clip-64"></g>
                                <path d="M24.0447,92.9242 L29.5767,91.9532 L33.2907,90.7762 L43.5257,84.3982 L45.7407,82.2982 C48.4107,89.4262 42.6657,98.9922 36.5667,102.0882 L24.0447,92.9242 Z" id="Fill-63" fill="#F9CD9D" mask="url(#mask-47)"></path>
                            </g>
                        </g>
                        <path d="M80.7015,37.8505 C80.3485,35.1215 79.6395,32.3485 78.6345,29.6085 C78.5905,29.4885 78.5445,29.3685 78.4985,29.2495 L78.3765,28.9255 C78.3295,28.8025 78.2815,28.6805 78.2335,28.5585 C78.1895,28.4485 78.1455,28.3385 78.1005,28.2285 L77.9565,27.8775 L77.8165,27.5425 C77.7665,27.4235 77.7155,27.3045 77.6645,27.1865 L77.5205,26.8595 C77.4535,26.7085 77.3865,26.5565 77.3185,26.4065 C77.2375,26.2295 77.1565,26.0515 77.0735,25.8755 L76.9295,25.5745 C76.8695,25.4495 76.8095,25.3235 76.7475,25.1985 C76.6935,25.0855 76.6365,24.9715 76.5795,24.8585 L76.4205,24.5415 L76.2355,24.1795 L76.0705,23.8635 C76.0085,23.7465 75.9475,23.6295 75.8845,23.5125 C75.8165,23.3845 75.7455,23.2575 75.6755,23.1295 L75.5315,22.8665 C75.4155,22.6575 75.2985,22.4495 75.1795,22.2425 L75.0005,21.9345 L74.7905,21.5775 L74.6095,21.2745 C74.5385,21.1565 74.4665,21.0395 74.3945,20.9215 L74.2045,20.6145 L73.9825,20.2605 L73.8005,19.9745 C73.7095,19.8345 73.6185,19.6955 73.5275,19.5555 L73.2805,19.1835 C73.1785,19.0305 73.0755,18.8785 72.9725,18.7265 L72.7995,18.4775 C72.7105,18.3485 72.6205,18.2195 72.5315,18.0915 L72.3415,17.8255 L72.0795,17.4635 L71.8875,17.1995 C71.7935,17.0735 71.6985,16.9475 71.6055,16.8215 L71.4265,16.5835 C71.2755,16.3845 71.1225,16.1855 70.9685,15.9885 L70.9655,15.9845 L70.9475,15.9625 C70.8015,15.7765 70.6555,15.5915 70.5065,15.4075 C70.4355,15.3195 70.3635,15.2305 70.2905,15.1425 C70.1985,15.0295 70.1075,14.9185 70.0145,14.8065 L69.8045,14.5555 L69.5105,14.2095 L69.3055,13.9685 C69.2035,13.8525 69.1025,13.7375 69.0005,13.6215 L68.7985,13.3915 C68.6345,13.2085 68.4695,13.0255 68.3025,12.8445 L68.2015,12.7355 C68.0665,12.5885 67.9295,12.4425 67.7915,12.2975 L67.5835,12.0795 C67.4735,11.9645 67.3635,11.8495 67.2525,11.7365 L67.0515,11.5325 C66.9425,11.4215 66.8325,11.3115 66.7225,11.2015 L66.4985,10.9805 C66.3805,10.8645 66.2625,10.7495 66.1435,10.6355 L65.9665,10.4655 C65.7865,10.2945 65.6055,10.1245 65.4225,9.9555 L65.3225,9.8635 C65.1705,9.7245 65.0185,9.5865 64.8645,9.4495 L64.6815,9.2875 C64.5555,9.1765 64.4305,9.0665 64.3045,8.9585 L64.0945,8.7775 C63.9695,8.6705 63.8445,8.5645 63.7185,8.4595 L63.5215,8.2965 C63.3805,8.1795 63.2395,8.0645 63.0965,7.9495 L62.9465,7.8285 C62.7565,7.6765 62.5675,7.5275 62.3755,7.3805 L62.2225,7.2645 C62.0765,7.1525 61.9295,7.0415 61.7825,6.9325 L61.5885,6.7895 C61.4565,6.6925 61.3235,6.5965 61.1915,6.5015 L60.9695,6.3435 C60.8455,6.2555 60.7205,6.1695 60.5955,6.0835 L60.3695,5.9275 C60.2165,5.8235 60.0625,5.7215 59.9085,5.6195 L59.7765,5.5325 C59.5765,5.4025 59.3765,5.2745 59.1765,5.1485 L59.0165,5.0505 C58.8675,4.9585 58.7195,4.8675 58.5705,4.7775 L58.3485,4.6465 C58.2175,4.5695 58.0845,4.4925 57.9525,4.4165 L57.7265,4.2875 C57.5885,4.2105 57.4505,4.1345 57.3125,4.0585 L57.1115,3.9485 C56.9355,3.8545 56.7585,3.7625 56.5825,3.6715 L56.4925,3.6245 C56.2845,3.5185 56.0775,3.4165 55.8685,3.3155 L55.7105,3.2395 C55.5555,3.1655 55.3995,3.0925 55.2435,3.0215 L55.0315,2.9255 C54.8935,2.8635 54.7545,2.8025 54.6165,2.7435 L54.3825,2.6445 C54.2395,2.5845 54.0955,2.5255 53.9515,2.4675 L53.7595,2.3905 C53.5665,2.3145 53.3725,2.2405 53.1795,2.1695 L53.1255,2.1495 C52.9165,2.0725 52.7075,1.9995 52.4975,1.9275 L52.2935,1.8615 C52.1505,1.8135 52.0055,1.7665 51.8625,1.7215 C51.7825,1.6965 51.7035,1.6735 51.6245,1.6495 C51.4925,1.6095 51.3625,1.5715 51.2305,1.5345 L50.9725,1.4625 C50.8315,1.4235 50.6915,1.3875 50.5505,1.3515 L50.3485,1.3005 C50.1365,1.2465 49.9235,1.1975 49.7105,1.1525 C49.6165,1.2685 49.5245,1.3895 49.4335,1.5135 C49.3975,1.5635 49.3625,1.6165 49.3245,1.6675 C49.2725,1.7435 49.2185,1.8185 49.1655,1.8965 C49.1275,1.9535 49.0895,2.0135 49.0515,2.0725 C49.0015,2.1505 48.9505,2.2265 48.9025,2.3065 C48.8645,2.3685 48.8265,2.4325 48.7885,2.4965 C48.7425,2.5725 48.6985,2.6495 48.6535,2.7275 C48.6145,2.7965 48.5755,2.8665 48.5375,2.9365 C48.4935,3.0165 48.4485,3.0955 48.4065,3.1775 C48.3685,3.2485 48.3315,3.3215 48.2955,3.3935 C48.2535,3.4755 48.2125,3.5575 48.1715,3.6405 C48.1355,3.7145 48.1005,3.7895 48.0645,3.8635 C48.0235,3.9505 47.9835,4.0375 47.9435,4.1255 L47.8365,4.3645 C47.7995,4.4495 47.7625,4.5355 47.7255,4.6225 L47.6195,4.8765 C47.5845,4.9625 47.5505,5.0495 47.5155,5.1365 L47.4095,5.4095 L47.3155,5.6635 C47.2805,5.7585 47.2445,5.8545 47.2105,5.9515 C47.1795,6.0415 47.1485,6.1315 47.1175,6.2215 L47.0215,6.5055 C46.9905,6.5975 46.9615,6.6915 46.9315,6.7845 C46.9005,6.8835 46.8675,6.9815 46.8375,7.0815 C46.8095,7.1715 46.7825,7.2625 46.7555,7.3535 C46.7235,7.4595 46.6925,7.5655 46.6605,7.6735 C46.6355,7.7625 46.6105,7.8535 46.5845,7.9445 C46.5545,8.0515 46.5245,8.1595 46.4945,8.2685 C46.4675,8.3725 46.4415,8.4775 46.4135,8.5815 L46.3375,8.8785 C46.3125,8.9795 46.2865,9.0835 46.2625,9.1855 C46.1475,9.6635 46.0375,10.1515 45.9355,10.6485 L45.9095,10.7715 L45.8415,11.1205 C45.8205,11.2285 45.7985,11.3365 45.7795,11.4455 L45.7175,11.7835 L45.6605,12.1025 C45.6385,12.2335 45.6155,12.3655 45.5945,12.4975 L45.5485,12.7735 C45.5265,12.9125 45.5045,13.0525 45.4835,13.1935 L45.4435,13.4615 C45.4235,13.5945 45.4045,13.7285 45.3855,13.8615 L45.3445,14.1555 C45.3245,14.2975 45.3075,14.4405 45.2885,14.5835 L45.2555,14.8435 L45.2035,15.2765 L45.1705,15.5675 L45.1275,15.9665 L45.0945,16.2895 L45.0525,16.7155 L45.0305,16.9585 L44.9875,17.4465 L44.9675,17.6805 L44.9305,18.1675 L44.9145,18.3855 L44.8795,18.9185 L44.8705,19.0605 C44.8595,19.2525 44.8475,19.4445 44.8375,19.6365 L44.8305,19.7735 C44.7105,22.1115 44.6965,24.4875 44.7825,26.8145 L44.7865,26.9045 C44.7945,27.1225 44.8045,27.3395 44.8145,27.5565 L44.8165,27.6025 C44.8265,27.8235 44.8375,28.0435 44.8505,28.2625 L44.8535,28.3205 C44.8935,29.0155 44.9415,29.7055 44.9975,30.3865 L44.9985,30.3995 C45.3285,34.3125 45.9515,37.9325 46.8355,40.7895 L46.8345,40.7895 C47.0335,41.4315 47.2445,42.0385 47.4695,42.5985 L80.7015,37.8505 Z" id="Fill-67" fill="#E95506"></path>
                        <g id="Group-71" transform="translate(44.000000, 0.807000)">
                            <mask id="mask-49" fill="white">
                                <use xlink:href="#path-48"></use>
                            </mask>
                            <g id="Clip-70"></g>
                            <path d="M-5.6262,0.1932 L4.9768,1.3822 C0.5518,12.7862 1.7268,31.7102 7.1158,42.7132 L1.1358,45.5922 L-5.2702,24.9572 L-5.6262,0.1932 Z" id="Fill-69" fill="#D8340C" mask="url(#mask-49)"></path>
                        </g>
                        <path d="M110.905,41.2451 C111.896,38.6781 113.244,36.1521 114.871,33.7291 C114.942,33.6231 115.015,33.5181 115.088,33.4121 L115.283,33.1271 C115.358,33.0201 115.434,32.9121 115.511,32.8051 C115.579,32.7091 115.647,32.6121 115.717,32.5151 L115.94,32.2091 L116.156,31.9171 C116.233,31.8131 116.31,31.7101 116.389,31.6071 L116.606,31.3231 C116.707,31.1921 116.807,31.0611 116.91,30.9321 C117.031,30.7781 117.152,30.6261 117.274,30.4731 L117.485,30.2161 C117.573,30.1081 117.661,30.0011 117.751,29.8941 C117.831,29.7961 117.913,29.7001 117.995,29.6031 L118.225,29.3331 L118.49,29.0251 L118.725,28.7581 C118.813,28.6591 118.901,28.5601 118.989,28.4611 C119.087,28.3531 119.185,28.2461 119.283,28.1381 L119.486,27.9171 C119.648,27.7411 119.811,27.5671 119.976,27.3951 L120.222,27.1381 L120.512,26.8411 L120.76,26.5891 C120.857,26.4921 120.954,26.3951 121.053,26.2971 L121.309,26.0451 L121.61,25.7541 L121.854,25.5191 C121.975,25.4041 122.097,25.2901 122.22,25.1771 L122.548,24.8741 C122.682,24.7501 122.818,24.6261 122.955,24.5041 L123.182,24.3021 C123.3,24.1981 123.417,24.0941 123.535,23.9911 L123.782,23.7781 L124.122,23.4881 L124.372,23.2781 C124.492,23.1771 124.614,23.0771 124.736,22.9771 L124.966,22.7891 C125.16,22.6311 125.355,22.4741 125.552,22.3201 L125.556,22.3161 L125.579,22.2981 C125.764,22.1531 125.951,22.0081 126.139,21.8651 C126.228,21.7961 126.32,21.7271 126.411,21.6591 C126.527,21.5711 126.642,21.4841 126.759,21.3981 L127.022,21.2041 L127.39,20.9371 L127.647,20.7531 C127.773,20.6641 127.899,20.5761 128.025,20.4881 L128.277,20.3131 C128.48,20.1731 128.683,20.0351 128.888,19.8981 L129.013,19.8171 C129.18,19.7061 129.347,19.5961 129.514,19.4881 L129.768,19.3261 C129.902,19.2401 130.037,19.1551 130.172,19.0711 L130.415,18.9211 C130.548,18.8391 130.681,18.7581 130.813,18.6781 L131.084,18.5161 C131.225,18.4311 131.367,18.3481 131.51,18.2661 L131.722,18.1431 C131.937,18.0191 132.154,17.8971 132.371,17.7761 L132.491,17.7111 C132.672,17.6121 132.852,17.5131 133.034,17.4181 L133.251,17.3031 C133.398,17.2251 133.547,17.1491 133.695,17.0731 L133.941,16.9471 C134.089,16.8731 134.235,16.8001 134.383,16.7281 L134.612,16.6151 C134.777,16.5361 134.942,16.4571 135.107,16.3801 L135.283,16.2971 C135.503,16.1961 135.722,16.0961 135.943,15.9981 L136.119,15.9221 C136.288,15.8481 136.457,15.7751 136.626,15.7041 L136.847,15.6111 C136.999,15.5481 137.151,15.4861 137.303,15.4251 L137.555,15.3251 C137.697,15.2691 137.839,15.2151 137.98,15.1611 L138.236,15.0641 C138.41,14.9991 138.584,14.9361 138.758,14.8741 L138.907,14.8201 C139.132,14.7411 139.356,14.6651 139.581,14.5901 L139.76,14.5331 C139.926,14.4791 140.092,14.4251 140.258,14.3741 L140.504,14.2991 C140.65,14.2551 140.797,14.2121 140.943,14.1701 L141.194,14.0981 C141.346,14.0551 141.498,14.0141 141.65,13.9741 L141.872,13.9151 C142.065,13.8651 142.259,13.8171 142.451,13.7711 L142.55,13.7471 C142.776,13.6931 143.003,13.6431 143.229,13.5941 L143.401,13.5591 C143.569,13.5241 143.738,13.4901 143.906,13.4581 L144.136,13.4161 C144.284,13.3881 144.433,13.3621 144.581,13.3371 L144.833,13.2961 C144.986,13.2721 145.139,13.2491 145.292,13.2271 L145.499,13.1971 C145.704,13.1691 145.909,13.1431 146.114,13.1201 L146.171,13.1131 C146.392,13.0881 146.613,13.0671 146.833,13.0481 L147.047,13.0311 C147.198,13.0191 147.349,13.0081 147.5,12.9981 C147.583,12.9931 147.665,12.9891 147.748,12.9841 C147.885,12.9771 148.021,12.9711 148.158,12.9661 L148.426,12.9571 C148.571,12.9531 148.717,12.9511 148.862,12.9501 L149.07,12.9481 C149.289,12.9471 149.508,12.9501 149.724,12.9561 C149.789,13.0911 149.849,13.2311 149.908,13.3731 C149.931,13.4301 149.954,13.4901 149.976,13.5481 C150.011,13.6341 150.045,13.7191 150.077,13.8081 C150.101,13.8731 150.124,13.9411 150.146,14.0071 C150.177,14.0931 150.207,14.1801 150.236,14.2691 C150.259,14.3381 150.28,14.4101 150.302,14.4811 C150.327,14.5661 150.353,14.6501 150.378,14.7371 C150.4,14.8131 150.42,14.8911 150.441,14.9681 C150.465,15.0561 150.488,15.1441 150.511,15.2331 C150.53,15.3111 150.549,15.3911 150.567,15.4701 C150.589,15.5591 150.609,15.6481 150.629,15.7381 C150.646,15.8181 150.664,15.9001 150.68,15.9821 C150.699,16.0751 150.718,16.1691 150.736,16.2641 L150.782,16.5211 C150.799,16.6131 150.814,16.7051 150.829,16.7981 L150.871,17.0701 C150.886,17.1621 150.898,17.2541 150.911,17.3481 L150.949,17.6381 L150.98,17.9061 C150.992,18.0081 151.003,18.1091 151.014,18.2121 C151.023,18.3061 151.031,18.4011 151.04,18.4961 L151.066,18.7951 C151.074,18.8921 151.081,18.9891 151.087,19.0871 C151.095,19.1911 151.101,19.2941 151.108,19.3981 C151.114,19.4921 151.118,19.5871 151.123,19.6821 C151.129,19.7921 151.134,19.9021 151.139,20.0141 C151.142,20.1071 151.145,20.2011 151.148,20.2951 C151.152,20.4081 151.156,20.5191 151.158,20.6321 C151.161,20.7391 151.162,20.8481 151.163,20.9561 L151.167,21.2621 C151.168,21.3671 151.167,21.4731 151.167,21.5791 C151.166,22.0701 151.155,22.5691 151.137,23.0771 L151.133,23.2021 L151.116,23.5581 C151.111,23.6681 151.106,23.7781 151.099,23.8891 L151.079,24.2311 L151.058,24.5541 C151.05,24.6881 151.04,24.8211 151.029,24.9551 L151.008,25.2321 C150.997,25.3731 150.984,25.5151 150.972,25.6561 L150.947,25.9261 C150.935,26.0601 150.922,26.1941 150.908,26.3291 L150.878,26.6241 C150.863,26.7661 150.847,26.9091 150.831,27.0531 L150.801,27.3141 L150.749,27.7471 L150.712,28.0371 L150.659,28.4351 L150.615,28.7561 L150.554,29.1801 L150.518,29.4211 L150.444,29.9061 L150.407,30.1381 L150.328,30.6191 L150.291,30.8361 L150.199,31.3611 L150.174,31.5021 C150.139,31.6911 150.104,31.8791 150.069,32.0681 L150.043,32.2031 C149.605,34.5031 149.054,36.8151 148.417,39.0551 L148.392,39.1411 C148.333,39.3501 148.272,39.5591 148.211,39.7681 L148.198,39.8121 C148.136,40.0241 148.072,40.2351 148.009,40.4451 L147.991,40.5001 C147.788,41.1671 147.577,41.8251 147.36,42.4731 L147.356,42.4851 C146.106,46.2081 144.641,49.5761 143.105,52.1421 C142.76,52.7191 142.411,53.2581 142.059,53.7491 L110.905,41.2451 Z" id="Fill-72" fill="#E95506"></path>
                        <g id="Group-76" transform="translate(110.000000, 12.807000)">
                            <mask id="mask-51" fill="white">
                                <use xlink:href="#path-50"></use>
                            </mask>
                            <g id="Clip-75"></g>
                            <path d="M38.2332,0.1566 C23.8982,2.6916 12.1922,12.6026 6.7352,23.6656 L-8.1648,21.7806 L2.9322,1.1176 L24.5062,-6.8924 L38.2332,0.1566 Z" id="Fill-74" fill="#D8340C" mask="url(#mask-51)"></path>
                        </g>
                        <g id="Group-83" transform="translate(54.000000, 16.807000)">
                            <path d="M66.8426,23.9481 C69.5986,16.8121 78.1526,10.3371 85.2626,10.5251 C87.2446,14.7801 84.5826,25.7491 81.6256,29.8821 L66.8426,23.9481 Z" id="Fill-77" fill="#9E3028"></path>
                            <path d="M66.8426,23.9486 C69.3226,17.5266 76.4976,11.6416 83.0906,10.6646 C77.4356,12.6606 71.9306,17.7346 69.8216,23.1966 L82.5716,28.3146 C82.2636,28.9056 81.9466,29.4336 81.6256,29.8826 L66.8426,23.9486 Z" id="Fill-79" fill="#86262A"></path>
                            <path d="M17.1951,17.9676 C16.2121,10.3816 9.4401,2.0596 2.4881,0.5536 C-0.4479,4.2166 -0.4669,15.5036 1.4251,20.2216 L17.1951,17.9676 Z" id="Fill-81" fill="#9E3028"></path>
                        </g>
                        <g id="Group-86" transform="translate(54.000000, 16.807000)">
                            <mask id="mask-53" fill="white">
                                <use xlink:href="#path-52"></use>
                            </mask>
                            <g id="Clip-85"></g>
                            <path d="M17.8201,18.8089 C17.7171,18.0179 17.2871,15.6269 17.0651,14.8299 L3.0151,16.8379 C1.6651,13.0729 1.2181,4.8699 2.7331,-0.0261 C-1.6479,3.6119 -2.2619,14.2889 0.5431,20.9139 L17.8201,18.8089 Z" id="Fill-84" fill="#86262A" mask="url(#mask-53)"></path>
                        </g>
                        <path d="M120.6639,34.4314 L114.8679,33.7334 L78.6659,29.3724 L72.8699,28.6744 C62.3539,27.4074 52.4519,32.3374 46.8519,40.5674 L46.7699,40.6884 C44.7219,43.7344 43.2609,47.2264 42.5709,51.0214 C42.3979,52.0924 42.2499,53.2574 42.0909,54.5774 C41.6869,57.9314 41.9159,61.2234 42.6799,64.3344 C51.9089,42.7934 76.7909,43.6234 89.9799,60.3454 C91.5639,62.3534 94.5049,62.7084 96.5199,61.1344 C113.3049,48.0224 137.6729,53.1234 141.5229,76.2404 C143.0029,73.4004 144.0069,70.2574 144.4109,66.9024 C144.5689,65.5824 144.7019,64.4154 144.7889,63.3344 C145.0189,59.4824 144.4299,55.7404 143.1609,52.2934 L143.1159,52.1704 C139.6319,42.8424 131.1829,35.6984 120.6639,34.4314" id="Fill-87" fill="#E95506"></path>
                        <g id="Group-91" transform="translate(41.000000, 27.807000)">
                            <mask id="mask-55" fill="white">
                                <use xlink:href="#path-54"></use>
                            </mask>
                            <g id="Clip-90"></g>
                            <path d="M7.7215,29.5106 C6.7325,24.0076 7.7565,17.9526 10.5725,13.0096 C17.5715,0.7206 32.8295,1.3106 45.1015,2.4606 C45.5225,-2.7974 9.5575,-4.3964 8.6125,-10.4464 C8.0055,-14.3244 8.9925,-18.6614 9.4675,-22.6044 C10.2245,-28.8864 9.6935,-26.8044 8.0375,-21.5594 C5.0955,-12.2414 4.1495,-3.4814 2.9675,6.0916 L-0.5775,34.7956 C-1.1805,39.6866 -1.0565,43.4766 3.5035,39.8956 C6.6075,37.4596 7.3255,33.2016 7.7215,29.5106" id="Fill-89" fill="#E0370D" mask="url(#mask-55)"></path>
                        </g>
                        <g id="Group-133" transform="translate(44.000000, 36.807000)">
                            <path d="M5.8826,34.4032 L15.9326,35.6132 C18.4246,35.9132 20.2186,38.1992 19.9176,40.6922 C19.6176,43.1842 17.3326,44.9782 14.8406,44.6782 L4.7906,43.4672 C2.2986,43.1672 0.5046,40.8822 0.8046,38.3892 C1.1056,35.8972 3.3906,34.1022 5.8826,34.4032" id="Fill-92" fill="#E50113"></path>
                            <path d="M78.8426,43.1918 L88.8926,44.4018 C91.3846,44.7028 93.1786,46.9878 92.8776,49.4808 C92.5776,51.9728 90.2916,53.7668 87.8006,53.4668 L77.7506,52.2558 C75.2576,51.9568 73.4646,49.6708 73.7646,47.1778 C74.0656,44.6848 76.3506,42.8908 78.8426,43.1918" id="Fill-94" fill="#E50113"></path>
                            <path d="M20.5428,3.5629 C25.1278,0.2429 33.8778,2.7239 35.9778,7.5239 C35.8238,0.1859 24.4848,-2.9391 20.5428,3.5629" id="Fill-96" fill="#FEFEFE"></path>
                            <path d="M84.366,11.2513 C80.7,6.9373 71.612,7.2693 68.431,11.4333 C70.324,4.3413 82.08,3.9983 84.366,11.2513" id="Fill-98" fill="#FEFEFE"></path>
                            <path d="M23.5584,39.8734 C30.3184,40.6874 36.4824,35.9534 37.2794,29.3344 C38.0764,22.7154 33.2134,16.6534 26.4544,15.8384 C19.6934,15.0244 13.5304,19.7584 12.7324,26.3774 C11.9354,32.9964 16.7974,39.0594 23.5584,39.8734" id="Fill-100" fill="#F6B981"></path>
                            <path d="M23.4861,40.4735 C30.1041,41.2705 36.1531,36.5225 36.9511,29.9035 C37.7491,23.2845 33.0001,17.2355 26.3821,16.4385 C19.7611,15.6415 13.7141,20.3895 12.9161,27.0085 C12.1191,33.6275 16.8671,39.6765 23.4861,40.4735" id="Fill-102" fill="#FEFEFE"></path>
                            <path d="M24.6189,31.0658 C26.0559,31.2388 27.3699,30.2078 27.5429,28.7708 C27.7159,27.3338 26.6849,26.0198 25.2479,25.8468 C23.8099,25.6738 22.4969,26.7048 22.3239,28.1418 C22.1509,29.5798 23.1819,30.8928 24.6189,31.0658" id="Fill-104" fill="#530000"></path>
                            <path d="M70.4285,45.5199 C77.1885,46.3339 83.3525,41.5999 84.1505,34.9799 C84.9475,28.3619 80.0835,22.2989 73.3245,21.4849 C66.5635,20.6699 60.4005,25.4049 59.6035,32.0239 C58.8055,38.6429 63.6685,44.7059 70.4285,45.5199" id="Fill-106" fill="#F6B981"></path>
                            <path d="M70.3562,46.1195 C76.9742,46.9175 83.0242,42.1685 83.8212,35.5495 C84.6192,28.9305 79.8702,22.8815 73.2512,22.0845 C66.6322,21.2865 60.5842,26.0355 59.7862,32.6545 C58.9892,39.2735 63.7372,45.3215 70.3562,46.1195" id="Fill-108" fill="#FEFEFE"></path>
                            <path d="M44.0799,66.8529 C47.0849,67.2139 49.6829,66.2779 49.8639,64.7689 C50.0469,63.2599 47.7439,61.7319 44.7399,61.3709 C41.7359,61.0079 39.1379,61.9459 38.9559,63.4549 C38.7739,64.9639 41.0759,66.4909 44.0799,66.8529" id="Fill-110" fill="#231916"></path>
                            <path d="M48.6092,64.4056 C48.5492,64.8996 47.8702,65.2226 47.0912,65.1296 C46.3112,65.0356 45.7282,64.5596 45.7882,64.0656 C45.8472,63.5726 46.5272,63.2486 47.3062,63.3426 C48.0852,63.4356 48.6692,63.9126 48.6092,64.4056" id="Fill-112" fill="#595757"></path>
                            <path d="M71.4891,36.7118 C72.9261,36.8848 74.2401,35.8538 74.4141,34.4168 C74.5871,32.9798 73.5551,31.6658 72.1181,31.4928 C70.6801,31.3198 69.3671,32.3508 69.1941,33.7878 C69.0211,35.2248 70.0521,36.5388 71.4891,36.7118" id="Fill-114" fill="#530000"></path>
                            <path d="M6.5379,70.0668 C0.1249,76.9838 5.1649,96.1198 16.6179,101.0288 C20.5179,102.6998 27.8089,98.4898 28.3109,94.2768 C29.7869,81.9038 15.7349,67.9708 6.5379,70.0658 L6.5379,70.0668 Z" id="Fill-116" fill="#E1450A"></path>
                            <path d="M13.6746,82.4281 C17.0156,80.4991 21.6416,82.2571 24.0056,86.3521 C26.3696,90.4481 25.5786,95.3321 22.2386,97.2611 C18.8986,99.1901 14.2726,97.4321 11.9076,93.3371 C9.5436,89.2411 10.3346,84.3571 13.6746,82.4281" id="Fill-118" fill="#FEFEFE"></path>
                            <path d="M10.2986,77.0033 C11.1136,76.5323 12.1546,76.8123 12.6256,77.6263 C13.0966,78.4403 12.8176,79.4823 12.0026,79.9533 C11.1876,80.4243 10.1456,80.1453 9.6756,79.3293 C9.2046,78.5153 9.4846,77.4733 10.2986,77.0033" id="Fill-120" fill="#FEFEFE"></path>
                            <path d="M7.2908,81.6605 C8.1058,81.1895 9.1468,81.4695 9.6178,82.2835 C10.0888,83.0985 9.8098,84.1395 8.9948,84.6105 C8.1798,85.0815 7.1378,84.8025 6.6678,83.9875 C6.1968,83.1725 6.4768,82.1315 7.2908,81.6605" id="Fill-122" fill="#FEFEFE"></path>
                            <path d="M16.202,76.515 C17.017,76.045 18.059,76.324 18.529,77.139 C19,77.953 18.721,78.995 17.906,79.466 C17.091,79.936 16.049,79.658 15.579,78.842 C15.108,78.028 15.388,76.986 16.202,76.515" id="Fill-124" fill="#FEFEFE"></path>
                            <polygon id="Fill-126" fill="#E95506" points="18.1551 51.6761 23.7641 51.9741 27.6471 51.6621 34.5621 49.9261 39.0561 47.7511 41.6861 46.2041 41.9201 47.9311 40.6821 51.7181 38.3711 55.8051 34.6251 59.9511 31.7181 61.8771 27.4711 63.0841"></polygon>
                            <path d="M42.1111,45.3285 C42.6791,45.5325 42.9111,46.5295 42.7591,47.6425 C42.4001,50.2955 40.9781,53.2125 39.4651,55.4025 C36.4751,59.7335 31.3641,63.5995 26.3061,63.1525 C31.4691,62.2745 35.4711,59.1855 38.2971,54.9185 C39.7031,52.7945 41.1101,50.1445 41.4581,47.5805 C41.5371,47.0035 41.5611,46.6555 41.5231,46.6415 C41.5091,46.6375 41.4871,46.6935 41.3621,46.7885 C35.0311,51.5965 25.3131,53.7975 17.1231,51.4735 C25.2561,52.1655 33.7831,50.9155 40.3081,46.1225 C40.7811,45.7725 41.4831,45.1095 42.1111,45.3285" id="Fill-128" fill="#FEFEFE"></path>
                            <path d="M104.9793,13.6854 C104.3903,13.4824 104.0773,12.8394 104.2793,12.2504 C104.4823,11.6614 105.1253,11.3474 105.7143,11.5504 C106.4753,11.8144 107.4573,11.9274 108.4643,11.9274 L108.4643,11.9224 C109.6453,11.9224 110.8323,11.7684 111.7493,11.5234 C112.3533,11.3614 112.9733,11.7204 113.1353,12.3244 C113.2643,12.8094 113.0593,13.3044 112.6613,13.5644 L112.6623,13.5644 C110.7233,14.8314 109.6753,15.8674 109.2913,16.7094 C109.0743,17.1844 109.1393,17.5804 109.4003,17.9064 C109.8013,18.4064 110.5623,18.8424 111.5283,19.2134 C114.6253,20.4034 119.4583,20.7784 122.2603,20.6474 C122.8833,20.6214 123.4123,21.1044 123.4383,21.7284 C123.4633,22.3144 123.0383,22.8154 122.4693,22.8954 C119.7343,23.3314 117.3963,24.2114 115.6153,25.4284 C114.2533,26.3594 113.2243,27.4874 112.6033,28.7644 C111.9953,30.0144 111.7743,31.4194 112.0143,32.9324 C112.2413,34.3614 112.8763,35.9004 113.9783,37.5124 C114.3313,38.0284 114.1983,38.7324 113.6823,39.0844 C113.2933,39.3504 112.7973,39.3394 112.4263,39.0984 C111.3273,38.4324 109.9273,37.9424 108.4773,37.6384 C106.8743,37.3014 105.2273,37.1944 103.8573,37.3264 C103.2353,37.3854 102.6843,36.9294 102.6253,36.3074 C102.5673,35.6864 103.0233,35.1354 103.6443,35.0764 C105.2343,34.9234 107.1213,35.0424 108.9373,35.4234 C109.4633,35.5344 109.9863,35.6664 110.4973,35.8214 C110.1493,34.9594 109.9133,34.1124 109.7823,33.2864 C109.4653,31.2894 109.7583,29.4304 110.5663,27.7714 C111.3603,26.1404 112.6503,24.7144 114.3383,23.5604 C114.8593,23.2044 115.4183,22.8734 116.0143,22.5704 C114.1273,22.3124 112.2433,21.9064 110.7223,21.3224 C109.3953,20.8124 108.3043,20.1554 107.6373,19.3234 C106.8313,18.3164 106.6123,17.1374 107.2363,15.7714 C107.4653,15.2674 107.8243,14.7384 108.3283,14.1854 C107.1363,14.1744 105.9533,14.0234 104.9793,13.6854" id="Fill-130" fill="#E50113"></path>
                        </g>
                    </g>
                </g>
                <g id="Group-4" transform="translate(224.000000, 353.000000)">
                    <mask id="mask-57" fill="white">
                        <use xlink:href="#path-56"></use>
                    </mask>
                    <use id="Combined-Shape" fill="#1E3C64" xlink:href="#path-56"></use>
                    <g id="Group-115" mask="url(#mask-57)">
                        <g transform="translate(0.000000, -0.657459)">
                            <polygon id="Fill-1" fill="url(#linearGradient-58)" points="210.843646 0.657458564 246.114365 21.0209945 246 61.5541436 210.729282 41.1906077"></polygon>
                            <polygon id="Fill-2" fill="url(#linearGradient-58)" points="140.521492 0.651657459 175.802155 21.0218232 175.68779 157.853315 140.407127 137.483149"></polygon>
                            <polygon id="Fill-3" fill="url(#linearGradient-59)" points="175.80232 21.0211602 210.844309 0.657624309 210.728287 51.1907735 175.687956 71.5543094"></polygon>
                            <polygon id="Fill-4" fill="url(#linearGradient-58)" points="70.2089503 0.651657459 105.479669 21.0151934 105.365304 61.5483425 70.0945856 41.1848066"></polygon>
                            <polygon id="Fill-5" fill="url(#linearGradient-59)" points="105.48 21.0155249 140.521989 0.65198895 140.405967 41.1851381 105.365635 61.548674"></polygon>
                            <path d="M35.1556463,21.4494099 L35.0424862,61.5556354 L0.000497237569,81.9191713 L0.114861878,41.3860221 L35.1561867,21.0228721 L70.2081215,0.651823204 L70.0937569,90.9087293 L35.0418232,111.278895 L35.1556463,21.4494099 Z" id="Combined-Shape" fill="url(#linearGradient-59)"></path>
                            <polygon id="Fill-7" fill="#0C0202" points="246.114696 21.0211602 246.000331 61.5543094 210.958343 81.9178453 211.072707 41.3846961"></polygon>
                            <polygon id="Fill-8" fill="#0C0202" points="140.760994 41.3856906 140.64663 81.9188398 105.365967 61.548674 105.480331 21.0155249"></polygon>
                            <polygon id="Fill-9" fill="#0C0202" points="105.48 21.0155249 105.365635 61.548674 70.3120442 81.9188398 70.4280663 41.3856906"></polygon>
                            <polygon id="Fill-11" fill="#0C0202" points="211.073536 41.3848619 210.959171 81.918011 175.917182 102.281547 176.031547 61.7483978"></polygon>
                            <polygon id="Fill-12" fill="url(#linearGradient-59)" points="105.708232 61.7551934 140.760166 41.3850276 140.645801 131.641934 105.593867 152.012099"></polygon>
                            <polygon id="Fill-13" fill="url(#linearGradient-58)" points="70.4274033 41.3856906 105.708066 61.7558564 105.593702 152.012762 70.3130387 131.642597"></polygon>
                            <polygon id="Fill-14" fill="#0C0202" points="0 81.9188398 35.2723757 102.282376 35.3867403 61.7492265 0.114364641 41.3856906"></polygon>
                            <polygon id="Fill-15" fill="url(#linearGradient-58)" points="176.03221 61.7487293 175.917845 102.281878 140.864254 122.652044 140.980276 82.118895"></polygon>
                            <polygon id="Fill-16" fill="#0C0202" points="70.6669061 82.1197238 70.5525414 122.652873 35.2718785 102.282707 35.3862431 61.749558"></polygon>
                            <polygon id="Fill-18" fill="url(#linearGradient-59)" points="35.6255801 102.483425 70.6675691 82.1198895 70.551547 122.651381 35.5112155 143.016575"></polygon>
                            <polygon id="Fill-19" fill="#0C0202" points="141.209337 122.846464 141.094972 163.379613 105.822597 143.016077 105.938619 102.482928"></polygon>
                            <polygon id="Fill-20" fill="#0C0202" points="176.250663 102.482597 176.136298 143.015746 141.094309 163.379282 141.208674 122.846133"></polygon>
                            <polygon id="Fill-21" fill="#0C0202" points="70.8967956 122.847293 70.7824309 163.380442 35.5100552 143.016906 35.6260773 102.483757"></polygon>
                            <polygon id="Fill-22" fill="#0C0202" points="105.938122 102.483425 105.823757 143.016575 70.781768 163.38011 70.8961326 122.846961"></polygon>
                            <polygon id="Fill-23" fill="url(#linearGradient-58)" points="281.625414 82.118895 316.896133 102.482431 316.781768 159.590166 281.51105 139.22663"></polygon>
                            <path d="M211.485815,145.661285 L211.416133,179.959171 L176.375801,200.324365 L176.490166,143.21663 L211.531491,122.85348 L246.583425,102.482762 L246.469061,159.590497 L211.417127,179.960663 L211.485815,145.661285 Z M246.584088,102.482597 L281.626077,82.1190608 L281.510055,139.225138 L246.469724,159.590331 L246.584088,102.482597 Z" id="Combined-Shape" fill="url(#linearGradient-59)"></path>
                            <path d="M351.937956,82.1180663 L387.208674,102.481602 L387.094309,159.589337 L351.823591,139.225801 L351.937956,82.1180663 Z M387.209171,102.481768 L422.489834,122.851934 L422.37547,179.959669 L387.094807,159.589503 L387.209171,102.481768 Z" id="Combined-Shape" fill="url(#linearGradient-58)"></path>
                            <polygon id="Fill-32" fill="url(#linearGradient-59)" points="316.89663 102.481768 351.938619 82.118232 351.822597 132.651381 316.782265 153.014917"></polygon>
                            <polygon id="Fill-37" fill="url(#linearGradient-58)" points="387.448674 143.215801 422.719392 163.579337 422.605028 220.687072 387.334309 200.323536"></polygon>
                            <path d="M317.309075,206.758191 L317.239392,241.056077 L282.199061,261.421271 L282.313425,204.313536 L317.35475,183.950386 L352.406685,163.579669 L352.29232,220.687403 L317.240387,241.057569 L317.309075,206.758191 Z M352.407348,163.579503 L387.449337,143.215967 L387.333315,200.322044 L352.292983,220.687238 L352.407348,163.579503 Z" id="Combined-Shape" fill="url(#linearGradient-59)"></path>
                            <path d="M211.761381,163.580331 L247.032099,183.943867 L246.917735,234.477017 L211.647017,214.113481 L211.761381,163.580331 Z M247.032597,183.944199 L282.31326,204.314365 L282.198895,254.845856 L246.918232,234.477348 L247.032597,183.944199 Z" id="Combined-Shape" fill="url(#linearGradient-58)"></path>
                            <polygon id="Fill-42" fill="url(#linearGradient-59)" points="176.720055 183.944199 211.762044 163.580663 211.646022 204.112155 176.605691 224.477348"></polygon>
                            <polygon id="Fill-49" fill="#0C0202" points="282.313425 204.313536 282.199061 244.846685 247.157072 265.210221 247.271436 224.677072"></polygon>
                            <polygon id="Fill-51" fill="url(#linearGradient-58)" points="563.584475 204.311878 598.855193 224.675414 598.740829 281.783149 563.47011 261.419613"></polygon>
                            <polygon id="Fill-52" fill="url(#linearGradient-58)" points="493.271934 204.312707 528.542652 224.676243 528.428287 369.80199 493.157569 349.438454"></polygon>
                            <polygon id="Fill-53" fill="url(#linearGradient-59)" points="528.543149 224.675746 563.585138 204.31221 563.469116 254.845359 528.428785 275.208895"></polygon>
                            <polygon id="Fill-54" fill="url(#linearGradient-58)" points="422.948122 204.306243 458.230442 224.676409 458.116077 350.657459 422.833757 330.287293"></polygon>
                            <polygon id="Fill-55" fill="url(#linearGradient-59)" points="458.230608 224.676575 493.272597 204.313039 493.156575 294.568287 458.116243 314.933481"></polygon>
                            <path d="M387.897679,224.676189 L422.947293,204.306409 L422.832928,294.563315 L387.782652,314.933481 L387.85133,260.732928 L387.781657,314.932818 L352.741326,335.298011 L352.855691,245.041105 L387.89768,224.675912 Z" id="Combined-Shape" fill="url(#linearGradient-59)"></path>
                            <path d="M528.77138,265.404256 L563.812043,245.039834 L598.855691,224.675746 L598.741326,265.208895 L563.698344,285.572045 L528.65702,305.935745 L493.605083,326.307293 L493.721105,285.774144 L528.771381,265.403978 Z" id="Combined-Shape" fill="#0C0202"></path>
                            <polygon id="Fill-58" fill="#0C0202" points="493.500166 245.040276 493.385801 285.573425 458.115083 265.208232 458.231105 224.67674"></polygon>
                            <polygon id="Fill-59" fill="#0C0202" points="458.230608 224.676575 458.116243 265.209724 423.062652 285.57989 423.178674 245.04674"></polygon>
                            <polygon id="Fill-62" fill="url(#linearGradient-59)" points="458.449227 265.409613 493.499503 245.039448 493.385138 351.870939 458.334862 372.241105"></polygon>
                            <polygon id="Fill-63" fill="url(#linearGradient-58)" points="423.178011 245.04674 458.448729 265.410276 458.334365 355.667182 423.063646 335.303646"></polygon>
                            <polygon id="Fill-64" fill="#0C0202" points="388.136685 265.410442 388.02232 305.943591 352.741657 285.573425 352.856022 245.040276"></polygon>
                            <polygon id="Fill-66" fill="#0C0202" points="423.407735 285.774309 423.29337 326.307459 388.020994 305.942265 388.137017 265.410773"></polygon>
                            <polygon id="Fill-67" fill="url(#linearGradient-58)" points="493.720276 285.773481 529.000939 306.143646 528.886575 346.676796 493.605912 326.30663"></polygon>
                            <polygon id="Fill-68" fill="url(#linearGradient-59)" points="388.364917 306.138011 423.408564 285.774475 423.292541 326.305967 388.250552 346.67116"></polygon>
                            <polygon id="Fill-69" fill="#0C0202" points="458.562928 346.670994 493.845249 367.04116 493.959613 326.508011 458.677293 306.137845"></polygon>
                            <polygon id="Fill-70" fill="#0C0202" points="493.959779 326.507514 493.845414 367.040663 528.887403 346.67547 529.001768 306.143978"></polygon>
                            <polygon id="Fill-71" fill="#0C0202" points="388.249558 346.670994 423.521934 367.03453 423.636298 326.501381 388.363923 306.137845"></polygon>
                            <polygon id="Fill-72" fill="#0C0202" points="423.635967 326.501547 423.521602 367.034696 458.563591 346.67116 458.677956 306.138011"></polygon>
                        </g>
                    </g>
                </g>
            </g>
        </g>
    </g>
</svg>