<?xml version="1.0" encoding="UTF-8"?>
<svg width="247px" height="181px" viewBox="0 0 247 181" version="1.1" xmlns="http://www.w3.org/2000/svg" xmlns:xlink="http://www.w3.org/1999/xlink">
    <!-- Generator: Sketch 52.2 (67145) - http://www.bohemiancoding.com/sketch -->
    <title>img1</title>
    <desc>Created with Sketch.</desc>
    <defs>
        <filter x="-161.6%" y="-383.8%" width="423.1%" height="867.6%" filterUnits="objectBoundingBox" id="filter-1">
            <feGaussianBlur stdDeviation="19.0262277" in="SourceGraphic"></feGaussianBlur>
        </filter>
        <path d="M2.88950605,10.5340256 C0.963168683,8.27053954 6.3600997e-17,5.8586651 0,3.29840228 C0.279055128,0.694363286 1.65632073,-0.367788492 4.13179681,0.111946949 C8.02464263,1.33227237 10.3137249,4.63016384 10.9990436,10.0056213 C10.9877957,12.2158035 9.87411932,13.3631901 7.65801454,13.4477811 L7.54252267,21.2075598 L6.93935385,21.6836258 L5.94833322,21.6836258 L2.65149238,19.0193945 L2.88950605,10.5340256 Z" id="path-2"></path>
        <path d="M4.56306118,33.7409807 C-0.118399156,31.1252865 -0.00386667379,23.9422487 3.68295106,18.2650472 C7.3697688,12.5878457 13.2653994,9.41911824 17.5650149,12.5080314 C21.8646305,15.5969446 19.1327823,20.3331498 15.867357,25.9944604 C12.6019318,31.655771 9.24452153,36.3566749 4.56306118,33.7409807 Z M5.9960529,28.9657081 C8.27475052,30.4455116 12.0048852,28.227122 14.1333911,24.5057828 C16.2618969,20.7844437 16.8774846,16.7165038 14.5135457,15.1191535 C12.1496067,13.5218031 8.71652576,15.5992803 6.29859923,19.3225606 C3.8806727,23.045841 3.71735528,27.4859046 5.9960529,28.9657081 Z" id="path-4"></path>
        <path d="M3.45285848,32.7911375 C-0.0216651188,30.5347555 0.227358799,23.7646138 3.91417654,18.0874123 C7.60099427,12.4102109 12.8357041,9.2425052 16.4402024,11.6781208 C20.0447007,14.1137365 19.1060619,20.3164696 15.8605484,25.9907111 C12.615035,31.6649526 6.92738207,35.0475195 3.45285848,32.7911375 Z M5.9960529,28.9657081 C8.27475052,30.4455116 12.0048852,28.227122 14.1333911,24.5057828 C16.2618969,20.7844437 16.8774846,16.7165038 14.5135457,15.1191535 C12.1496067,13.5218031 8.71652576,15.5992803 6.29859923,19.3225606 C3.8806727,23.045841 3.71735528,27.4859046 5.9960529,28.9657081 Z" id="path-6"></path>
    </defs>
    <g id="Page-1" stroke="none" stroke-width="1" fill="none" fill-rule="evenodd">
        <g id="安全问题升级为提现密码" transform="translate(-800.000000, -445.000000)">
            <g id="content" transform="translate(329.000000, 247.000000)">
                <g id="2" transform="translate(404.000000, 40.000000)">
                    <g id="Group-7">
                        <g id="img1" transform="translate(68.000000, 158.000000)">
                            <g id="shadow" transform="translate(0.000000, 52.000000)">
                                <ellipse id="Oval-19" stroke="#F2F6FA" opacity="0.100000001" cx="122.5" cy="64.2875536" rx="25.1148649" ry="13.1716738"></ellipse>
                                <ellipse id="Oval-19" stroke="#F2F6FA" opacity="0.05" cx="122.712838" cy="64.2875536" rx="55.9763514" ry="29.3175966"></ellipse>
                                <ellipse id="Oval-19" stroke="#F2F6FA" opacity="0.05" cx="122.5" cy="64.5" rx="122.181818" ry="64"></ellipse>
                                <ellipse id="Oval-18" fill="#D8D8D8" filter="url(#filter-1)" cx="118.030405" cy="55.1523605" rx="17.6655405" ry="7.43562232"></ellipse>
                            </g>
                            <g id="盾" transform="translate(88.000000, 0.000000)">
                                <path d="M0.501293071,4.14674071 L8.09235643,0.320968702 C13.3549359,4.68474668 21.4800754,5.96000402 32.467775,4.14674071 C43.9226986,19.5404715 54.7166378,30.125903 64.8495925,35.9030352 C63.9143781,60.061586 63.4467709,72.1408613 63.4467709,72.1408613 C60.6877548,78.1258029 56.5952971,83.2216936 51.1693979,87.4285333 C43.3490992,88.4330479 37.1152248,89.3605377 32.467775,90.2110027 C16.2174959,68.5558802 8.09235643,57.7283189 8.09235643,57.7283189 C2.69745214,45.5986154 -1.13532054e-13,37.3319691 -1.13686838e-13,32.9283801 C-1.13686838e-13,28.524791 0.16709769,18.9309112 0.501293071,4.14674071 Z" id="Path-7" fill="#49566B"></path>
                                <path d="M0.294413921,4.22222222 C10.0046811,8.74692848 19.6251683,9.71745285 29.1558753,7.13379533 C40.2724273,21.7858044 50.4140703,32.0003751 59.5808041,37.7775073 C59.5808041,60.0800692 59.5808041,71.2313501 59.5808041,71.2313501 C58.7789845,78.1862635 55.9238165,83.7671401 51.0153002,87.9739798 C40.7906174,91.7111597 33.5761283,94.0049822 29.3718328,94.8554471 C14.6710879,73.2003246 7.32071539,62.3727634 7.32071539,62.3727634 C2.44023846,50.2430599 1.77258294e-16,41.9764136 0,37.5728245 C0,33.1692355 0.0981379738,22.052368 0.294413921,4.22222222 Z" id="Path-7" fill="#CDDCEA"></path>
                                <path d="M3.32068672,9.63345461 C9.63728146,12.687875 17.5609324,12.9232565 27.0916394,10.3395989 C36.7744172,23.5442825 46.199173,33.0351905 55.3659068,38.8123227 C55.3593782,60.8760164 55.0461301,71.9078633 54.4261623,71.9078633 C54.3416916,75.9037463 52.5823113,79.8723548 49.1480214,83.8136886 C41.0211635,87.0772682 34.8555868,89.1342904 30.6512913,89.9847554 C19.1954421,73.6501728 13.4675175,65.4828815 13.4675175,65.4828815 C6.70296365,52.1060981 3.32068672,43.2159118 3.32068672,38.8123227 C3.32068672,35.9971312 3.24046916,33.1078323 3.32068672,24.8052364 C3.35086047,21.6822225 3.35086047,16.6249619 3.32068672,9.63345461 Z" id="Path-7" fill="#F0F6FF"></path>
                            </g>
                            <g id="钥匙槽" transform="translate(109.000000, 37.000000)">
                                <mask id="mask-3" fill="white">
                                    <use xlink:href="#path-2"></use>
                                </mask>
                                <use id="Path-9" fill="#BACDDC" xlink:href="#path-2"></use>
                                <path d="M4.64950605,10.5340256 C2.72316868,8.27053954 1.76,5.8586651 1.76,3.29840228 C2.03905513,0.694363286 3.41632073,-0.367788492 5.89179681,0.111946949 C9.78464263,1.33227237 12.0737249,4.63016384 12.7590436,10.0056213 C12.7477957,12.2158035 11.6341193,13.3631901 9.41801454,13.4477811 L9.30252267,21.2075598 L8.69935385,21.6836258 L7.70833322,21.6836258 L4.41149238,19.0193945 L4.64950605,10.5340256 Z" id="Path-9" fill="#CDDCEA" mask="url(#mask-3)"></path>
                            </g>
                            <g id="钥匙" transform="translate(62.000000, 48.000000)">
                                <g id="钥匙_shadow">
                                    <polygon id="Path-8" fill="#2E73A9" points="18.5973312 15.2824293 43.3312542 0.427622044 45.1005208 1.46320757 43.3312542 4.17578412 39.8771023 6.15076303 39.8771023 12.615745 38.1725294 16.243463 36.9783276 14.7895108 36.9783276 8.29152881 34.6432077 9.41801983 34.6432077 15.9003824 33.0558098 19.0804532 31.695333 17.1290683 31.695333 11.561812 18.2023677 18.7601498 16.8600476 19.4708105 16.8600476 15.2824293"></polygon>
                                    <mask id="mask-5" fill="white">
                                        <use xlink:href="#path-4"></use>
                                    </mask>
                                    <use id="Combined-Shape" fill="#2E73A9" xlink:href="#path-4"></use>
                                </g>
                                <g transform="translate(1.285950, 1.301587)">
                                    <polygon id="Path-8" fill="#1096FF" points="18.6310176 14.8996005 43.7599041 0 43.7599041 4.17578412 40.3057522 6.15076303 40.3057522 12.615745 36.8801345 14.8996005 36.8801345 8.4304649 35.0718577 9.41801983 35.0718577 15.9003824 31.7190931 17.8977096 31.7190931 11.5097746 18.6310176 18.7601498 17.2886976 19.4708105 17.2886976 15.2824293"></polygon>
                                    <mask id="mask-7" fill="white">
                                        <use xlink:href="#path-6"></use>
                                    </mask>
                                    <use id="Combined-Shape" fill="#1096FF" xlink:href="#path-6"></use>
                                </g>
                            </g>
                        </g>
                    </g>
                </g>
            </g>
        </g>
    </g>
</svg>