<svg width="120" height="120" xmlns="http://www.w3.org/2000/svg" xmlns:xlink="http://www.w3.org/1999/xlink"><defs><circle id="a" cx="42.167" cy="42.167" r="42.167"/><circle id="d" cx="42.167" cy="42.167" r="42.167"/><circle id="f" cx="42.167" cy="42.167" r="42.167"/><circle id="i" cx="42.167" cy="42.167" r="42.167"/><circle id="k" cx="42.167" cy="42.167" r="42.167"/><circle id="p" cx="42.167" cy="42.167" r="42.167"/><circle id="r" cx="42.167" cy="42.167" r="42.167"/><circle id="v" cx="42.167" cy="42.167" r="42.167"/><circle id="y" cx="42.167" cy="42.167" r="42.167"/><circle id="C" cx="42.167" cy="42.167" r="42.167"/><circle id="F" cx="42.167" cy="42.167" r="42.167"/><circle id="I" cx="42.167" cy="42.167" r="42.167"/><circle id="K" cx="42.167" cy="42.167" r="42.167"/><circle id="M" cx="42.167" cy="42.167" r="42.167"/><radialGradient cx="-4.878%" cy="-.248%" fx="-4.878%" fy="-.248%" r="401.327%" gradientTransform="matrix(.26722 0 0 1 -.036 0)" id="w"><stop stop-color="#3E2723" stop-opacity=".2" offset="0%"/><stop stop-color="#3E2723" stop-opacity="0" offset="100%"/></radialGradient><radialGradient cx="-.166%" cy=".104%" fx="-.166%" fy=".104%" r="136.321%" gradientTransform="scale(1 .84752)" id="D"><stop stop-color="#3E2723" stop-opacity=".2" offset="0%"/><stop stop-color="#3E2723" stop-opacity="0" offset="100%"/></radialGradient><radialGradient cx="10.34%" cy="-12.215%" fx="10.34%" fy="-12.215%" r="226.352%" gradientTransform="matrix(1 0 0 .49642 0 -.062)" id="G"><stop stop-color="#263238" stop-opacity=".2" offset="0%"/><stop stop-color="#263238" stop-opacity="0" offset="100%"/></radialGradient><radialGradient cx="14.935%" cy="13.644%" fx="14.935%" fy="13.644%" r="100.424%" id="O"><stop stop-color="#FFF" stop-opacity=".1" offset="0%"/><stop stop-color="#FFF" stop-opacity="0" offset="100%"/></radialGradient><linearGradient x1="4.547%" y1="55.356%" x2="36.948%" y2="42.741%" id="c"><stop stop-color="#A52714" stop-opacity=".6" offset="0%"/><stop stop-color="#A52714" stop-opacity="0" offset="66%"/></linearGradient><linearGradient x1="70.025%" y1="87.773%" x2="41.909%" y2="66.355%" id="h"><stop stop-color="#055524" stop-opacity=".4" offset="0%"/><stop stop-color="#055524" stop-opacity="0" offset="33%"/></linearGradient><linearGradient x1="40.978%" y1="-4.841%" x2="49.247%" y2="45.414%" id="o"><stop stop-color="#EA6100" stop-opacity=".3" offset="0%"/><stop stop-color="#EA6100" stop-opacity="0" offset="66%"/></linearGradient><path id="m" d="M0 76.667h40.14l18.63-18.63V44.083H25.568L0 .23z"/><path id="t" d="M2.396 0l16.603 28.75L.369 61.333h44.194V0z"/><path id="A" d="M.465 0v19.33l18.874 32.42L35.938 23h42.166V0z"/></defs><g fill="none" fill-rule="evenodd"><rect stroke-opacity=".38" stroke="#B8C6D8" width="120" height="120" rx="10"/><g transform="translate(17.833 17.833)"><mask id="b" fill="#fff"><use xlink:href="#a"/></mask><g mask="url(#b)" fill-rule="nonzero"><path fill="#DB4437" d="M6.694 0v51.75h18.874L42.167 23h42.166V0z"/><path fill="url(#c)" d="M.465 0v51.75h18.874L35.938 23h42.166V0z" transform="translate(6.23)"/></g></g><g transform="translate(17.833 17.833)"><mask id="e" fill="#fff"><use xlink:href="#d"/></mask><path fill-opacity=".15" fill="#3E2723" fill-rule="nonzero" mask="url(#e)" d="M26.024 51.582L6.938 18.85l-.278.48 18.947 32.487z"/></g><g transform="translate(17.833 17.833)"><mask id="g" fill="#fff"><use xlink:href="#f"/></mask><g mask="url(#g)" fill-rule="nonzero"><path fill="#0F9D58" d="M0 84.333h40.14l18.63-18.63V51.75H25.568L0 7.897z"/><path fill="url(#h)" d="M0 76.667h40.14l18.63-18.63V44.083H25.568L0 .23z" transform="translate(0 7.667)"/></g></g><g transform="translate(17.833 17.833)"><mask id="j" fill="#fff"><use xlink:href="#i"/></mask><path fill-opacity=".15" fill="#263238" fill-rule="nonzero" mask="url(#j)" d="M58.382 52.387l-.398-.23-18.395 32.176h.55l18.257-31.931z"/></g><g transform="translate(17.833 17.833)"><mask id="l" fill="#fff"><use xlink:href="#k"/></mask><g mask="url(#l)"><g transform="translate(0 7.667)"><mask id="n" fill="#fff"><use xlink:href="#m"/></mask><g fill-rule="nonzero" mask="url(#n)"><path fill="#FFCD40" d="M42.167 15.333l16.603 28.75-18.63 32.584h44.193V15.333z"/><path fill="url(#o)" d="M2.396 0l16.603 28.75L.369 61.333h44.194V0z" transform="translate(39.77 15.333)"/></g></g></g></g><g transform="translate(17.833 17.833)"><mask id="q" fill="#fff"><use xlink:href="#p"/></mask><g mask="url(#q)" fill-rule="nonzero"><path fill="#FFCD40" d="M42.167 23L58.77 51.75 40.14 84.333h44.193V23z"/><path fill="url(#o)" d="M2.396 0l16.603 28.75L.369 61.333h44.194V0z" transform="translate(39.77 23)"/></g></g><g transform="translate(17.833 17.833)"><mask id="s" fill="#fff"><use xlink:href="#r"/></mask><g mask="url(#s)"><g transform="translate(39.77 23)"><mask id="u" fill="#fff"><use xlink:href="#t"/></mask><g fill-rule="nonzero" mask="url(#u)"><path fill="#DB4437" d="M-33.077-23v51.75h18.874L2.396 0h42.166v-23z"/><path fill="url(#c)" d="M.465 0v51.75h18.874L35.938 23h42.166V0z" transform="translate(-33.542 -23)"/></g></g></g></g><g transform="translate(17.833 17.833)"><mask id="x" fill="#fff"><use xlink:href="#v"/></mask><path fill="url(#w)" fill-rule="nonzero" mask="url(#x)" d="M42.167 23v10.039L79.733 23z"/></g><g transform="translate(17.833 17.833)"><mask id="z" fill="#fff"><use xlink:href="#y"/></mask><g mask="url(#z)"><g transform="translate(6.23)"><mask id="B" fill="#fff"><use xlink:href="#A"/></mask><g fill-rule="nonzero" mask="url(#B)"><path fill="#0F9D58" d="M-6.23 84.333h40.14l18.63-18.63V51.75h-33.2L-6.23 7.897z"/><path fill="url(#h)" d="M0 76.667h40.14l18.63-18.63V44.083H25.568L0 .23z" transform="translate(-6.23 7.667)"/></g></g></g></g><g transform="translate(17.833 17.833)"><mask id="E" fill="#fff"><use xlink:href="#C"/></mask><path fill="url(#D)" fill-rule="nonzero" mask="url(#E)" d="M6.694 19.382L34.126 46.81l-8.558 4.94z"/></g><g transform="translate(17.833 17.833)"><mask id="H" fill="#fff"><use xlink:href="#F"/></mask><path fill="url(#G)" fill-rule="nonzero" mask="url(#H)" d="M40.169 84.28l10.043-37.47 8.558 4.94z"/></g><g transform="translate(17.833 17.833)"><mask id="J" fill="#fff"><use xlink:href="#I"/></mask><g mask="url(#J)" fill-rule="nonzero"><g transform="translate(23 23)"><circle fill="#F1F1F1" cx="19.167" cy="19.167" r="19.167"/><circle fill="#4285F4" cx="19.167" cy="19.167" r="15.333"/></g></g></g><g transform="translate(17.833 17.833)"><mask id="L" fill="#fff"><use xlink:href="#K"/></mask><g mask="url(#L)" fill-rule="nonzero"><path d="M42.167 22.52C31.582 22.52 23 31.104 23 41.689v.479C23 31.582 31.582 23 42.167 23h42.166v-.48H42.167z" fill-opacity=".2" fill="#3E2723"/><path d="M58.746 51.75c-3.316 5.721-9.492 9.583-16.58 9.583-7.091 0-13.267-3.862-16.583-9.583h-.02L0 7.897v.479l25.568 43.853h.02c3.315 5.721 9.492 9.584 16.583 9.584 7.087 0 13.264-3.858 16.58-9.584h.024v-.479h-.03z" fill-opacity=".1" fill="#FFF"/><path d="M42.646 23c-.082 0-.158.01-.24.014 10.475.13 18.927 8.65 18.927 19.153 0 10.503-8.452 19.023-18.927 19.152.082 0 .158.014.24.014 10.585 0 19.166-8.582 19.166-19.166C61.813 31.582 53.231 23 42.647 23z" fill="#3E2723" opacity=".1"/><path d="M58.938 52.387a19.105 19.105 0 001.677-15.357 19.17 19.17 0 01.718 5.141c0 3.489-.944 6.747-2.573 9.565l.01.019-18.63 32.583h.556l18.251-31.932-.01-.019z" fill-opacity=".2" fill="#FFF"/></g></g><g transform="translate(17.833 17.833)"><mask id="N" fill="#fff"><use xlink:href="#M"/></mask><g mask="url(#N)" fill-rule="nonzero"><path d="M42.167.48c23.206 0 42.032 18.749 42.162 41.926 0-.081.004-.158.004-.24C84.333 18.88 65.454 0 42.167 0 18.879 0 0 18.88 0 42.167c0 .081.005.158.005.24C.135 19.228 18.96.478 42.167.478z" fill-opacity=".2" fill="#FFF"/><path d="M42.167 83.854c23.206 0 42.032-18.75 42.162-41.927 0 .082.004.158.004.24 0 23.287-18.879 42.166-42.166 42.166C18.879 84.333 0 65.454 0 42.167c0-.082.005-.158.005-.24.13 23.177 18.956 41.927 42.162 41.927z" fill-opacity=".15" fill="#3E2723"/></g></g><circle fill="url(#O)" fill-rule="nonzero" cx="60" cy="60" r="42.167"/><path d="M14 14h92v92H14z"/></g></svg>