<svg width="460" height="313" xmlns="http://www.w3.org/2000/svg" xmlns:xlink="http://www.w3.org/1999/xlink"><defs><linearGradient x1="50%" y1="16.472%" x2="50%" y2="91.431%" id="b"><stop stop-color="#6D726E" offset="0%"/><stop stop-color="#A2ABA1" offset="75.152%"/><stop stop-color="#D1D7CF" offset="100%"/></linearGradient><linearGradient x1="50%" y1="0%" x2="50%" y2="100%" id="d"><stop stop-color="#67786A" offset="0%"/><stop stop-color="#778778" stop-opacity=".452" offset="100%"/></linearGradient><linearGradient x1="50%" y1="0%" x2="50%" y2="137.951%" id="g"><stop stop-color="#9DA1A1" stop-opacity=".298" offset="0%"/><stop stop-color="#D8D8D8" stop-opacity="0" offset="100%"/></linearGradient><linearGradient x1="50%" y1="0%" x2="50%" y2="100%" id="h"><stop stop-color="#2C6C58" offset="0%"/><stop stop-color="#0D2A28" offset="100%"/></linearGradient><linearGradient x1="50%" y1="0%" x2="50%" y2="100%" id="l"><stop stop-color="#54CCB9" offset="0%"/><stop stop-color="#0092A8" offset="100%"/></linearGradient><filter x="1.6%" y="-2.6%" width="96.7%" height="105.1%" filterUnits="objectBoundingBox" id="c"><feOffset dy="-3" in="SourceAlpha" result="shadowOffsetInner1"/><feComposite in="shadowOffsetInner1" in2="SourceAlpha" operator="arithmetic" k2="-1" k3="1" result="shadowInnerInner1"/><feColorMatrix values="0 0 0 0 0.239031964 0 0 0 0 0.265596694 0 0 0 0 0.263825712 0 0 0 1 0" in="shadowInnerInner1" result="shadowMatrixInner1"/><feOffset dy="-4" in="SourceAlpha" result="shadowOffsetInner2"/><feComposite in="shadowOffsetInner2" in2="SourceAlpha" operator="arithmetic" k2="-1" k3="1" result="shadowInnerInner2"/><feColorMatrix values="0 0 0 0 1 0 0 0 0 1 0 0 0 0 1 0 0 0 0.5 0" in="shadowInnerInner2" result="shadowMatrixInner2"/><feMerge><feMergeNode in="shadowMatrixInner1"/><feMergeNode in="shadowMatrixInner2"/></feMerge></filter><filter x="-5.1%" y="-8.7%" width="110.2%" height="117.4%" filterUnits="objectBoundingBox" id="e"><feGaussianBlur stdDeviation="2" in="SourceGraphic"/></filter><filter x="-.5%" y="-.8%" width="101%" height="101.5%" filterUnits="objectBoundingBox" id="j"><feGaussianBlur stdDeviation="1.5" in="SourceAlpha" result="shadowBlurInner1"/><feOffset dy="1" in="shadowBlurInner1" result="shadowOffsetInner1"/><feComposite in="shadowOffsetInner1" in2="SourceAlpha" operator="arithmetic" k2="-1" k3="1" result="shadowInnerInner1"/><feColorMatrix values="0 0 0 0 0.461089939 0 0 0 0 1 0 0 0 0 0.894449707 0 0 0 0.5 0" in="shadowInnerInner1"/></filter><path d="M35.68 0h100.64l8.195 68.084a20 20 0 007.09 13.005l13.992 11.602A3 3 0 01163.682 98H8.318a3 3 0 01-1.915-5.31l13.991-11.6a20 20 0 007.09-13.006L35.682 0z" id="a"/><path d="M362.043 0c12.352 0 22.366 10.013 22.366 22.366v215.268c0 12.353-10.014 22.366-22.366 22.366H22.366C10.013 260 0 249.987 0 237.634V22.366C0 10.013 10.013 0 22.366 0h339.677z" id="i"/><path d="M352.957 0H13.28C5.945 0 0 5.945 0 13.28v215.268c0 7.334 5.945 13.28 13.28 13.28h339.677c7.334 0 13.28-5.946 13.28-13.28V13.28c0-7.335-5.946-13.28-13.28-13.28z" id="k"/></defs><g fill="none" fill-rule="evenodd"><g transform="translate(106 212)"><mask id="f" fill="#fff"><use xlink:href="#a"/></mask><g opacity=".499"><use fill="url(#b)" xlink:href="#a"/><use fill="#000" filter="url(#c)" xlink:href="#a"/><use stroke="#EBEBEB" xlink:href="#a"/></g><path fill="url(#d)" style="mix-blend-mode:multiply" opacity=".332" filter="url(#e)" mask="url(#f)" d="M27 25h118v69H27z"/><rect fill="url(#g)" x="5" y="98" width="162" height="3" rx="1.5"/></g><use fill="url(#h)" xlink:href="#i"/><use fill="#000" filter="url(#j)" xlink:href="#i"/><g transform="translate(9.086 9.306)"><mask id="m" fill="#fff"><use xlink:href="#k"/></mask><use fill="url(#l)" xlink:href="#k"/><g mask="url(#m)"><path d="M458.914 53.094c-19.067 0-34.667 15.6-34.667 34.667 0 19.066 15.6 34.666 34.667 34.666s34.667-15.6 34.667-34.666c0-19.067-15.6-34.667-34.667-34.667zm30.68 39.693l-.173-.173-1.56-1.56-.347-.347c0-.52-.173-.693 0-.866.173-.174-.52-1.04-.693-1.387.693-.693 1.213-1.56 1.213-2.427-.173-1.213-.52-2.426-.867-3.466 0-.694.52-.867.694-1.387.173-.693.52-1.56.693-2.253 1.56 4.333 1.907 9.186 1.04 13.866zm-10.747-28.773c-.346 0 0 .52-.52.347-.173 0-.173 0-.173-.174h-.347c-.346-.173-.52-.52-.866-.52h-.694c-.173 0 0-.173-.346-.346-.347-.174-.174-.174-.174-.174-.52-.173-.866-.693-1.04-1.04 0-.173 0 0 .174-.173-.347-.173-.347 0-.52-.173-.174-.174-.174-.174-.174-.347s-.693-.347-.693-.52c0-.173 0 0 .173-.173h-.346v-.174c.173-.173.346-.173.52-.173 1.733 1.04 3.466 2.08 5.026 3.64 0-.173 0 0 0 0zm-11.093-4.68h-.173l-.174-.173c-.52-.174-.866-.174-1.386-.347-.52-.173-1.907-.173-1.56-.52-.694-.173-1.04-.347-1.56-.52-.174 0-.174.173-.347.173h-.347c-.173 0-.346.174-.693 0-.347-.173-.867-.173-.867-.346 0-.174.52-.174.867-.174h1.733l-.346-.173h.52c.173 0 .346-.173.52-.173.866.173 1.906.346 2.773.52h.347-.347v.173h.173c.174.173.347.347.52.347.347 0 .52 0 .52.173h.347v.173l.347.174s-.174.173-.174.346c-.693-.173-1.213-.346-1.906-.52h-.347c.347.347 1.387.52 1.56.867zm-10.4-2.427h-.693c-.174 0-.52-.173-.694-.173.867 0 1.734-.173 2.6-.173-.346.173-.866.346-1.04.346h-.173zm-1.56 0c0 .174-.693.174-1.04.174-.347 0-.52 0-.867-.174.694-.173 1.214-.173 1.907-.346v.346zm11.96 1.04l1.213.347h-.173c-.347 0-.693-.173-1.04-.347zm-14.213-.866c.52.173 1.04.173 1.56.173v.173c-.347.174-.694.347-1.04.347h-.52c-.174 0 0 .347-.52.173-1.734-.173-1.04 0-1.214 0 .347 0 1.04 0 1.04.174 0 .173-.346 0-.693.173-.173.173-.52.347-.693.52-.52.173-.694.693-.867 1.213v.52c.173 0 .347-.173.52-.173.173 0 .693.693.867.867.346 0 .52-.174.866-.174.347 0 .694.174.867.174.867.173 1.733.346 2.6.693.52 0 .867.173 1.387.173s.693.52.693.867.867.867 1.387 1.213h.693c0-.173.173-.346.347-.52-.347-.346 0-.866-.867-1.213.52 0 1.733-.52 1.733-.867 0-.346.174-.693-.173-.866-.347-.174-.693 0-.867-.347.347 0 .867-.173.694-.52-.174-.347-.694-.347-.52-.52.693-.173 0-.347 0-.52 0-.173.346-.347.693-.347.52 0 .867.174 1.56.347h.52c.52 0 .52.173 1.04.347 0 .346 1.04.346 1.213.52.174.346 0 .866.347.866s.52.52.867.52c.346 0 .346-.173.693-.173s.693-.173.52-.347c-.173-.173.347-.173.347-.346.173 0 .173.173.346.173.174.347.867.52.694.693-.174.174.52.52.693.52.173 0 .173.174.173.347s-.173.173-.173.173c.347.174.693.347 1.04.347 0 .52 1.04.693 1.56.693l.173.174s-1.04.173-1.56.346h.174c.52 0 1.213 0 1.733-.173v.173s0 .174.173.174c.174.173.347.346.347.693s-1.387.173-1.733.52c-.52.52-1.387.173-2.427 0-.693-.173-1.387-.173-1.907 0s-.346.347-.52.52c-.173.173-.866.173-1.04.693.694 0 1.04-.52 1.907-.52.52 0 1.04 0 1.04.347s-.693.347-.867.52h.52c0 .52 1.04 1.04 1.56 1.04.174 0 .694 0 .694.347-.52.173-.867.346-1.387.52-.347.173-.867.52-.867.52-.173 0-.173-.174-.346-.347 0-.347.693-.693 1.213-.693-.347 0-.347 0-.347-.347-.346 0-.346.173-.52.347h-1.04s0 .173.174.173c-.347.347-.52.52-.867.52-.173 0-.347 0-.52.173-.347.347-1.04 0-1.04.694v.173l.173.347.174-.174v.174h-.694c-.52.173-1.213.173-1.56.346h.867-1.04l-.173.174.173.173s-.52.867-.693.867c-.174 0-.174-.174-.174-.174l-.173.174c0 .173.173.173.173.346-.173.347-.346.52-.52.867v-.347s-.173-.52-.173-.693v.173c0 .174.173.52.173.694v.346c0 .174.174 0 .174 0v.174s-.174.173-.347.173c0 .173.173.173.347.173 0 .174-.174.174-.347.174s0 .173 0 .173l.173.173-.173.174s-.347.173-.52.173c-.173 0-.347.173-.347.173-1.04.52-2.253.52-2.253 2.08 0 .694.693.867.693 1.56v.174c0 .173.347.52.347.866 0 .347-.173.867-.52.867-.347 0-.347-.347-.52-.52-.347-.173-.52-.52-.693-.693-.347-.694 0-1.907-1.04-1.907-.174 0-.347.347-.52.347-.52 0-.694-.52-1.214-.52s-.52.173-.52.173l-.173-.173c-.347 0-.867 0-1.213.173h.346c0 .347-.173.52 0 .693-.693.347-1.213-.346-1.733-.346-.173 0-.173.173-.347.173h-.52c-.693 0-1.04.52-1.213.693-.173.174-.347 0-.693.174-.52.173-.867.693-.867 1.213l.173.173c0 .174 0 .174.174.347 0 .347-.174.52-.174.867v2.08c.174.173.347.346.52.693.347.347.347.693 1.04.867.174 0 .174.173.347.173.52 0 .867-.347 1.213-.347.174 0 .347 0 .52.174.174 0 .347-.347.347-.347s.52-.52.52-.867c0-.693.867-.693 1.56-.693h.693v.173s-.346.694-.346 1.04c0 .347-.174.52-.347.694v-.174 1.04c0 .347-.347.347-.347.52v.174c0 .173.174.173.347.173.867 0 1.387-.173 2.253-.173.867 0 .694.346 1.04.52v.346c0 .347 0 .867-.173 1.214v1.386c0 .52.52.694.867.867.346.173.173.52.693.52s.867-.347 1.387-.52c.52-.173.693.693 1.04.867l-.174.173.174-.173h.346v-.174l.174-.173c0-.173.173-.347.346-.347.174 0 .174-.346.174-.52 0-.173.346-.346.693-.52l1.56-.52c.347-.173.347-.346.693-.346.347 0 .174.173.174.173 0 .173-.174.173-.174.173-.173.347-.173.52-.173.867 0 .173 0 .693.347.693.346 0 .173-.346.173-.346s-.347-.347-.173-.694c.173-.346.346-.173.52-.346h.52c0-.174-.52-.174-.347-.347h.347c0 .347.693.52.866.52 0 .173.174.347.174.347h1.213c0 .173.347.173.52.173.173 0 .52 0 .693-.347.174 0 .347 0 .52-.173h.52-.346v.173s.52.347.866.52c.347.174.174.347.347.694h.347c.346.346.52.346.866.866 0 0 .174.174.347.174.173.52.867.52 1.56.52h.52c.173.173.347.173.693.173h.174c.346 0 .693.693 1.04.693 0 .347.173.867.346 1.214 0 .173.347.173.347.346-.52.52-.867 1.04-1.04 1.734 0 .173.173.173.173.173.174 0 .347.173.347.347h.52v.173l.173-.173s.347-.694.694-.694c.346 0 .866.174 1.213.347.173 0 .347 0 .347.173v.52h.173c.173 0 .173-.173.347-.173.173 0 .346.173.693.173l.693-.173c.174 0 .52.173.694.173.173.347.346.52.693.694h.52c.173 0 .347.346.347.693-.174 1.04-.694 2.08-1.387 2.773l-.347.347-.52.52c-.346.347 0 .347 0 .867s-.346 1.213-.346 1.386c0 .174 0 .174-.174.174l-.346.346c0 .174-.174.347-.174.52-.346.347-.346.52-.693.867s-.173.347-.173.347c-.174.346-.52.52-.694.52-.346 0-.52.173-.866.173-.174 0-.174.173-.174.173-.52.52-.866.347-1.213.867-.347.52-.347.347-.52.347-.173 0-.173 0-.173.173s-.174.867-.174 1.213c-.346.174-.52.52-.866.867-.174.173 0-.173-.174.173-.173.347-.866.867-1.213 1.214-.347.346-.693 1.213-1.56 1.386h-1.56s.173.174.347.174c.173 0 0 .173.173.346.173.174.347 0 .173.174-.173.173 0 .173-.173.346l-.52.52a8.45 8.45 0 01-1.213.52c-.347.174-.867 0-1.04.174-.174.173 0 .346-.174.52l-.693.346h-.52c-.173 0-.173 0-.173.174-1.387.346-2.774.693-4.334.866l.174-.346v-.174h-.174c-.173 0-.173.174-.346.174-.174 0 0-.347 0-.52 0-.174.173-.347.173-.52 0-.174.173 0 .173 0s0-.174-.173-.174v-.52c.173-.346.347-.52.52-.866 0-.174.173-.347.173-.347s.174 0 .174-.173c.173-.347.173-.52.346-.867.174-.347 0-.693 0-1.04 0-.347.174-.52.174-.693 0-.52.346-.867.52-1.387v-.173c0-.174.173-.347.173-.52v-.694c0-.173.173-.693.173-1.04v-1.386a2.089 2.089 0 00-.866-.867c-.347 0-.52 0-.867-.173-.173-.174-.347-.347-.693-.347-.52-.173-.867-.347-1.214-.693-.173-.174 0-.347 0-.52 0-.174-.346-.347-.346-.694 0-.346-.347-.866-.347-1.213l-.52-1.04c0 .173-.347.173-.347.173-.173-.173-.173-.346-.173-.52 0-.173-.173-.173-.347-.173a.953.953 0 01-.52-.867c0-.173.174-.52.174-.693.173-.347.693-.347.693-.693-.173-.174-.173 0-.347 0-.173 0-.346-.347-.346-.694.173-.52.173-1.213.173-1.733.693 0 .867-.52 1.04-.867.173-.346.867-.346 1.04-.866l-.173-.174v-.346c0-.174-.174-.347-.174-.52 0-.174.174-.347.174-.52 0-.174-.347-.347-.347-.694v-.173l-.173-.173.173-.174c-.173-.173-.173-.52-.347-.52-.346.174-.52.347-.866.52l.173.174a.373.373 0 01-.347.346c-.346 0-.693-.346-.866-.52-.174-.173-.52 0-.694 0-.173 0-.173 0-.173-.173-.347 0-.347-.347-.347-.52-.346-.173-.52-.347-.866-.52v.173h-.174c-.346-.173-.173-.52-.173-.866-.173-.174-.347-.347-.52-.347-.347-.347-.693-.52-.867-1.04h-.173c-.173 0-.347.173-.52.173-.347 0-.693-.173-1.04-.346-.52-.174-.693 0-1.213-.347-.694-.347-.867-1.213-1.56-1.56h-.174c-.173-.173-.346-.173-.52-.173-.346 0-.52.346-.866.346-.174 0-.347-.173-.52-.173h-.52c-.52-.173-.867-.347-1.214-.693-.173-.174-.346 0-.693 0s-.347-.347-.693-.52c-.347-.174-.52 0-.694-.174l-.173-.173c-.347-.173-.867-.347-1.04-.693-.173 0-.347-.347-.347-.347s.174-.347.174-.52c0-.173-.174-.347-.174-.52-.173-.693-.693-1.387-1.213-1.907-.173-.173-.52-.346-.693-.52-.174-.173 0-.346-.174-.52-.173-.173-.866-.346-.866-.693h-.174l-.693-.693c-.173-.174-.173-.52-.347-.694-.173-.173-.173-.693-.346-.693-.174 0-.694-.173-.867-.347v.174c0 .346.173.693.347 1.04.173.346.346.346.693.52.173.173.347.52.347.693.173.52.52.693.693 1.04 0 .52.347.867.693 1.213.174-.173.347.174.347.347s-.173.347-.173.347c-.174-.174-.174-.347-.347-.52-.347 0-.52-.52-.867-.694-.346-.173-.173 0-.173-.173v-.52c0-.173-.347-.52-.52-.693-.173-.174-.867 0-1.04-.347.173 0 .52 0 .347-.173-.174-.347-.52-.694-1.04-1.04-.174-.174-.174-.694-.347-.867-.173-.347-.347-.52-.52-.867v-.173c-.52-.52-1.213-1.04-1.907-1.04-.173 0-.173-.347-.173-.347-.173-.693-.693-.346-.52-1.04-.347 0-.693-.866-1.04-1.386 0-.174.173-.347.173-.347-.173-.347-.173-.693-.173-1.04v-.693c5.2-6.934 12.48-11.614 20.627-13zm-55.294 158.946c-19.066 0-34.666 15.6-34.666 34.667s15.6 34.667 34.666 34.667c19.067 0 34.667-15.6 34.667-34.667s-15.6-34.667-34.667-34.667zm30.68 39.694l-.173-.174-1.56-1.56-.347-.346c0-.52-.173-.694 0-.867.174-.173-.52-1.04-.693-1.387.693-.693 1.213-1.56 1.213-2.426-.173-1.214-.52-2.427-.866-3.467 0-.693.52-.867.693-1.387.173-.693.52-1.56.693-2.253 1.56 4.333 1.907 9.187 1.04 13.867zm-10.746-28.774c-.347 0 0 .52-.52.347-.174 0-.174 0-.174-.173h-.346c-.347-.174-.52-.52-.867-.52h-.693c-.174 0 0-.174-.347-.347s-.173-.173-.173-.173c-.52-.174-.867-.694-1.04-1.04 0-.174 0 0 .173-.174-.347-.173-.347 0-.52-.173-.173-.173-.173-.173-.173-.347 0-.173-.694-.346-.694-.52 0-.173 0 0 .174-.173h-.347v-.173c.173-.174.347-.174.52-.174 1.733 1.04 3.467 2.08 5.027 3.64 0-.173 0 0 0 0zm-11.094-4.68h-.173l-.173-.173c-.52-.173-.867-.173-1.387-.347-.52-.173-1.907-.173-1.56-.52-.693-.173-1.04-.346-1.56-.52-.173 0-.173.174-.347.174h-.346c-.174 0-.347.173-.694 0-.346-.174-.866-.174-.866-.347s.52-.173.866-.173h1.734l-.347-.174h.52c.173 0 .347-.173.52-.173.867.173 1.907.347 2.773.52h.347-.347v.173h.174c.173.174.346.347.52.347.346 0 .52 0 .52.173h.346v.174l.347.173s-.173.173-.173.347c-.694-.174-1.214-.347-1.907-.52h-.347c.347.346 1.387.52 1.56.866zm-10.4-2.426h-.693c-.173 0-.52-.174-.693-.174.866 0 1.733-.173 2.6-.173-.347.173-.867.347-1.04.347h-.174zm-1.56 0c0 .173-.693.173-1.04.173-.346 0-.52 0-.866-.173.693-.174 1.213-.174 1.906-.347v.347zm11.96 1.04l1.214.346h-.174c-.346 0-.693-.173-1.04-.346zm-14.213-.867c.52.173 1.04.173 1.56.173v.174c-.347.173-.693.346-1.04.346h-.52c-.173 0 0 .347-.52.174-1.733-.174-1.04 0-1.213 0 .346 0 1.04 0 1.04.173s-.347 0-.694.173c-.173.174-.52.347-.693.52-.52.174-.693.694-.867 1.214v.52c.174 0 .347-.174.52-.174.174 0 .694.694.867.867.347 0 .52-.173.867-.173.346 0 .693.173.866.173.867.173 1.734.347 2.6.693.52 0 .867.174 1.387.174s.693.52.693.866c0 .347.867.867 1.387 1.214h.693c0-.174.174-.347.347-.52-.347-.347 0-.867-.867-1.214.52 0 1.734-.52 1.734-.866 0-.347.173-.694-.174-.867-.346-.173-.693 0-.866-.347.346 0 .866-.173.693-.52-.173-.346-.693-.346-.52-.52.693-.173 0-.346 0-.52 0-.173.347-.346.693-.346.52 0 .867.173 1.56.346h.52c.52 0 .52.174 1.04.347 0 .347 1.04.347 1.214.52.173.347 0 .867.346.867.347 0 .52.52.867.52s.347-.174.693-.174c.347 0 .694-.173.52-.346-.173-.174.347-.174.347-.347.173 0 .173.173.347.173.173.347.866.52.693.694-.173.173.52.52.693.52.174 0 .174.173.174.346 0 .174-.174.174-.174.174.347.173.694.346 1.04.346 0 .52 1.04.694 1.56.694l.174.173s-1.04.173-1.56.347h.173c.52 0 1.213 0 1.733-.174v.174s0 .173.174.173c.173.173.346.347.346.693 0 .347-1.386.174-1.733.52-.52.52-1.387.174-2.427 0-.693-.173-1.386-.173-1.906 0-.52.174-.347.347-.52.52-.174.174-.867.174-1.04.694.693 0 1.04-.52 1.906-.52.52 0 1.04 0 1.04.346 0 .347-.693.347-.866.52h.52c0 .52 1.04 1.04 1.56 1.04.173 0 .693 0 .693.347-.52.173-.867.347-1.387.52-.346.173-.866.52-.866.52-.174 0-.174-.173-.347-.347 0-.346.693-.693 1.213-.693-.346 0-.346 0-.346-.347-.347 0-.347.174-.52.347h-1.04s0 .173.173.173c-.347.347-.52.52-.867.52-.173 0-.346 0-.52.174-.346.346-1.04 0-1.04.693v.173l.174.347.173-.173v.173h-.693c-.52.173-1.214.173-1.56.347h.866-1.04l-.173.173.173.173s-.52.867-.693.867c-.173 0-.173-.173-.173-.173l-.174.173c0 .173.174.173.174.347-.174.346-.347.52-.52.866v-.346s-.174-.52-.174-.694v.174c0 .173.174.52.174.693v.347c0 .173.173 0 .173 0v.173s-.173.173-.347.173c0 .174.174.174.347.174 0 .173-.173.173-.347.173-.173 0 0 .173 0 .173l.174.174-.174.173s-.346.173-.52.173c-.173 0-.346.174-.346.174-1.04.52-2.254.52-2.254 2.08 0 .693.694.866.694 1.56v.173c0 .173.346.52.346.867 0 .346-.173.866-.52.866-.346 0-.346-.346-.52-.52-.346-.173-.52-.52-.693-.693-.347-.693 0-1.907-1.04-1.907-.173 0-.347.347-.52.347-.52 0-.693-.52-1.213-.52-.52 0-.52.173-.52.173l-.174-.173c-.346 0-.866 0-1.213.173h.347c0 .347-.174.52 0 .694-.694.346-1.214-.347-1.734-.347-.173 0-.173.173-.346.173h-.52c-.694 0-1.04.52-1.214.694-.173.173-.346 0-.693.173-.52.173-.867.693-.867 1.213l.174.174c0 .173 0 .173.173.346 0 .347-.173.52-.173.867v2.08c.173.173.346.347.52.693.346.347.346.694 1.04.867.173 0 .173.173.346.173.52 0 .867-.346 1.214-.346.173 0 .346 0 .52.173.173 0 .346-.347.346-.347s.52-.52.52-.866c0-.694.867-.694 1.56-.694h.694v.174s-.347.693-.347 1.04c0 .346-.173.52-.347.693v-.173 1.04c0 .346-.346.346-.346.52v.173c0 .173.173.173.346.173.867 0 1.387-.173 2.254-.173.866 0 .693.347 1.04.52v.347c0 .346 0 .866-.174 1.213v1.387c0 .52.52.693.867.866.347.174.173.52.693.52s.867-.346 1.387-.52c.52-.173.693.694 1.04.867l-.173.173.173-.173h.347v-.173l.173-.174c0-.173.173-.346.347-.346.173 0 .173-.347.173-.52 0-.174.347-.347.693-.52l1.56-.52c.347-.174.347-.347.694-.347.346 0 .173.173.173.173 0 .174-.173.174-.173.174-.174.346-.174.52-.174.866 0 .174 0 .694.347.694s.173-.347.173-.347-.346-.347-.173-.693c.173-.347.347-.174.52-.347h.52c0-.173-.52-.173-.347-.347h.347c0 .347.693.52.867.52 0 .174.173.347.173.347h1.213c0 .173.347.173.52.173.174 0 .52 0 .694-.346.173 0 .346 0 .52-.174h.52-.347v.174s.52.346.867.52c.346.173.173.346.346.693h.347c.347.347.52.347.867.867 0 0 .173.173.346.173.174.52.867.52 1.56.52h.52c.174.173.347.173.694.173h.173c.347 0 .693.694 1.04.694 0 .346.173.866.347 1.213 0 .173.346.173.346.347-.52.52-.866 1.04-1.04 1.733 0 .173.174.173.174.173.173 0 .346.174.346.347h.52v.173l.174-.173s.346-.693.693-.693.867.173 1.213.346c.174 0 .347 0 .347.174v.52h.173c.174 0 .174-.174.347-.174s.347.174.693.174l.694-.174c.173 0 .52.174.693.174.173.346.347.52.693.693h.52c.174 0 .347.347.347.693-.173 1.04-.693 2.08-1.387 2.774l-.346.346-.52.52c-.347.347 0 .347 0 .867s-.347 1.213-.347 1.387c0 .173 0 .173-.173.173l-.347.347c0 .173-.173.346-.173.52-.347.346-.347.52-.694.866-.346.347-.173.347-.173.347-.173.347-.52.52-.693.52-.347 0-.52.173-.867.173-.173 0-.173.174-.173.174-.52.52-.867.346-1.214.866-.346.52-.346.347-.52.347-.173 0-.173 0-.173.173 0 .174-.173.867-.173 1.214-.347.173-.52.52-.867.866-.173.174 0-.173-.173.174-.174.346-.867.866-1.214 1.213-.346.347-.693 1.213-1.56 1.387h-1.56s.174.173.347.173 0 .173.173.347c.174.173.347 0 .174.173-.174.173 0 .173-.174.347l-.52.52a8.45 8.45 0 01-1.213.52c-.347.173-.867 0-1.04.173-.173.173 0 .347-.173.52l-.694.347h-.52c-.173 0-.173 0-.173.173-1.387.347-2.773.693-4.333.867l.173-.347v-.173h-.173c-.174 0-.174.173-.347.173s0-.347 0-.52c0-.173.173-.347.173-.52 0-.173.174 0 .174 0s0-.173-.174-.173v-.52c.174-.347.347-.52.52-.867 0-.173.174-.347.174-.347s.173 0 .173-.173c.173-.347.173-.52.347-.867.173-.346 0-.693 0-1.04 0-.346.173-.52.173-.693 0-.52.347-.867.52-1.387v-.173c0-.173.173-.347.173-.52v-.693c0-.174.174-.694.174-1.04v-1.387a2.089 2.089 0 00-.867-.867c-.347 0-.52 0-.867-.173-.173-.173-.346-.347-.693-.347-.52-.173-.867-.346-1.213-.693-.174-.173 0-.347 0-.52 0-.173-.347-.347-.347-.693 0-.347-.347-.867-.347-1.214l-.52-1.04c0 .174-.346.174-.346.174-.174-.174-.174-.347-.174-.52 0-.174-.173-.174-.346-.174a.953.953 0 01-.52-.866c0-.174.173-.52.173-.694.173-.346.693-.346.693-.693-.173-.173-.173 0-.346 0-.174 0-.347-.347-.347-.693.173-.52.173-1.214.173-1.734.694 0 .867-.52 1.04-.866.174-.347.867-.347 1.04-.867l-.173-.173v-.347c0-.173-.173-.347-.173-.52 0-.173.173-.347.173-.52 0-.173-.347-.347-.347-.693v-.174l-.173-.173.173-.173c-.173-.174-.173-.52-.346-.52-.347.173-.52.346-.867.52l.173.173a.373.373 0 01-.346.347c-.347 0-.694-.347-.867-.52-.173-.174-.52 0-.693 0-.174 0-.174 0-.174-.174-.346 0-.346-.346-.346-.52-.347-.173-.52-.346-.867-.52v.174h-.173c-.347-.174-.174-.52-.174-.867-.173-.173-.346-.347-.52-.347-.346-.346-.693-.52-.866-1.04h-.174c-.173 0-.346.174-.52.174-.346 0-.693-.174-1.04-.347-.52-.173-.693 0-1.213-.347-.693-.346-.867-1.213-1.56-1.56h-.173c-.174-.173-.347-.173-.52-.173-.347 0-.52.347-.867.347-.173 0-.347-.174-.52-.174h-.52c-.52-.173-.867-.346-1.213-.693-.174-.173-.347 0-.694 0-.346 0-.346-.347-.693-.52-.347-.173-.52 0-.693-.173l-.174-.174c-.346-.173-.866-.346-1.04-.693-.173 0-.346-.347-.346-.347s.173-.346.173-.52c0-.173-.173-.346-.173-.52-.174-.693-.694-1.386-1.214-1.906-.173-.174-.52-.347-.693-.52-.173-.174 0-.347-.173-.52-.174-.174-.867-.347-.867-.694h-.173l-.694-.693c-.173-.173-.173-.52-.346-.693-.174-.174-.174-.694-.347-.694s-.693-.173-.867-.346v.173c0 .347.174.693.347 1.04.173.347.347.347.693.52.174.173.347.52.347.693.173.52.52.694.693 1.04 0 .52.347.867.694 1.214.173-.174.346.173.346.346 0 .174-.173.347-.173.347-.173-.173-.173-.347-.347-.52-.346 0-.52-.52-.866-.693-.347-.174-.174 0-.174-.174v-.52c0-.173-.346-.52-.52-.693-.173-.173-.866 0-1.04-.347.174 0 .52 0 .347-.173-.173-.347-.52-.693-1.04-1.04-.173-.173-.173-.693-.347-.867-.173-.346-.346-.52-.52-.866v-.174c-.52-.52-1.213-1.04-1.906-1.04-.174 0-.174-.346-.174-.346-.173-.694-.693-.347-.52-1.04-.346 0-.693-.867-1.04-1.387 0-.173.174-.347.174-.347-.174-.346-.174-.693-.174-1.04v-.693c5.2-6.933 12.48-11.613 20.627-13z" fill="#000" fill-rule="nonzero"/></g><path fill="#FFF" opacity=".115" mask="url(#m)" d="M0-37.91h251.827L0 293.51z"/></g><g fill-rule="nonzero"><path d="M455.35 168.473c-1.328.074-2.582.074-3.91.074-33.359 0-48.045-14.953-48.119-15.101-1.697-1.85-4.576-1.925-6.42-.222l-.222.222c-.148.148-15.646 16.286-52.03 15.027-2.509-.074-4.575 1.85-4.649 4.368v63.367c0 17.766 6.052 43.675 58.376 63.514a4.89 4.89 0 003.248 0C453.948 279.883 460 253.974 460 236.208v-63.22a4.48 4.48 0 00-4.502-4.515h-.147z" fill="#1BC9A2"/><path d="M398.584 186.641l-26.96 28.24c-1.2 1.24-.32 3.32 1.4 3.32h13.28c1.08 0 1.96.88 1.96 1.96v17.24c0 1.08.88 1.96 1.96 1.96h19.52c1.08 0 1.96-.88 1.96-1.96v-17.24c0-1.08.88-1.96 1.96-1.96h13.28c1.72 0 2.6-2.04 1.4-3.32l-26.92-28.28c-.8-.8-2.08-.8-2.84.04zm-8.36 55.84h19.52c1.08 0 1.96.88 1.96 1.96s-.88 1.96-1.96 1.96h-19.52c-1.08 0-1.96-.88-1.96-1.96s.88-1.96 1.96-1.96zm0 7.04h19.52c1.08 0 1.96.88 1.96 1.96s-.88 1.96-1.96 1.96h-19.52c-1.08 0-1.96-.88-1.96-1.96s.88-1.96 1.96-1.96z" fill="#FFF"/></g><path d="M192 75c-30.25 0-55 24.75-55 55s24.75 55 55 55 55-24.75 55-55-24.75-55-55-55zm48.283 63l-.268-.275-2.409-2.475-.535-.55c0-.825-.268-1.1 0-1.375.267-.275-.803-1.65-1.071-2.2 1.07-1.1 1.874-2.475 1.874-3.85-.268-1.925-.803-3.85-1.339-5.5 0-1.1.803-1.375 1.071-2.2.268-1.1.803-2.475 1.07-3.575 2.41 6.875 2.945 14.575 1.607 22zM224 92.43c-.563 0 0 .776-.844.517-.281 0-.281 0-.281-.258h-.563c-.562-.259-.843-.776-1.406-.776h-1.125c-.281 0 0-.259-.562-.517-.563-.259-.281-.259-.281-.259-.844-.258-1.407-1.034-1.688-1.551 0-.259 0 0 .281-.259-.562-.258-.562 0-.844-.258-.28-.259-.28-.259-.28-.518 0-.258-1.126-.517-1.126-.775 0-.259 0 0 .281-.259H215v-.258c.281-.259.563-.259.844-.259 2.812 1.551 5.625 3.103 8.156 5.43 0-.258 0 0 0 0zM206.587 85h-.283l-.282-.308c-.848-.307-1.413-.307-2.261-.615-.848-.308-3.109-.308-2.544-.923-1.13-.308-1.695-.616-2.543-.923-.283 0-.283.307-.565.307h-.566c-.282 0-.565.308-1.13 0-.565-.307-1.413-.307-1.413-.615s.848-.308 1.413-.308h2.826l-.565-.307h.848c.282 0 .565-.308.848-.308 1.413.308 3.108.615 4.521.923h.566-.566v.308h.283c.283.307.565.615.848.615.565 0 .848 0 .848.308h.565v.308l.565.307s-.283.308-.283.616c-1.13-.308-1.978-.616-3.108-.923h-.566c.566.615 2.261.923 2.544 1.538zm-17.454-4h-1.066c-.267 0-.8-.5-1.067-.5 1.333 0 2.667-.5 4-.5-.533.5-1.333 1-1.6 1h-.267zM187 80.667c0 .333-1.09.333-1.636.333-.546 0-.819 0-1.364-.333 1.09-.334 1.91-.334 3-.667v.667zM206 82l2 1h-.286c-.571 0-1.143-.5-1.714-1zm-22.295-1c.825.275 1.65.275 2.474.275v.275c-.55.274-1.1.55-1.65.55h-.824c-.275 0 0 .549-.824.274-2.749-.275-1.65 0-1.924 0 .55 0 1.649 0 1.649.275s-.55 0-1.1.275c-.274.274-.824.55-1.099.824-.824.275-1.1 1.099-1.374 1.923v.825c.275 0 .55-.275.825-.275.274 0 1.099 1.1 1.374 1.374.55 0 .824-.275 1.374-.275.55 0 1.1.275 1.374.275 1.374.275 2.748.55 4.123 1.1.824 0 1.374.274 2.198.274.825 0 1.1.824 1.1 1.374 0 .55 1.374 1.374 2.198 1.923h1.1c0-.274.275-.55.55-.824-.55-.55 0-1.374-1.375-1.924.825 0 2.749-.824 2.749-1.374 0-.55.274-1.099-.275-1.373-.55-.275-1.1 0-1.374-.55.55 0 1.374-.275 1.099-.824-.275-.55-1.1-.55-.825-.825 1.1-.275 0-.55 0-.824 0-.275.55-.55 1.1-.55.824 0 1.374.275 2.473.55h.825c.824 0 .824.275 1.649.55 0 .549 1.649.549 1.924.824.274.55 0 1.374.55 1.374.549 0 .824.824 1.373.824.55 0 .55-.275 1.1-.275s1.1-.274.824-.55c-.275-.274.55-.274.55-.549.275 0 .275.275.55.275.274.55 1.374.824 1.099 1.1-.275.274.824.823 1.1.823.274 0 .274.275.274.55s-.275.275-.275.275c.55.275 1.1.55 1.65.55 0 .824 1.648 1.099 2.473 1.099l.275.274s-1.65.275-2.474.55h.275c.824 0 1.924 0 2.748-.275v.275s0 .275.275.275c.275.275.55.55.55 1.099 0 .55-2.199.275-2.749.824-.824.825-2.198.275-3.847 0-1.1-.275-2.199-.275-3.023 0-.825.275-.55.55-.825.825-.275.274-1.374.274-1.649 1.099 1.1 0 1.65-.825 3.023-.825.825 0 1.65 0 1.65.55s-1.1.55-1.375.824h.825c0 .825 1.649 1.649 2.473 1.649.275 0 1.1 0 1.1.55-.825.274-1.375.55-2.2.824-.549.275-1.373.824-1.373.824-.275 0-.275-.274-.55-.55 0-.549 1.1-1.098 1.924-1.098-.55 0-.55 0-.55-.55-.55 0-.55.275-.824.55h-1.65s0 .274.275.274c-.55.55-.824.825-1.374.825-.275 0-.55 0-.824.275-.55.55-1.65 0-1.65 1.099v.274l.276.55.274-.275v.275h-1.099c-.824.275-1.924.275-2.473.55h1.374-1.65l-.274.274.275.275s-.825 1.374-1.1 1.374c-.274 0-.274-.275-.274-.275l-.275.275c0 .275.275.275.275.55-.275.55-.55.824-.825 1.374v-.55s-.275-.824-.275-1.1v.276c0 .275.275.824.275 1.099v.55c0 .274.275 0 .275 0v.274s-.275.275-.55.275c0 .275.275.275.55.275 0 .275-.275.275-.55.275s0 .274 0 .274l.275.275-.275.275s-.55.275-.824.275c-.275 0-.55.275-.55.275-1.649.824-3.573.824-3.573 3.297 0 1.1 1.1 1.374 1.1 2.473v.275c0 .275.55.824.55 1.374 0 .55-.276 1.374-.825 1.374-.55 0-.55-.55-.825-.825-.55-.274-.824-.824-1.1-1.099-.549-1.099 0-3.022-1.648-3.022-.275 0-.55.55-.825.55-.824 0-1.099-.825-1.924-.825-.824 0-.824.275-.824.275l-.275-.275c-.55 0-1.374 0-1.924.275h.55c0 .55-.275.824 0 1.099-1.1.55-1.924-.55-2.748-.55-.275 0-.275.275-.55.275h-.825c-1.099 0-1.649.824-1.923 1.1-.275.274-.55 0-1.1.274-.824.275-1.374 1.099-1.374 1.923l.275.275c0 .275 0 .275.275.55 0 .55-.275.824-.275 1.374v3.297c.275.275.55.55.824 1.1.55.549.55 1.098 1.65 1.373.274 0 .274.275.55.275.824 0 1.373-.55 1.923-.55.275 0 .55 0 .824.275.275 0 .55-.55.55-.55s.825-.824.825-1.373c0-1.1 1.374-1.1 2.473-1.1h1.1v.275s-.55 1.1-.55 1.65c0 .549-.275.823-.55 1.098v-.275 1.65c0 .549-.55.549-.55.824v.274c0 .275.275.275.55.275 1.374 0 2.199-.275 3.573-.275s1.1.55 1.649.825v.55c0 .549 0 1.373-.275 1.923v2.198c0 .824.825 1.1 1.374 1.374.55.275.275.824 1.1.824.824 0 1.374-.55 2.198-.824.825-.275 1.1 1.1 1.65 1.374l-.275.275.274-.275h.55v-.275l.275-.275c0-.274.275-.55.55-.55.274 0 .274-.549.274-.824 0-.274.55-.55 1.1-.824l2.473-.824c.55-.275.55-.55 1.1-.55s.274.275.274.275c0 .275-.274.275-.274.275-.275.55-.275.824-.275 1.374 0 .274 0 1.099.55 1.099.549 0 .274-.55.274-.55s-.55-.55-.275-1.099c.275-.55.55-.275.825-.55h.824c0-.274-.824-.274-.55-.55h.55c0 .55 1.1.825 1.375.825 0 .275.274.55.274.55h1.924c0 .275.55.275.825.275.275 0 .824 0 1.1-.55.274 0 .549 0 .824-.275h.824-.55v.275s.825.55 1.375.824c.55.275.274.55.55 1.1h.549c.55.55.824.55 1.374 1.374 0 0 .275.274.55.274.275.825 1.374.825 2.473.825h.825c.275.274.55.274 1.1.274h.274c.55 0 1.1 1.1 1.649 1.1 0 .55.275 1.374.55 1.923 0 .275.55.275.55.55-.825.824-1.375 1.648-1.65 2.748 0 .274.275.274.275.274.275 0 .55.275.55.55h.824v.275l.275-.275s.55-1.1 1.1-1.1 1.374.276 1.923.55c.275 0 .55 0 .55.275v.824h.275c.275 0 .275-.274.55-.274.274 0 .55.274 1.099.274l1.1-.274c.274 0 .824.274 1.098.274.275.55.55.825 1.1 1.1h.824c.275 0 .55.55.55 1.099-.275 1.649-1.1 3.297-2.199 4.396l-.55.55-.824.824c-.55.55 0 .55 0 1.374 0 .825-.55 1.924-.55 2.199 0 .274 0 .274-.274.274l-.55.55c0 .275-.275.55-.275.824-.55.55-.55.825-1.1 1.374-.549.55-.274.55-.274.55-.275.55-.825.824-1.1.824-.549 0-.824.275-1.374.275-.274 0-.274.275-.274.275-.825.824-1.375.55-1.924 1.374-.55.824-.55.55-.825.55-.275 0-.275 0-.275.274 0 .275-.274 1.374-.274 1.924-.55.274-.825.824-1.375 1.373-.274.275 0-.274-.274.275-.275.55-1.375 1.374-1.924 1.924-.55.55-1.1 1.923-2.474 2.198h-2.473s.275.275.55.275c.274 0 0 .275.274.55.275.274.55 0 .275.274-.275.275 0 .275-.275.55l-.824.824c-.55.275-1.1.55-1.924.825-.55.274-1.374 0-1.65.274-.274.275 0 .55-.274.825l-1.1.55h-.824c-.275 0-.275 0-.275.274-2.198.55-4.397 1.1-6.87 1.374l.274-.55v-.274h-.274c-.275 0-.275.274-.55.274s0-.55 0-.824c0-.275.275-.55.275-.824 0-.275.275 0 .275 0s0-.275-.275-.275v-.824c.275-.55.55-.825.824-1.374 0-.275.275-.55.275-.55s.275 0 .275-.275c.275-.55.275-.824.55-1.374.274-.55 0-1.099 0-1.648 0-.55.274-.825.274-1.1 0-.824.55-1.374.825-2.198v-.275c0-.274.275-.55.275-.824v-1.1c0-.274.275-1.098.275-1.648v-2.198a3.312 3.312 0 00-1.375-1.374c-.55 0-.824 0-1.374-.275-.275-.275-.55-.55-1.1-.55-.824-.274-1.373-.55-1.923-1.099-.275-.274 0-.55 0-.824 0-.275-.55-.55-.55-1.1 0-.549-.55-1.373-.55-1.923l-.824-1.648c0 .274-.55.274-.55.274-.274-.274-.274-.55-.274-.824 0-.275-.275-.275-.55-.275-.55-.275-.824-.824-.824-1.374 0-.274.274-.824.274-1.099.275-.55 1.1-.55 1.1-1.099-.275-.275-.275 0-.55 0s-.55-.55-.55-1.1c.275-.824.275-1.923.275-2.747 1.1 0 1.374-.824 1.65-1.374.274-.55 1.373-.55 1.648-1.374l-.275-.275v-.55c0-.274-.274-.549-.274-.824 0-.274.274-.55.274-.824 0-.275-.55-.55-.55-1.1v-.274l-.274-.275.275-.274c-.275-.275-.275-.825-.55-.825-.55.275-.824.55-1.374.825l.275.274c0 .275-.275.55-.55.55-.55 0-1.1-.55-1.374-.824-.275-.275-.825 0-1.1 0-.274 0-.274 0-.274-.275-.55 0-.55-.55-.55-.825-.55-.274-.825-.55-1.374-.824v.275h-.275c-.55-.275-.275-.825-.275-1.374-.275-.275-.55-.55-.824-.55-.55-.55-1.1-.824-1.375-1.648h-.274c-.275 0-.55.274-.825.274-.55 0-1.1-.274-1.649-.55-.824-.274-1.1 0-1.924-.549-1.099-.55-1.374-1.923-2.473-2.473h-.275c-.275-.275-.55-.275-.825-.275-.55 0-.824.55-1.374.55-.275 0-.55-.275-.824-.275h-.825c-.824-.275-1.374-.55-1.924-1.1-.274-.274-.55 0-1.099 0-.55 0-.55-.549-1.1-.823-.549-.275-.824 0-1.099-.275l-.274-.275c-.55-.275-1.375-.55-1.65-1.1-.274 0-.55-.549-.55-.549s.276-.55.276-.824c0-.275-.275-.55-.275-.824-.275-1.1-1.1-2.199-1.924-3.023-.275-.275-.824-.55-1.1-.824-.274-.275 0-.55-.274-.825-.275-.275-1.374-.55-1.374-1.099h-.275l-1.1-1.1c-.274-.274-.274-.823-.55-1.098-.274-.275-.274-1.1-.549-1.1s-1.1-.274-1.374-.549v.275c0 .55.275 1.099.55 1.649s.55.55 1.099.824c.275.275.55.824.55 1.099.275.824.824 1.1 1.099 1.649 0 .824.55 1.374 1.1 1.923.274-.275.55.275.55.55s-.276.55-.276.55c-.275-.275-.275-.55-.55-.825-.55 0-.824-.824-1.374-1.1-.55-.274-.274 0-.274-.274v-.824c0-.275-.55-.825-.825-1.1-.275-.274-1.374 0-1.649-.549.275 0 .825 0 .55-.275-.275-.55-.825-1.099-1.65-1.648-.274-.275-.274-1.1-.549-1.374-.275-.55-.55-.825-.824-1.374v-.275c-.825-.825-1.924-1.649-3.024-1.649-.274 0-.274-.55-.274-.55-.275-1.099-1.1-.549-.825-1.648-.55 0-1.1-1.374-1.649-2.198 0-.275.275-.55.275-.55-.275-.55-.275-1.1-.275-1.649v-1.099C159.245 90.618 170.788 83.2 183.705 81z" fill="#FFF" fill-rule="nonzero" opacity=".606"/><path d="M141.735 148.519c-12.11 11.116-18.26 20.695-15.352 25.731 5.385 9.327 39.8-.461 76.867-21.863 37.068-21.4 62.752-46.31 57.367-55.637-2.742-4.75-13.012-4.542-27.327-.369" stroke="#FFF" stroke-width="7" opacity=".802"/></g></svg>