<svg width="120" height="120" xmlns="http://www.w3.org/2000/svg"><defs><radialGradient cx="87.589%" cy="-12.959%" fx="87.589%" fy="-12.959%" r="128.455%" gradientTransform="matrix(.81242 0 0 1 .164 0)" id="b"><stop stop-color="#FFBD4F" offset="12.9%"/><stop stop-color="#FFAC31" offset="18.6%"/><stop stop-color="#FF9D17" offset="24.7%"/><stop stop-color="#FF980E" offset="28.3%"/><stop stop-color="#FF563B" offset="40.3%"/><stop stop-color="#FF3750" offset="46.7%"/><stop stop-color="#F5156C" offset="71%"/><stop stop-color="#EB0878" offset="78.2%"/><stop stop-color="#E50080" offset="86%"/></radialGradient><radialGradient cx="49.455%" cy="39.557%" fx="49.455%" fy="39.557%" r="128.455%" gradientTransform="matrix(.81242 0 0 1 .093 0)" id="c"><stop stop-color="#960E18" offset="30%"/><stop stop-color="#B11927" stop-opacity=".74" offset="35.1%"/><stop stop-color="#DB293D" stop-opacity=".343" offset="43.5%"/><stop stop-color="#F5334B" stop-opacity=".094" offset="49.7%"/><stop stop-color="#FF3750" stop-opacity="0" offset="53%"/></radialGradient><radialGradient cx="56.997%" cy="-29.965%" fx="56.997%" fy="-29.965%" r="315.038%" gradientTransform="matrix(1 0 0 .58872 0 -.123)" id="d"><stop stop-color="#FFF44F" offset="13.2%"/><stop stop-color="#FFDC3E" offset="25.2%"/><stop stop-color="#FF9D12" offset="50.6%"/><stop stop-color="#FF980E" offset="52.6%"/></radialGradient><radialGradient cx="23.219%" cy="110.079%" fx="23.219%" fy="110.079%" r="111.769%" gradientTransform="matrix(1 0 0 .91264 0 .096)" id="e"><stop stop-color="#3A8EE6" offset="35.3%"/><stop stop-color="#5C79F0" offset="47.2%"/><stop stop-color="#9059FF" offset="66.9%"/><stop stop-color="#C139E6" offset="100%"/></radialGradient><radialGradient cx="62.011%" cy="36.562%" fx="62.011%" fy="36.562%" r="59.259%" gradientTransform="scale(1 .91264) rotate(-13.592 .767 .383)" id="f"><stop stop-color="#9059FF" stop-opacity="0" offset="20.6%"/><stop stop-color="#8C4FF3" stop-opacity=".064" offset="27.8%"/><stop stop-color="#7716A8" stop-opacity=".45" offset="74.7%"/><stop stop-color="#6E008B" stop-opacity=".6" offset="97.5%"/></radialGradient><radialGradient cx="221.811%" cy="-103.337%" fx="221.811%" fy="-103.337%" r="293.178%" gradientTransform="matrix(1 0 0 .99368 0 -.007)" id="g"><stop stop-color="#FFE226" offset="0%"/><stop stop-color="#FFDB27" offset="12.1%"/><stop stop-color="#FFC82A" offset="29.5%"/><stop stop-color="#FFA930" offset="50.2%"/><stop stop-color="#FF7E37" offset="73.2%"/><stop stop-color="#FF7139" offset="79.2%"/></radialGradient><radialGradient cx="81.111%" cy="-40.887%" fx="81.111%" fy="-40.887%" r="193.807%" gradientTransform="matrix(.83914 0 0 1 .13 0)" id="h"><stop stop-color="#FFF44F" offset="11.3%"/><stop stop-color="#FF980E" offset="45.6%"/><stop stop-color="#FF5634" offset="62.2%"/><stop stop-color="#FF3647" offset="71.6%"/><stop stop-color="#E31587" offset="90.4%"/></radialGradient><radialGradient cx="11.59%" cy="-10.313%" fx="11.59%" fy="-10.313%" r="348.394%" gradientTransform="matrix(.10494 .47127 -.99448 .04973 .001 -.153)" id="i"><stop stop-color="#FFF44F" offset="0%"/><stop stop-color="#FFE847" offset="6%"/><stop stop-color="#FFC830" offset="16.8%"/><stop stop-color="#FF980E" offset="30.4%"/><stop stop-color="#FF8B16" offset="35.6%"/><stop stop-color="#FF672A" offset="45.5%"/><stop stop-color="#FF3647" offset="57%"/><stop stop-color="#E31587" offset="73.7%"/></radialGradient><radialGradient cx="19.461%" cy="-42.624%" fx="19.461%" fy="-42.624%" r="238.525%" gradientTransform="matrix(.98168 0 0 1 .004 0)" id="j"><stop stop-color="#FFF44F" offset="13.7%"/><stop stop-color="#FF980E" offset="48%"/><stop stop-color="#FF5634" offset="59.2%"/><stop stop-color="#FF3647" offset="65.5%"/><stop stop-color="#E31587" offset="90.4%"/></radialGradient><radialGradient cx="159.865%" cy="-44.6%" fx="159.865%" fy="-44.6%" r="312.954%" gradientTransform="matrix(.8949 0 0 1 .168 0)" id="k"><stop stop-color="#FFF44F" offset="9.4%"/><stop stop-color="#FFE141" offset="23.1%"/><stop stop-color="#FFAF1E" offset="50.9%"/><stop stop-color="#FF980E" offset="62.6%"/></radialGradient><linearGradient x1="89.8%" y1="15.5%" x2="6.6%" y2="93.1%" id="a"><stop stop-color="#FFF44F" offset="4.8%"/><stop stop-color="#FFE847" offset="11.1%"/><stop stop-color="#FFC830" offset="22.5%"/><stop stop-color="#FF980E" offset="36.8%"/><stop stop-color="#FF8B16" offset="40.1%"/><stop stop-color="#FF672A" offset="46.2%"/><stop stop-color="#FF3647" offset="53.4%"/><stop stop-color="#E31587" offset="70.5%"/></linearGradient><linearGradient x1="88.8%" y1="15.1%" x2="18%" y2="83.5%" id="l"><stop stop-color="#FFF44F" stop-opacity=".8" offset="16.7%"/><stop stop-color="#FFF44F" stop-opacity=".634" offset="26.6%"/><stop stop-color="#FFF44F" stop-opacity=".217" offset="48.9%"/><stop stop-color="#FFF44F" stop-opacity="0" offset="60%"/></linearGradient></defs><g fill="none" fill-rule="evenodd"><rect stroke-opacity=".38" stroke="#B8C6D8" width="120" height="120" rx="10"/><path d="M100.902 40.882c-1.956-4.671-5.868-9.699-8.95-11.275a46.33 46.33 0 014.52 13.518v.08c-5.027-12.574-13.575-17.636-20.558-28.68a35.485 35.485 0 01-1.059-1.703c-.195-.345-.345-.644-.495-.92a8.11 8.11 0 01-.667-1.772.115.115 0 00-.092-.115.161.161 0 00-.115 0v.023c0 .023-.034 0-.034 0v-.023C62.269 16.572 58.46 28.72 58.116 34.785a22.32 22.32 0 00-12.276 4.74 13.345 13.345 0 00-1.15-.875 20.674 20.674 0 01-.115-10.93 33.018 33.018 0 00-10.746 8.307c-1.783-2.232-1.656-9.618-1.553-11.16a7.973 7.973 0 00-1.495.783 32.478 32.478 0 00-4.372 3.739 38.932 38.932 0 00-4.142 5.004A37.655 37.655 0 0016.285 47.9l-.08.31a65.3 65.3 0 00-.438 2.761v.115a42.498 42.498 0 00-.713 6.144v.23c.037 23.132 17.756 42.394 40.804 44.359 23.048 1.965 43.772-14.02 47.724-36.812.08-.575.138-1.15.207-1.726a45.858 45.858 0 00-2.876-22.4h-.011zM49.51 75.775c.207.115.403.23.61.311l.035.023a17.68 17.68 0 01-.633-.345l-.012.011z" fill="url(#a)" fill-rule="nonzero"/><path d="M100.902 40.882c-1.956-4.671-5.868-9.699-8.95-11.275a46.33 46.33 0 014.52 13.518v.092a40.381 40.381 0 01-1.38 30.096c-5.108 10.964-17.487 22.204-36.85 21.652-20.915-.575-39.346-16.106-42.797-36.447-.621-3.22 0-4.832.322-7.443a33.226 33.226 0 00-.713 6.143v.23c.037 23.132 17.756 42.395 40.804 44.36 23.048 1.964 43.772-14.021 47.724-36.812.08-.576.138-1.151.207-1.726a45.858 45.858 0 00-2.876-22.4l-.011.012z" fill="url(#b)" fill-rule="nonzero"/><path d="M100.902 40.882c-1.956-4.671-5.868-9.699-8.95-11.275a46.33 46.33 0 014.52 13.518v.092a40.381 40.381 0 01-1.38 30.096c-5.108 10.964-17.487 22.204-36.85 21.652-20.915-.575-39.346-16.106-42.797-36.447-.621-3.22 0-4.832.322-7.443a33.226 33.226 0 00-.713 6.143v.23c.037 23.132 17.756 42.395 40.804 44.36 23.048 1.964 43.772-14.021 47.724-36.812.08-.576.138-1.151.207-1.726a45.858 45.858 0 00-2.876-22.4l-.011.012z" fill="url(#c)" fill-rule="nonzero"/><path d="M79.227 46.116c.115.07.184.138.276.207a24.275 24.275 0 00-4.142-5.407c-13.851-13.851-3.624-30.05-1.898-30.867v-.034c-11.182 6.557-14.99 18.706-15.336 24.77a23.375 23.375 0 011.565-.07 22.503 22.503 0 0119.535 11.39v.011z" fill="url(#d)" fill-rule="nonzero"/><path d="M59.726 48.9c-.08 1.093-3.992 4.924-5.372 4.924-12.678 0-14.726 7.663-14.726 7.663.552 6.465 5.062 11.78 10.492 14.61l.76.346c.437.191.874.372 1.31.54a19.823 19.823 0 005.8 1.128c22.226 1.035 26.53-26.576 10.492-34.595a15.393 15.393 0 0110.745 2.623 22.503 22.503 0 00-19.535-11.39c-.53 0-1.035.024-1.565.058a22.32 22.32 0 00-12.275 4.74c.69.575 1.45 1.335 3.072 2.934 3.025 2.991 10.78 6.063 10.814 6.442l-.012-.023z" fill="url(#e)" fill-rule="nonzero"/><path d="M59.726 48.9c-.08 1.093-3.992 4.924-5.372 4.924-12.678 0-14.726 7.663-14.726 7.663.552 6.465 5.062 11.78 10.492 14.61l.76.346c.437.191.874.372 1.31.54a19.823 19.823 0 005.8 1.128c22.226 1.035 26.53-26.576 10.492-34.595a15.393 15.393 0 0110.745 2.623 22.503 22.503 0 00-19.535-11.39c-.53 0-1.035.024-1.565.058a22.32 22.32 0 00-12.275 4.74c.69.575 1.45 1.335 3.072 2.934 3.025 2.991 10.78 6.063 10.814 6.442l-.012-.023z" fill="url(#f)" fill-rule="nonzero"/><path d="M43.781 38.04c.345.23.656.426.92.61a20.674 20.674 0 01-.115-10.93 33.018 33.018 0 00-10.745 8.307c.23 0 6.673-.115 9.94 2.002v.011z" fill="url(#g)" fill-rule="nonzero"/><path d="M15.456 58.518c3.452 20.33 21.86 35.86 42.798 36.447 19.362.552 31.73-10.7 36.838-21.652a40.381 40.381 0 001.38-30.096v-.092l.023.08C98.06 53.538 92.814 63.536 84.6 70.3l-.035.058c-15.991 13.034-31.293 7.869-34.399 5.752-.23-.1-.449-.207-.656-.322-9.318-4.452-13.184-12.954-12.356-20.248a11.447 11.447 0 01-10.561-6.64 16.82 16.82 0 0116.394-.655 22.204 22.204 0 0016.728.655c-.023-.368-7.777-3.45-10.814-6.442-1.611-1.588-2.37-2.347-3.06-2.922a13.345 13.345 0 00-1.151-.875c-.265-.184-.552-.38-.92-.61-3.245-2.116-9.71-2.001-9.929-2.001h-.023c-1.76-2.232-1.645-9.618-1.542-11.16a7.973 7.973 0 00-1.495.783 32.478 32.478 0 00-4.372 3.75 38.932 38.932 0 00-4.176 4.993 37.655 37.655 0 00-5.983 13.507c-.023.092-1.61 7.017-.828 10.607l.034-.012z" fill="url(#h)" fill-rule="nonzero"/><path d="M75.373 40.916a24.275 24.275 0 014.142 5.407c.23.196.46.38.667.553 10.124 9.318 4.832 22.491 4.43 23.435 8.202-6.765 13.46-16.763 11.883-27.094-5.062-12.574-13.598-17.637-20.593-28.681a73.811 73.811 0 01-1.035-1.703c-.196-.345-.346-.644-.495-.92a8.11 8.11 0 01-.679-1.783.115.115 0 00-.092-.115.161.161 0 00-.115 0v.023c0 .023-.034 0-.034 0-1.726.828-11.965 17.027 1.91 30.878h.01z" fill="url(#i)" fill-rule="nonzero"/><path d="M80.17 46.876a8.52 8.52 0 00-.667-.553l-.276-.207a15.393 15.393 0 00-10.757-2.611c16.038 8.03 11.735 35.664-10.492 34.606a19.823 19.823 0 01-5.787-1.116 15.63 15.63 0 01-1.312-.53c-.253-.114-.494-.23-.747-.344h.034c3.106 2.116 18.408 7.293 34.422-5.753l.023-.046c.403-.92 5.695-14.116-4.418-23.423l-.023-.023z" fill="url(#j)" fill-rule="nonzero"/><path d="M39.616 61.487s2.071-7.663 14.726-7.663c1.38 0 5.292-3.83 5.384-4.947a22.204 22.204 0 01-16.75-.644 16.82 16.82 0 00-16.394.656 11.447 11.447 0 0010.584 6.627c-.84 7.294 3.014 15.796 12.344 20.248.207.115.403.207.61.31-5.442-2.818-9.94-8.133-10.504-14.61v.023z" fill="url(#k)" fill-rule="nonzero"/><path d="M100.902 40.882c-1.956-4.671-5.868-9.699-8.95-11.275a46.33 46.33 0 014.52 13.518v.08c-5.027-12.574-13.575-17.636-20.558-28.68a35.485 35.485 0 01-1.059-1.703c-.195-.345-.345-.644-.495-.92a8.11 8.11 0 01-.667-1.772.115.115 0 00-.092-.115.161.161 0 00-.115 0v.023c0 .023-.034 0-.034 0v-.023C62.269 16.572 58.46 28.72 58.116 34.785c.518-.035 1.035-.07 1.564-.07a22.503 22.503 0 0119.535 11.39 15.393 15.393 0 00-10.745-2.6c16.038 8.03 11.735 35.664-10.492 34.606a19.823 19.823 0 01-5.799-1.116 15.63 15.63 0 01-1.311-.53l-.76-.344h.035a16.49 16.49 0 01-.633-.323c.207.115.403.23.61.311-5.442-2.819-9.94-8.134-10.504-14.61 0 0 2.071-7.652 14.726-7.652 1.38 0 5.292-3.83 5.384-4.947-.023-.345-7.777-3.45-10.814-6.42-1.61-1.61-2.381-2.358-3.06-2.933a13.345 13.345 0 00-1.15-.874 20.674 20.674 0 01-.116-10.93 33.018 33.018 0 00-10.745 8.307c-1.783-2.232-1.657-9.618-1.553-11.16a7.973 7.973 0 00-1.496.783 32.478 32.478 0 00-4.372 3.739 38.932 38.932 0 00-4.141 5.004 37.655 37.655 0 00-5.983 13.507l-.092.287c-.08.38-.46 2.382-.517 2.807a51.886 51.886 0 00-.656 6.213v.23c.037 23.132 17.756 42.394 40.804 44.359 23.048 1.965 43.772-14.02 47.724-36.812.08-.575.138-1.15.207-1.726a45.858 45.858 0 00-2.876-22.4h.012z" fill="url(#l)" fill-rule="nonzero"/></g></svg>