<svg width="120" height="120" xmlns="http://www.w3.org/2000/svg"><defs><linearGradient x1="50.003%" y1="1.63%" x2="50.003%" y2="98.545%" id="a"><stop stop-color="#FF1B2D" offset="30%"/><stop stop-color="#FA1A2C" offset="43.81%"/><stop stop-color="#ED1528" offset="59.39%"/><stop stop-color="#D60E21" offset="75.81%"/><stop stop-color="#B70519" offset="92.72%"/><stop stop-color="#A70014" offset="100%"/></linearGradient><linearGradient x1="49.99%" y1=".853%" x2="49.99%" y2="99.519%" id="b"><stop stop-color="#9C0000" offset="0%"/><stop stop-color="#FF4B4B" offset="70%"/></linearGradient></defs><g fill="none" fill-rule="evenodd"><rect stroke-opacity=".38" stroke="#B8C6D8" width="120" height="120" rx="10"/><path d="M46.844 82.531c-4.438-5.219-7.282-12.937-7.469-21.594v-1.874c.188-8.657 3.063-16.376 7.469-21.594 5.75-7.438 14.187-10.782 23.718-10.782 5.876 0 11.407.407 16.094 3.532A39.58 39.58 0 0060.156 20H60c-22.094 0-40 17.906-40 40 0 21.438 16.875 38.969 38.094 39.969.625.031 1.281.031 1.906.031 10.25 0 19.594-3.844 26.656-10.188-4.687 3.126-9.906 3.25-15.781 3.25-9.5.032-18.313-3.062-24.031-10.53z" fill="url(#a)" fill-rule="nonzero"/><path d="M46.844 37.469c3.656-4.344 8.406-6.938 13.593-6.938 11.657 0 21.094 13.188 21.094 29.5 0 16.313-9.437 29.5-21.094 29.5-5.187 0-9.906-2.625-13.593-6.937 5.75 7.437 14.281 12.187 23.781 12.187 5.844 0 11.344-1.781 16.031-4.906C94.844 82.5 100 71.844 100 60c0-11.844-5.156-22.5-13.344-29.813-4.687-3.125-10.156-4.906-16.031-4.906-9.531 0-18.063 4.719-23.781 12.188z" fill="url(#b)" fill-rule="nonzero"/></g></svg>