<?xml version="1.0" encoding="UTF-8"?>
<svg width="160px" height="121px" viewBox="0 0 160 121" version="1.1" xmlns="http://www.w3.org/2000/svg" xmlns:xlink="http://www.w3.org/1999/xlink">
    <!-- Generator: Sketch 53 (72520) - https://sketchapp.com -->
    <title>Group 6</title>
    <desc>Created with Sketch.</desc>
    <g id="Responsive" stroke="none" stroke-width="1" fill="none" fill-rule="evenodd">
        <g id="Extra-Large" transform="translate(-1208.000000, -330.000000)">
            <g id="Group-6" transform="translate(1208.000000, 310.000000)">
                <g id="Group-4" transform="translate(0.000000, 20.000000)">
                    <g id="Group-3" fill-rule="nonzero">
                        <ellipse id="Oval" fill="#E4E5E6" cx="80" cy="104" rx="80" ry="5.625"></ellipse>
                        <g id="Group" transform="translate(21.250000, 0.000000)">
                            <path d="M10.375,71.875 C5.375,71.875 1.25,67.75 1.25,62.75 L1.25,10.25 C1.25,5.25 5.375,1.125 10.375,1.125 L107.25,1.125 C112.25,1.125 116.375,5.25 116.375,10.25 L116.375,62.75 C116.375,67.75 112.25,71.875 107.25,71.875 L10.375,71.875 L10.375,71.875 Z" id="Path" fill="#D1D3D4"></path>
                            <path d="M107.125,2.125 C111.625,2.125 115.375,5.75 115.375,10.375 L115.375,62.875 C115.375,67.375 111.75,71.125 107.125,71.125 L10.375,71.125 C5.875,71.125 2.125,67.5 2.125,62.875 L2.125,10.375 C2.125,5.875 5.75,2.125 10.375,2.125 L107.125,2.125 L107.125,2.125 Z M107.125,0.5 L10.375,0.5 C4.875,0.5 0.375,4.875 0.375,10.5 L0.375,63 C0.375,68.5 4.75,73 10.375,73 L107.25,73 C112.75,73 117.25,68.625 117.25,63 L117.25,10.5 C117.125,4.875 112.75,0.5 107.125,0.5 L107.125,0.5 Z" id="Shape" fill="#000000"></path>
                        </g>
                        <g id="Group" transform="translate(8.750000, 70.000000)">
                            <g>
                                <path d="M2.5,12.125 L2.25,11.5 L2,10.875 L2.5,10.625 L8,6.125 C12,2.875 17,1 22.125,1 L120.125,1 C125.25,1 130.25,2.75 134.25,6.125 L139.625,10.5 C139.875,10.75 140,11.25 139.875,11.625 C139.75,12 139.375,12.25 139,12.25 L2.5,12.125 L2.5,12.125 Z" id="Path" fill="#F1F2F2"></path>
                                <path d="M120.25,1.75 C125.25,1.75 130,3.5 133.875,6.625 L139.25,11 L139.25,11.125 L3.125,11.125 L3.125,11.125 L8.625,6.625 C12.5,3.5 17.25,1.75 22.25,1.75 L120.25,1.75 L120.25,1.75 Z M120.25,0 L22.25,0 C16.875,0 11.625,1.875 7.5,5.25 L2,9.75 L1.125,10.5 L1.5,11.625 L1.875,12.75 L3.125,12.75 L139.125,12.75 C139.875,12.75 140.625,12.25 140.875,11.5 C141.125,10.75 140.875,10 140.25,9.5 L134.875,5.125 C130.875,1.875 125.625,0 120.25,0 L120.25,0 Z" id="Shape" fill="#000000"></path>
                            </g>
                            <g transform="translate(1.250000, 11.250000)">
                                <path d="M11.375,12.125 C5.625,12.125 1,7.5 1,1.75 L1,0.875 L139,0.875 L139,1.75 C139,7.5 134.375,12.125 128.625,12.125 L11.375,12.125 Z" id="Path" fill="#D1D3D4"></path>
                                <path d="M138.125,1.75 L138.125,1.75 C138.125,7 133.875,11.25 128.625,11.25 L11.375,11.25 C6.125,11.25 1.875,7 1.875,1.75 L1.875,1.75 L138.125,1.75 L138.125,1.75 Z M138.125,0 L1.875,0 L0.125,0 L0.125,1.75 C0.125,8 5.125,13 11.375,13 L128.75,13 C135,13 140,8 140,1.75 L140,0 L138.125,0 L138.125,0 Z" id="Shape" fill="#000000"></path>
                            </g>
                        </g>
                        <g id="Group" transform="translate(26.250000, 6.250000)">
                            <rect id="Rectangle" fill="#FFFFFF" x="2" y="1.625" width="103.5" height="55.125"></rect>
                            <path d="M104.625,2.5 L104.625,55.875 L2.875,55.875 L2.875,2.5 L104.625,2.5 L104.625,2.5 Z M106.375,0.75 L104.625,0.75 L2.875,0.75 L1.125,0.75 L1.125,2.5 L1.125,55.875 L1.125,57.625 L2.875,57.625 L104.625,57.625 L106.375,57.625 L106.375,55.875 L106.375,2.5 L106.375,0.75 L106.375,0.75 Z" id="Shape" fill="#000000"></path>
                        </g>
                        <polygon id="Path" fill="#F1F2F2" points="29.125 62.25 29.125 8.75 90.25 8.75 75 62.25"></polygon>
                        <g id="Group" transform="translate(8.750000, 13.750000)">
                            <g>
                                <path d="M7.875,79.5 C4.625,79.5 1.875,76.75 1.875,73.5 L1.875,7.5 C1.875,4.25 4.625,1.5 7.875,1.5 L37.5,1.5 C40.75,1.5 43.5,4.25 43.5,7.5 L43.5,73.625 C43.5,76.875 40.75,79.625 37.5,79.625 L7.875,79.625 L7.875,79.5 Z" id="Path" fill="#D1D3D4"></path>
                                <path d="M37.625,2.375 C40.5,2.375 42.75,4.625 42.75,7.5 L42.75,73.625 C42.75,76.5 40.5,78.75 37.625,78.75 L7.875,78.75 C5,78.75 2.75,76.5 2.75,73.625 L2.75,7.5 C2.75,4.625 5,2.375 7.875,2.375 L37.625,2.375 L37.625,2.375 Z M37.625,0.625 L7.875,0.625 C4.125,0.625 1,3.625 1,7.5 L1,73.625 C1,77.375 4,80.5 7.875,80.5 L37.5,80.5 C41.25,80.5 44.375,77.5 44.375,73.625 L44.375,7.5 C44.5,3.625 41.5,0.625 37.625,0.625 L37.625,0.625 Z" id="Shape" fill="#000000"></path>
                            </g>
                            <g transform="translate(3.750000, 7.500000)">
                                <rect id="Rectangle" fill="#FFFFFF" x="1.625" y="1.5" width="34.875" height="56.625"></rect>
                                <path d="M35.625,2.375 L35.625,57.25 L2.5,57.25 L2.5,2.375 L35.625,2.375 L35.625,2.375 Z M37.375,0.625 L35.625,0.625 L2.5,0.625 L0.75,0.625 L0.75,2.375 L0.75,57.25 L0.75,59 L2.5,59 L35.625,59 L37.375,59 L37.375,57.25 L37.375,2.375 L37.375,0.625 L37.375,0.625 Z" id="Shape" fill="#000000"></path>
                            </g>
                            <g transform="translate(18.750000, 68.750000)">
                                <path d="M4.125,7.375 C2.5,7.375 1.125,6 1.125,4.375 C1.125,2.75 2.5,1.375 4.125,1.375 C5.75,1.375 7.125,2.75 7.125,4.375 C7.125,6 5.75,7.375 4.125,7.375 Z" id="Path" fill="#F1F2F2"></path>
                                <path d="M4.125,2.125 C5.375,2.125 6.25,3.125 6.25,4.25 C6.25,5.5 5.25,6.375 4.125,6.375 C2.875,6.375 2,5.375 2,4.25 C1.875,3.125 2.875,2.125 4.125,2.125 L4.125,2.125 Z M4.125,0.375 C2,0.375 0.25,2.125 0.25,4.25 C0.25,6.375 2,8.125 4.125,8.125 C6.25,8.125 8,6.375 8,4.25 C8,2.125 6.25,0.375 4.125,0.375 L4.125,0.375 Z" id="Shape" fill="#000000"></path>
                            </g>
                            <path d="M15.125,5.125 L15.125,5.125 C15.125,4.75 15.375,4.375 15.875,4.375 L29.875,4.375 C30.25,4.375 30.625,4.625 30.625,5.125 L30.625,5.125 C30.625,5.5 30.375,5.875 29.875,5.875 L15.75,5.875 C15.375,5.75 15.125,5.5 15.125,5.125 Z" id="Path" fill="#000000"></path>
                            <polygon id="Path" fill="#F1F2F2" points="6.25 64.75 6.25 9.875 34.75 9.875 18.5 64.75"></polygon>
                        </g>
                    </g>
                    <g id="Group-3" transform="translate(87.000000, 41.000000)">
                        <g id="Group-11">
                            <path d="M0,10 L0,43.333 C0,60 14.667,73.333 33,80 C51.333,73.333 66,60 66,43.333 L66,10 L33,0 L0,10 Z" id="Fill-1" fill="#FFFFFF"></path>
                            <path d="M33,80 C51.333,73.333 66,60 66,43.333 L66,10 L33,0 L33,80 Z" id="Fill-3" fill="#E6E6E6"></path>
                            <path d="M33,0 L0,10 L0,43.333 C0,60 14.667,73.333 33,80 C51.333,73.333 66,60 66,43.333 L66,10 L33,0 Z M33,2.09 L64,11.483 L64,43.333 C64,60.232 48.116,72.191 33,77.868 C24.1,74.533 16.528,69.76 11.072,64.037 C5.138,57.811 2,50.651 2,43.333 L2,11.483 L33,2.09 L33,2.09 Z" id="Fill-5" fill="#333333"></path>
                            <path d="M33,8.3652 L57.934,15.9212 L57.934,43.3332 C57.934,49.1762 55.437,54.7562 50.514,59.9212 C46.12,64.5282 40.106,68.4682 33,71.4102 C25.894,68.4682 19.88,64.5282 15.486,59.9212 C10.563,54.7562 8.066,49.1762 8.066,43.3332 L8.066,15.9212 L33,8.3652 Z" id="Fill-7" fill="#EC1C24"></path>
                            <path d="M33,8.3652 L57.934,15.9212 L57.934,43.3332 C57.934,49.1762 55.437,54.7562 50.514,59.9212 C46.12,64.5282 40.106,68.4682 33,71.4102 L33,8.3652 Z" id="Fill-9" fill="#C1272D"></path>
                        </g>
                        <path d="M29.3575685,37.5988438 L34.4011562,37.5988438 C36.1554476,37.5988438 37.3980707,37.3369182 38.1290254,36.8130674 C38.8599801,36.2892167 39.2254575,35.4303449 39.2254575,34.236452 C39.2254575,33.0912897 38.8599801,32.2750566 38.1290254,31.7877536 C37.3980707,31.3004506 36.1310823,31.0567988 34.3280607,31.0567988 L29.3575685,31.0567988 L29.3575685,37.5988438 Z M34.6935381,52.729607 L25.2276742,52.729607 C24.618545,52.729607 24.3139807,52.4250427 24.3139807,51.8159136 L24.3139807,29.6842283 C24.3139807,29.0994645 20.4560948,27 21.065224,27 L34.4377039,27 C37.7757304,27 40.2366118,27.5360337 41.8203469,28.6081004 C43.404082,29.6801672 44.1959498,31.3857285 44.1959498,33.7247836 C44.1959498,35.2110585 43.8670201,36.4049509 43.2091609,37.3064619 C42.5513016,38.2079729 41.7107037,38.8049191 40.687367,39.097301 C43.5624559,39.8526211 45,41.9114768 45,45.2738686 C45,47.8809403 44.1411282,49.7753318 42.4233845,50.9570417 C40.7056409,52.1387517 38.1290254,52.729607 34.6935381,52.729607 Z M29.3575685,48.6362604 L34.4377039,48.6362604 C36.4843772,48.6362604 37.9158305,48.3682439 38.7320631,47.8322102 C39.5482957,47.2961765 39.9564123,46.3459354 39.9564123,44.9814867 C39.9564123,43.6901335 39.5604786,42.7764401 38.7686108,42.2404064 C37.976743,41.7043728 36.581838,41.4363562 34.5838949,41.4363562 L29.3575685,41.4363562 L29.3575685,48.6362604 Z" id="B" fill="#FFFFFF"></path>
                    </g>
                </g>
                <rect id="Rectangle" x="0" y="0" width="160" height="160"></rect>
            </g>
        </g>
    </g>
</svg>