<svg width="90" height="28" xmlns="http://www.w3.org/2000/svg" xmlns:xlink="http://www.w3.org/1999/xlink"><defs><path id="a" d="M.064.32h21.263V18.8H.064z"/><path id="c" d="M.191.32h21.263V18.8H.191z"/></defs><g fill="none" fill-rule="evenodd"><path d="M6.912 11.424c-2.352 0-4.32 2.16-4.32 4.463v11.568H0V15.887c0-3.84 3.12-6.911 6.912-6.911h1.824v2.448H6.912z" fill="#231F20"/><g transform="translate(14 8.847)"><mask id="b" fill="#fff"><use xlink:href="#a"/></mask><path d="M18.735 7.232c0-2.256-1.968-4.416-4.32-4.416H6.977c-2.352 0-4.32 2.16-4.32 4.416v4.656c0 2.4 1.968 4.464 4.32 4.464h7.44c2.351 0 4.32-2.16 4.32-4.464V7.232zM14.415 18.8H6.977a6.883 6.883 0 01-6.912-6.912V7.232c0-3.791 3.12-6.911 6.912-6.911h7.44c3.791 0 6.911 3.12 6.911 6.911v4.656c0 3.84-3.12 6.912-6.911 6.912z" fill="#231F20" mask="url(#b)"/></g><path d="M47.807 27.647c-3.792 0-6.912-3.072-6.912-6.912V0h2.592v20.735c0 2.304 1.92 4.464 4.32 4.464h1.824v2.448h-1.824zM61.871 27.647c-3.792 0-6.912-3.072-6.912-6.912V0h2.592v20.735c0 2.304 1.92 4.464 4.32 4.464h1.824v2.448h-1.824z" fill="#231F20"/><g transform="translate(68.4 8.847)"><mask id="d" fill="#fff"><use xlink:href="#c"/></mask><path d="M18.862 7.232c0-2.256-1.968-4.416-4.32-4.416H7.103c-2.352 0-4.32 2.16-4.32 4.416v4.656c0 2.4 1.968 4.464 4.32 4.464h7.44c2.351 0 4.32-2.16 4.32-4.464V7.232zM14.542 18.8H7.103a6.883 6.883 0 01-6.912-6.912V7.232c0-3.791 3.12-6.911 6.912-6.911h7.44c3.791 0 6.911 3.12 6.911 6.911v4.656c0 3.84-3.12 6.912-6.912 6.912z" fill="#231F20" mask="url(#d)"/></g></g></svg>
