<svg width="320" height="320" xmlns="http://www.w3.org/2000/svg"><defs><linearGradient x1="50%" y1="2.339%" x2="50%" y2="100%" id="b"><stop stop-color="#E6EBFF" offset="0%"/><stop stop-color="#E6EBFF" offset="100%"/></linearGradient><linearGradient x1="50%" y1="18.82%" x2="47.284%" y2="67.275%" id="a"><stop stop-color="#003FE6" offset="0%"/><stop stop-color="#003FE6" stop-opacity="0" offset="100%"/></linearGradient><linearGradient x1="50%" y1="2.339%" x2="50%" y2="100%" id="d"><stop stop-color="#E6EBFF" offset="0%"/><stop stop-color="#E6EBFF" offset="100%"/></linearGradient><linearGradient x1="50%" y1="19.003%" x2="47.284%" y2="67.174%" id="c"><stop stop-color="#003FE6" offset="0%"/><stop stop-color="#003FE6" stop-opacity="0" offset="100%"/></linearGradient><linearGradient x1="50%" y1="0%" x2="50%" y2="100%" id="e"><stop stop-color="#003FE6" offset="0%"/><stop stop-color="#006EFF" stop-opacity=".803" offset="100%"/></linearGradient><linearGradient x1="50%" y1="2.339%" x2="50%" y2="100%" id="g"><stop stop-color="#E6EBFF" offset="0%"/><stop stop-color="#E6EBFF" offset="100%"/></linearGradient><linearGradient x1="50%" y1="17.208%" x2="47.284%" y2="68.169%" id="f"><stop stop-color="#003FE6" offset="0%"/><stop stop-color="#003FE6" stop-opacity="0" offset="100%"/></linearGradient><linearGradient x1="50%" y1="2.339%" x2="50%" y2="100%" id="i"><stop stop-color="#E6EBFF" offset="0%"/><stop stop-color="#E6EBFF" offset="100%"/></linearGradient><linearGradient x1="50%" y1="24.084%" x2="47.284%" y2="64.359%" id="h"><stop stop-color="#003FE6" offset="0%"/><stop stop-color="#003FE6" stop-opacity="0" offset="100%"/></linearGradient><linearGradient x1="50%" y1="2.339%" x2="50%" y2="100%" id="k"><stop stop-color="#E6EBFF" offset="0%"/><stop stop-color="#E6EBFF" offset="100%"/></linearGradient><linearGradient x1="50%" y1="13.417%" x2="47.284%" y2="70.269%" id="j"><stop stop-color="#003FE6" offset="0%"/><stop stop-color="#003FE6" stop-opacity="0" offset="100%"/></linearGradient><linearGradient x1="55.283%" y1="5.622%" x2="46.622%" y2="95.564%" id="m"><stop stop-color="#E6EBFF" offset="0%"/><stop stop-color="#FFF" offset="100%"/></linearGradient><linearGradient x1="50%" y1="0%" x2="49.495%" y2="77.703%" id="l"><stop stop-color="#003FE6" offset="0%"/><stop stop-color="#003FE6" stop-opacity="0" offset="100%"/></linearGradient></defs><g fill="none" fill-rule="evenodd"><path d="M168.17 104.807l41.392 41.142-23.465 36.556-13.534 15.964a105.943 105.943 0 01-14.313 13.966 81.996 81.996 0 01-16.985 10.562h0l-16.411 7.607-20.466 9.107-65.365-46.113 32.238-39.647 96.909-49.144z" stroke="url(#a)" stroke-width="2.244" fill="url(#b)" transform="translate(26.376 36.055)"/><path d="M263.166 135.855c-4.536-3.588-12.29-3.588-23.265 0-10.975 3.588-10.768 9.259.62 17.013l16.257-2.277 6.389-14.736z" fill="#2F5CD7"/><path d="M237.547 9.4l5.035 1.057 5.858 9.447-1.205 4.697-10.358 8.612-14.47 11.354-37.922 28.286-15.927-20.863 37.594-30.604 18.734-7.278 12.66-4.707z" stroke="url(#c)" stroke-width="2.244" fill="url(#d)" transform="translate(26.376 36.055)"/><path fill="#FFF" d="M116.984 48.225l115.404-12.17 19.205 183.327-115.404 12.17z"/><path d="M59.068 87.079c-5.87-5.87-14.619-8.86-26.247-8.972 11.628-.111 20.377-3.102 26.247-8.972 5.87-5.87 8.86-14.618 8.972-26.246.111 11.628 3.102 20.376 8.972 26.246 5.87 5.87 14.618 8.86 26.246 8.972-11.628.111-20.377 3.102-26.246 8.972-5.87 5.87-8.86 14.618-8.972 26.246-.112-11.628-3.102-20.376-8.972-26.246zm204.788 165.588c0 6.667 3.27 13.334 9.811 20-6.667-6.54-13.333-9.81-20-9.81s-13.333 3.27-20 9.81c6.54-6.666 9.81-13.333 9.81-20 0-6.666-3.27-13.333-9.81-20 6.667 6.54 13.333 9.81 20 9.81s13.333-3.27 20-9.81c-6.54 6.667-9.81 13.334-9.81 20z" fill="#31D800"/><path d="M166.706 135.346l.002-4.422c9.957-1.899 15.797-9.572 15.801-20.402.005-11.912-5.487-16.242-17.244-20.479-7.81-2.794-11.843-4.507-11.842-8.93.002-3.61 2.664-6.227 7.041-6.23 4.464 0 6.866 3.067 6.863 8.842V84.9l14.076-.006.007-15.793c-5.063-3.969-10.04-5.772-14.675-6.763l.002-4.602-12.274.005-.002 4.602c-10.215 2.35-15.453 8.85-15.457 18.958-.003 6.137 1.798 10.287 6.088 13.805 4.033 3.248 8.925 4.6 13.817 6.583 5.921 2.344 8.838 4.689 8.837 9.111-.002 4.242-2.75 7.04-6.698 7.042-5.15.002-7.466-3.065-7.464-9.473v-1.354l-14.42.006-.006 16.786c4.119 3.608 9.354 6.043 15.276 7.214l-.002 4.331 12.274-.005z" fill="url(#e)" transform="rotate(-7 468.691 -101.051)"/><path d="M223.155 62.615l7.446 5.614 4.338 10.182-1.427 6.965a156.355 156.355 0 01-44.823 25.154h0l-3.415 1.232-10.546-15.389 3.308-3.027 17.203-14.13c.359-.295.717-.591 1.074-.888h0l17.192-14.302 9.65-1.41z" stroke="url(#f)" stroke-width="2.244" fill="url(#g)" transform="translate(26.376 36.055)"/><path d="M229.095 95.061l5.797.002 8.12 11.956 1.138 6.842-4.23 7.386-13.048 7.954a131.585 131.585 0 01-23.84 11.422h0l-8.147 2.939a49.228 49.228 0 01-8.902 2.298 7.51 7.51 0 01-4.497-.67 7.51 7.51 0 01-3.288-3.14h0l-2.805-5.117a11.262 11.262 0 01-1.099-7.94 9.632 9.632 0 014.83-6.325h0l8.163-4.382a223.235 223.235 0 0014.385-8.43h0l19.975-12.731 7.448-2.064z" stroke="url(#h)" stroke-width="2.244" fill="url(#i)" transform="rotate(5 -190.96 440.907)"/><path d="M227.903 123.698l4.533.006 6.227 8.582.848 6.788-3.12 7.33-9.113 7.039a99.642 99.642 0 01-17.522 10.84h0l-6.166 2.982a29.361 29.361 0 01-6.622 2.276 6.688 6.688 0 01-6.572-2.291h0l-3.643-4.425a5.708 5.708 0 01-1.298-3.454 8.033 8.033 0 01.68-3.486h0l.25-.57a9.365 9.365 0 013.004-3.753h0l9.264-6.846a223.236 223.236 0 008.52-6.62h0l15.053-12.29 5.677-2.108z" stroke="url(#j)" stroke-width="2.244" fill="url(#k)" transform="rotate(25 144.315 224.503)"/><path d="M90.212 47.195l5.562 6.04a68.576 68.576 0 0113.653 22.081 41.409 41.409 0 011.3 25.405h0l-6.774 25.36 1.96 21.406 1.268 9.655 2.552 26.161 16.288 46.45-42.365 19.43-45.923-55.185 22.037-35.685L90.212 47.195z" stroke="url(#l)" stroke-width="2.244" fill="url(#m)" transform="translate(26.376 36.055)"/></g></svg>