<svg width="320" height="320" xmlns="http://www.w3.org/2000/svg"><defs><linearGradient x1="78.429%" y1="34.033%" x2="31.822%" y2="66.394%" id="b"><stop stop-color="#E6EBFF" offset="0%"/><stop stop-color="#FFF" offset="100%"/></linearGradient><linearGradient x1="50%" y1="32.01%" x2="47.284%" y2="59.968%" id="a"><stop stop-color="#003FE6" offset="0%"/><stop stop-color="#003FE6" stop-opacity="0" offset="100%"/></linearGradient><linearGradient x1="50%" y1="0%" x2="50%" y2="100%" id="c"><stop stop-color="#003FE6" offset="0%"/><stop stop-color="#003FE6" stop-opacity="0" offset="100%"/></linearGradient></defs><g fill="none" fill-rule="evenodd"><g transform="translate(36.027 58.778)"><path d="M14.538 38.482l190.666.58.351 114.902-190.776-.92-.24-114.562z" stroke="url(#a)" stroke-width="2.244" fill="url(#b)" transform="rotate(-30 110.046 96.222)"/><path fill="#DCE3FF" d="M21.235 130.905L184.7 37.191 172.904 16.9 9.438 110.615z"/><rect stroke="url(#c)" stroke-width="2.244" fill="#FFF" x="55.251" y="79.7" width="190.844" height="112.944" rx="12"/><path fill="#003FE6" d="M76.873 117.722h32.8v24.6h-32.8zm0 36.9h94.3v12.3h-94.3z"/><circle fill="#003FE6" opacity=".796" cx="187.573" cy="117.722" r="16.4"/><circle fill="#003FE6" opacity=".796" cx="208.073" cy="117.722" r="16.4"/></g><path d="M255.054 94.867c-7.098 1.902-13.263 7.285-18.495 16.15 5.06-8.963 6.64-16.994 4.739-24.092-1.902-7.098-7.286-13.263-16.151-18.496 8.964 5.062 16.995 6.641 24.093 4.74 7.098-1.903 13.263-7.286 18.495-16.151-5.06 8.964-6.64 16.995-4.739 24.093 1.902 7.098 7.286 13.263 16.151 18.495-8.964-5.061-16.995-6.64-24.093-4.739zM66.12 250.935c-1.266 3.678-.728 7.976 1.613 12.895-2.435-4.873-5.491-7.943-9.168-9.21-3.678-1.266-7.976-.728-12.895 1.613 4.873-2.435 7.943-5.491 9.21-9.168 1.266-3.678.728-7.976-1.613-12.895 2.435 4.873 5.491 7.943 9.168 9.21 3.678 1.266 7.976.728 12.895-1.613-4.873 2.435-7.943 5.491-9.21 9.168z" fill="#31D800"/></g></svg>