<svg width="320" height="320" xmlns="http://www.w3.org/2000/svg"><defs><linearGradient x1="64.333%" y1="5.622%" x2="40.835%" y2="95.564%" id="b"><stop stop-color="#E6EBFF" offset="0%"/><stop stop-color="#FFF" offset="100%"/></linearGradient><linearGradient x1="50%" y1="0%" x2="50%" y2="110.791%" id="a"><stop stop-color="#003FE6" offset="0%"/><stop stop-color="#003FE6" stop-opacity="0" offset="100%"/></linearGradient><linearGradient x1="63.232%" y1="5.622%" x2="39.358%" y2="100%" id="d"><stop stop-color="#E6EBFF" offset="0%"/><stop stop-color="#FFF" offset="100%"/></linearGradient><linearGradient x1="50%" y1="0%" x2="48.833%" y2="108.69%" id="c"><stop stop-color="#003FE6" offset="0%"/><stop stop-color="#003FE6" stop-opacity="0" offset="100%"/></linearGradient><linearGradient x1="47.306%" y1="-1.614%" x2="47.306%" y2="100%" id="e"><stop stop-color="#003FE6" offset="0%"/><stop stop-color="#003FE6" stop-opacity="0" offset="100%"/></linearGradient></defs><g fill="none" fill-rule="evenodd"><path d="M242.985 80.974c-8.15 2.184-15.228 8.365-21.236 18.544 5.811-10.292 7.625-19.513 5.441-27.663-2.183-8.15-8.364-15.228-18.543-21.235 10.292 5.811 19.513 7.625 27.662 5.441 8.15-2.184 15.228-8.365 21.236-18.543-5.811 10.292-7.625 19.512-5.441 27.662 2.183 8.15 8.364 15.228 18.543 21.236-10.292-5.812-19.513-7.625-27.662-5.442zM69.304 255.82c-2.66 3.53-3.588 8.365-2.785 14.503-.92-6.122-3.146-10.513-6.675-13.173-3.53-2.66-8.364-3.588-14.503-2.785 6.123-.92 10.514-3.145 13.173-6.675 2.66-3.53 3.588-8.363 2.786-14.502.92 6.122 3.145 10.513 6.674 13.173 3.53 2.66 8.364 3.588 14.503 2.785-6.123.92-10.514 3.145-13.173 6.675z" fill="#31D800"/><path d="M222.02 75.49l-20.86 56.898h32.4l-87.761 99.522 4.226-74.254h-17.96a10.09 10.09 0 01-7.156-2.965 10.09 10.09 0 01-2.862-8.596h0l8.802-61.265a10.1 10.1 0 013.351-6.176 10.102 10.102 0 016.568-2.506h0l81.252-.659z" stroke="url(#a)" stroke-width="2.244" fill="url(#b)" transform="translate(34 33)"/><path d="M127.33 28.863l-17.752 57.025h11.017a10.09 10.09 0 017.157 2.964 10.09 10.09 0 012.965 7.157c0 2.35-.817 4.627-2.312 6.44h0L53 193.902l5.514-82.746H28.886l11.697-81.42 86.747-.873z" stroke="url(#c)" stroke-width="2.244" fill="url(#d)" transform="translate(34 33)"/><path d="M185.413 39.8l-3.793 12.39-18.84 60.79h40.553L92.018 240.21l1.121-19.359 5.043-76.024H60.078l1.77-10.922L74.829 40.7h8.55l89.02-.9h13.015z" stroke="url(#e)" stroke-width="2.244" fill="#FFF" transform="translate(34 33)"/><path fill="#003FE6" opacity=".797" d="M170.649 162.421h13.7l-3.89 4.287-33.226 37.375 3.073-41.662z"/><path fill="#003FE6" opacity=".797" d="M136.134 169.748l4.407-29.538h2.86l31.67-.288h4.24l-1.342 3.501-6.863 19.93-3.022 9.568-18.992-.089h-9.987l-3.463.09z"/></g></svg>