<?xml version="1.0" encoding="UTF-8"?>
<svg width="150px" height="56px" viewBox="0 0 150 56" version="1.1" xmlns="http://www.w3.org/2000/svg" xmlns:xlink="http://www.w3.org/1999/xlink">
    <title>logo_en</title>
    <g id="入口" stroke="none" stroke-width="1" fill="none" fill-rule="evenodd">
        <g id="logo_en">
            <rect id="矩形" x="0" y="0" width="150" height="56"></rect>
            <g id="KUCOIN-logo-3.0" transform="translate(14.000000, 14.003157)" fill="#FFFFFF" fill-rule="nonzero">
                <path d="M95.3348624,13.9839991 C95.3348624,13.2698706 95.3348624,12.5981275 95.3117431,11.9777605 C95.296002,11.3925126 95.2380534,10.8091631 95.1383486,10.2322559 C95.0450928,9.70546235 94.8804577,9.19384057 94.6489908,8.711522 C94.4046408,8.21423164 94.0780957,7.76175825 93.6831193,7.37317338 C93.1229408,6.79920717 92.4563429,6.33983043 91.7205505,6.02069631 C90.9245743,5.69826564 90.0721094,5.53842846 89.2133945,5.55060457 C88.3514363,5.53946615 87.4958146,5.69924041 86.6959633,6.02069631 C85.9559568,6.33547188 85.2851594,6.79285356 84.7218349,7.36675136 C84.3276093,7.75510439 84.0022989,8.2076724 83.7598165,8.70509998 C83.5302853,9.18752418 83.3682154,9.69923291 83.2781651,10.2258339 C83.1807191,10.8029115 83.1249176,11.3862523 83.1111927,11.9713385 C83.0957798,12.5917055 83.0880734,13.2634486 83.0919266,13.977577 C83.0957798,14.6917055 83.0919266,15.358311 83.1111927,15.9825312 C83.1249176,16.5676174 83.1807191,17.1509581 83.2781651,17.7280358 C83.3682154,18.2546368 83.5302853,18.7663455 83.7598165,19.2487697 C84.0032543,19.745626 84.3284552,20.1980418 84.7218349,20.5871183 C85.2842337,21.1614774 85.955309,21.6181754 86.6959633,21.9306046 C87.4952784,22.2541606 88.3511539,22.4148556 89.2133945,22.4032651 C90.0723954,22.4159205 90.9251221,22.2551605 91.7205505,21.9306046 C92.45646,21.6157135 93.1232917,21.1592306 93.6831193,20.5871183 C94.0772266,20.1977882 94.4036597,19.74547 94.6489908,19.2487697 C94.8804577,18.7664511 95.0450928,18.2548294 95.1383486,17.7280358 C95.2369468,17.1527599 95.294036,16.5711367 95.3091743,15.9876688 C95.3284404,15.3634486 95.3374312,14.6955587 95.3322936,13.9827147 L95.3348624,13.9839991 Z M92.0981651,13.9839991 C92.0981651,14.7751917 92.0866055,15.4340908 92.059633,15.9581275 C92.0444742,16.3885779 92.0015717,16.8176028 91.9311927,17.2425312 C91.8830515,17.525637 91.7966328,17.8008808 91.6743119,18.0606963 C91.5750252,18.2701057 91.4451662,18.4635957 91.2889908,18.6348248 C91.0478944,18.9108262 90.7487716,19.1301244 90.4130275,19.2770266 C90.0352194,19.4386939 89.6281852,19.5208877 89.2172477,19.518594 C88.8042901,19.5203151 88.395273,19.4381621 88.0150459,19.2770266 C87.671112,19.1328621 87.3638812,18.9134116 87.1159633,18.6348248 C86.958809,18.4643658 86.8288452,18.2707198 86.7306422,18.0606963 C86.6117395,17.8006146 86.5296063,17.5252524 86.4866055,17.2425312 C86.4180274,16.8173658 86.3751362,16.3884536 86.3581651,15.9581275 C86.3350459,15.4340908 86.3234862,14.776048 86.3234862,13.9839991 C86.3234862,13.1928064 86.3350459,12.5326229 86.3581651,12.0085862 C86.3752013,11.5782646 86.4180921,11.1493564 86.4866055,10.7241825 C86.5296063,10.4414614 86.6117395,10.1660991 86.7306422,9.90601741 C86.8291456,9.69616373 86.95908,9.50256146 87.1159633,9.33188897 C87.3642308,9.05369152 87.6713669,8.83430854 88.0150459,8.68968714 C88.3947064,8.52672442 88.8041072,8.44449435 89.2172477,8.44821925 C89.628365,8.44395029 90.0357815,8.52622128 90.4130275,8.68968714 C90.7485178,8.83702957 91.0475508,9.05626196 91.2889908,9.33188897 C91.444884,9.50333927 91.5747136,9.69678537 91.6743119,9.90601741 C91.7966328,10.1658329 91.8830515,10.4410767 91.9311927,10.7241825 C92.0014906,11.1491217 92.0443926,11.5781413 92.059633,12.0085862 C92.0878899,12.5313385 92.0981651,13.191522 92.0981651,13.9839991 Z" id="形状"></path>
                <path d="M121.125688,5.97959539 C121.124293,5.82340891 120.998021,5.69713679 120.841835,5.69574218 L118.17156,5.69574218 C118.015084,5.69644545 117.88841,5.82311982 117.887706,5.97959539 L117.887706,15.8438156 L111.37578,5.77537521 C111.33211,5.70730182 111.293578,5.69574218 111.197248,5.69574218 L108.720917,5.69574218 C108.565017,5.69781652 108.439139,5.8236949 108.437064,5.97959539 L108.437064,21.9858339 C108.439153,22.1415186 108.565225,22.2670203 108.720917,22.2684027 L111.389908,22.2684027 C111.545674,22.2676995 111.671774,22.1416001 111.672477,21.9858339 L111.672477,12.0959257 L118.185688,22.1874853 C118.230642,22.2555587 118.266606,22.2671183 118.36422,22.2671183 L120.839266,22.2671183 C120.995245,22.266422 121.121716,22.1405233 121.123119,21.9845495 L121.125688,5.97959539 Z" id="路径"></path>
                <path d="M103.226239,5.97959539 C103.225535,5.82311982 103.098861,5.69644545 102.942385,5.69574218 L100.274679,5.69574218 C100.118203,5.69644545 99.991529,5.82311982 99.9908257,5.97959539 L99.9908257,21.9845495 C99.991529,22.1410251 100.118203,22.2676995 100.274679,22.2684027 L102.942385,22.2684027 C103.098861,22.2676995 103.225535,22.1410251 103.226239,21.9845495 L103.226239,5.97959539 Z" id="路径"></path>
                <path d="M71.2908257,13.9839991 C71.2908257,13.1876688 71.2998165,12.5249165 71.3229358,11.9970266 C71.3386457,11.5666136 71.3815447,11.1376238 71.4513761,10.7126229 C71.6979817,9.28693484 72.7897248,8.44565044 74.1833028,8.44565044 C75.0926606,8.45335686 75.9172477,8.78987062 76.4438532,9.55537521 C76.6823388,9.91275868 76.8562319,10.3092351 76.9576147,10.7267514 C76.9654337,10.7707315 77.0056035,10.8014168 77.0500917,10.7973936 L80.1904587,10.7973936 C80.2354128,10.7973936 80.2521101,10.7665679 80.2444037,10.7228981 C79.9014679,8.77959539 78.8649541,7.03409081 77.0333945,6.16968714 C76.1332453,5.75291245 75.1507349,5.54438143 74.1588991,5.55959539 C72.3907034,5.55959539 70.9012232,6.16497766 69.6904587,7.37574218 C68.9991921,8.0494455 68.5273632,8.91610663 68.3366972,9.86234769 C68.1517431,10.7939685 68.0584098,12.1674241 68.0566516,13.9827147 C68.0549847,15.7980052 68.148318,17.1710327 68.3366972,18.1017972 C68.5257787,19.0492561 68.9962363,19.9176555 69.6866055,20.5935403 C70.8965138,21.8034486 72.3859939,22.4084027 74.1550459,22.4084027 C75.1467234,22.4234027 76.1290939,22.2153403 77.0295413,21.7995954 C78.8611009,20.9351917 79.8976147,19.1896871 80.2405505,17.2463844 C80.2482569,17.2014303 80.2315596,17.171889 80.1866055,17.171889 L77.0449541,17.171889 C77.0002813,17.1672179 76.9597196,17.1982026 76.9524771,17.2425312 C76.8508519,17.659566 76.6769712,18.0555795 76.4387156,18.4126229 C75.9121101,19.1832651 75.0875229,19.5159257 74.1781651,19.5223477 C72.7845872,19.5223477 71.692844,18.6823477 71.4462385,17.2566596 C71.3764714,16.8316502 71.3335729,16.4026646 71.3177982,15.9722559 C71.2998165,15.4417972 71.2908257,14.7777605 71.2908257,13.9839991 Z" id="路径"></path>
                <path d="M38.1223853,5.97959539 C38.121682,5.82311982 37.9950077,5.69644545 37.8385321,5.69574218 L35.1708257,5.69574218 C35.0143501,5.69644545 34.8876757,5.82311982 34.8869725,5.97959539 L34.8869725,21.9858339 C34.8883761,22.1418077 35.0148472,22.2677064 35.1708257,22.2686824 L37.8385321,22.2686824 C37.9945106,22.2677064 38.1209816,22.1418077 38.1223853,21.9858339 L38.1223853,17.2874853 L40.2634862,14.7276688 L44.6612844,22.1836321 C44.6951393,22.2386088 44.756039,22.2710232 44.8205505,22.2686824 L48.0623853,22.2686824 C48.2113761,22.2686824 48.2383486,22.1759257 48.1638532,22.0487697 L42.4058716,12.2873018 L47.6886239,5.95005411 C47.7952294,5.82161374 47.7502752,5.69959539 47.5833028,5.69959539 L44.039633,5.69959539 C43.9965173,5.69705973 43.9550139,5.71636363 43.9291743,5.75097154 L38.1223853,12.7150082 L38.1223853,5.97959539 Z" id="路径"></path>
                <path d="M57.5579817,19.5223477 C56.0565138,19.5223477 54.6950459,18.1326229 54.6950459,16.4731734 L54.6950459,5.97959539 C54.6943426,5.82311982 54.5676682,5.69644545 54.4111927,5.69574218 L51.7434862,5.69574218 C51.5870107,5.69644545 51.4603363,5.82311982 51.459633,5.97959539 L51.459633,16.4320725 C51.459633,20.0862009 54.192844,22.4084027 57.5579817,22.4084027 C60.9231193,22.4084027 63.6563303,20.0862009 63.6563303,16.4320725 L63.6563303,5.97959539 C63.6549357,5.82340891 63.5286636,5.69713679 63.3724771,5.69574218 L60.7034862,5.69574218 C60.5475125,5.69714585 60.4216137,5.82361688 60.4209174,5.97959539 L60.4209174,16.4731734 C60.4209174,18.1313385 59.0581651,19.5223477 57.5579817,19.5223477 Z" id="路径"></path>
                <path d="M8.07119266,13.9839991 L16.3530275,22.2671183 L21.5805505,17.0395954 C22.5153013,16.1979304 23.9453692,16.2353732 24.8347957,17.1247997 C25.7242222,18.0142262 25.761665,19.4442941 24.92,20.3790449 L18.0214679,27.2788614 C17.0948346,28.1901702 15.6086516,28.1901702 14.6820183,27.2788614 L4.72917431,17.3234486 L4.72917431,23.2406963 C4.72917431,24.5466217 3.67051258,25.6052835 2.36458716,25.6052835 C1.05866173,25.6052835 0,24.5466217 0,23.2406963 L0,4.71959539 C0,3.41366997 1.05866173,2.35500824 2.36458716,2.35500824 C3.67051258,2.35500824 4.72917431,3.41366997 4.72917431,4.71959539 L4.72917431,10.6368431 L14.6807339,0.68399906 C15.6070847,-0.227999686 17.0938328,-0.227999686 18.0201835,0.68399906 L24.9238532,7.58253117 C25.7655182,8.51728202 25.7280754,9.94734989 24.8386489,10.8367764 C23.9492224,11.7262029 22.5191545,11.7636457 21.5844037,10.9219807 L16.3568807,5.69445778 L8.07119266,13.9839991 Z M16.3568807,11.6168431 L16.3568807,11.6168431 C15.3993388,11.6163235 14.5357937,12.1927331 14.1689982,13.0772374 C13.8022027,13.9617417 14.0044094,14.9801083 14.6813101,15.6573765 C15.3582109,16.3346447 16.3764675,16.537404 17.2611708,16.1710886 C18.145874,15.8047732 18.7227529,14.9415411 18.7227529,13.9839991 C18.723093,13.3561902 18.4740237,12.7539595 18.0303367,12.3097907 C17.5866497,11.865622 16.9846896,11.6158992 16.3568807,11.6155587 L16.3568807,11.6168431 Z" id="形状"></path>
            </g>
        </g>
    </g>
</svg>