<?xml version="1.0" encoding="UTF-8"?> <svg xmlns="http://www.w3.org/2000/svg" viewBox="0 0 221.64 55"><defs><style>.cls-1,.cls-2{fill:#fff;}.cls-2{fill-rule:evenodd;}.cls-3{fill:#6cbf35;}.cls-4{fill:#141414;}.cls-5{fill:none;}</style></defs><g id="Layer_2" data-name="Layer 2"><g id="Layer_1-2" data-name="Layer 1"><g id="Website-Logo"><path class="cls-1" d="M109.74,16.46a2.72,2.72,0,1,0,2.72,2.72A2.7,2.7,0,0,0,109.74,16.46Z"></path><rect class="cls-1" x="107.67" y="24.43" width="4.13" height="16.28"></rect><path class="cls-1" d="M96.49,23.65a8.55,8.55,0,1,0,8.71,8.55A8.55,8.55,0,0,0,96.49,23.65Zm0,13.49a4.68,4.68,0,0,1-4.73-4.94,4.74,4.74,0,1,1,9.47,0A4.69,4.69,0,0,1,96.49,37.14Z"></path><path class="cls-1" d="M162,23.65a8.55,8.55,0,1,0,8.7,8.55A8.55,8.55,0,0,0,162,23.65Zm0,13.49a4.69,4.69,0,0,1-4.74-4.94,4.74,4.74,0,1,1,9.47,0A4.68,4.68,0,0,1,162,37.14Z"></path><path class="cls-1" d="M181.73,23.65a8.55,8.55,0,1,0,8.7,8.55A8.55,8.55,0,0,0,181.73,23.65Zm0,13.49A4.69,4.69,0,0,1,177,32.2a4.74,4.74,0,1,1,9.47,0A4.68,4.68,0,0,1,181.73,37.14Z"></path><path class="cls-1" d="M124,24a5.62,5.62,0,0,0-4.88,2.78V24.43h-3.86V40.71h4.13V30a4,4,0,0,1,3.24-2.1,3,3,0,0,1,3.23,3.33v9.52h4.13V30.16A5.83,5.83,0,0,0,124,24Z"></path><polygon class="cls-1" points="134.13 16.46 134.13 20.41 145.65 20.41 132.95 40.71 152 40.71 152 36.76 140.06 36.76 152.69 16.46 134.13 16.46"></polygon><path class="cls-1" d="M212,24a5.7,5.7,0,0,0-5.19,2.85A5.23,5.23,0,0,0,201.71,24a5.66,5.66,0,0,0-4.82,2.78V24.43H193V40.71h4.13V30a3.87,3.87,0,0,1,3.2-2.1c2.06,0,2.92,1.21,2.92,3.44v9.41h4.13V30a3.87,3.87,0,0,1,3.2-2.1c2.06,0,2.92,1.21,2.92,3.44v9.41h4.13V30.23C217.67,26.32,215.26,24,212,24Z"></path><path class="cls-1" d="M219.6,23.43h-.24v.78H219v-2h.76a.57.57,0,0,1,.61.6.56.56,0,0,1-.44.56l.44.81H220Zm.12-.29a.31.31,0,1,0,0-.61h-.36v.61Z"></path><path class="cls-1" d="M219.65,25.21a2,2,0,1,1,2-2A2,2,0,0,1,219.65,25.21Zm0-3.71a1.73,1.73,0,1,0,1.73,1.73A1.73,1.73,0,0,0,219.65,21.5Z"></path><path class="cls-2" d="M72.53,18.88a8.93,8.93,0,0,1,5.79.39,9.08,9.08,0,0,1,4.36,3.88L86,21.22a12.9,12.9,0,0,0-6.2-5.52,12.74,12.74,0,0,0-15.1,4.11,13.14,13.14,0,0,0,0,15.85,12.83,12.83,0,0,0,6.86,4.65,12.67,12.67,0,0,0,8.24-.55A12.9,12.9,0,0,0,86,34.24l-3.3-1.92a9.14,9.14,0,0,1-4.36,3.88,8.86,8.86,0,0,1-5.79.38,9,9,0,0,1-4.83-3.27,9.3,9.3,0,0,1,0-11.16A9,9,0,0,1,72.53,18.88Z"></path><path class="cls-3" d="M12.07,12.09V10.94h0l30.19,6.2V21.5L20.39,34.86,37.68,38.2V30.67H54.82A27.5,27.5,0,0,0,1,20.14H12.07Z"></path><path class="cls-3" d="M42.8,44.64l-4.7-1-.15,0-25.34-5.2V33.71L33.77,20.82,17,17.51V25.1H.11C0,25.89,0,26.69,0,27.5a27.51,27.51,0,0,0,53.78,8.13h-11Z"></path><path class="cls-4" d="M37.68,30.67V38.2L20.39,34.86,42.27,21.5V17.15L12.08,11h0v9.2H1a26.14,26.14,0,0,0-.89,5H17V17.51l16.74,3.31L12.61,33.71v4.74L38,43.65l.15,0,4.7,1v-9h11a28.19,28.19,0,0,0,1-5Z"></path><circle class="cls-5" cx="27.5" cy="27.5" r="27.5"></circle></g></g></g></svg> 