<svg width="153" height="32" viewBox="0 0 153 32" fill="none" xmlns="http://www.w3.org/2000/svg">
<path d="M25.2732 12.3874C28.7687 12.3527 31.5735 9.56561 31.5378 6.16227C31.5021 2.75893 28.6396 0.0281294 25.1441 0.0628554C21.6486 0.0975814 18.8439 2.88468 18.8795 6.28802C18.9152 9.69136 21.7778 12.4222 25.2732 12.3874Z" fill="#6B47ED"/>
<path d="M8.47904 1.94407C6.95226 -0.0921679 4.01798 -0.541224 1.92662 0.945306C-0.164748 2.43184 -0.625962 5.28876 0.900815 7.31726L12.7731 23.1658C14.2999 25.2021 17.2262 25.6434 19.3255 24.1646C21.4169 22.6781 21.8781 19.8289 20.3513 17.7926L8.47904 1.94407Z" fill="#6B47ED"/>
<path d="M54.2346 18.4895L47.8174 1.85116L42.3066 1.87438L51.1015 22.8949C51.7615 24.6059 53.7177 25.4731 55.4751 24.8304C56.4055 24.4898 57.1371 23.7697 57.471 22.8639L66.0592 1.76599L60.5803 1.78922L54.2346 18.4895Z" fill="#8B8BEA"/>
<path d="M72.1111 8.53167L67.2922 8.54968L67.356 24.7157L72.1749 24.6977L72.1111 8.53167Z" fill="#8B8BEA"/>
<path d="M69.6376 0.976295C68.0075 0.984038 66.7272 2.16862 66.7351 3.7558C66.7431 5.31201 68.0313 6.45013 69.6615 6.44239C71.2518 6.43465 72.5321 5.28104 72.5242 3.73257C72.5242 2.14539 71.2359 0.968553 69.6376 0.976295Z" fill="#8B8BEA"/>
<path d="M74.1543 15.4854L74.1861 24.6911L79.005 24.6756L78.9732 15.6867C78.9732 15.6867 78.7664 11.4207 84.7861 12.6749L84.7702 8.54052C78.6074 7.11593 74.1543 9.82575 74.1543 15.4854Z" fill="#8B8BEA"/>
<path d="M113.421 8.02953C108.292 8.05276 104.308 11.6065 104.332 16.4997C104.348 21.4238 108.364 25.0549 113.493 25.0395C118.59 25.024 122.606 21.3618 122.582 16.43C122.566 11.5368 118.518 8.01405 113.421 8.02953ZM113.477 20.8509C110.948 20.8586 109.095 18.9075 109.079 16.4764C109.071 14.084 110.908 12.2181 113.437 12.2104C115.934 12.2027 117.818 14.0531 117.834 16.4455C117.842 18.8843 115.966 20.8431 113.477 20.8509Z" fill="#8B8BEA"/>
<path d="M98.3601 8.58703V9.43869C97.1594 8.59477 95.5292 7.9599 93.4617 7.9599C88.8893 7.9599 85.1917 11.3975 85.2076 16.2597C85.2235 20.4793 88.945 24.1414 93.5253 24.1259C95.3941 24.1182 96.9526 23.6381 98.2329 22.8252L98.2409 23.9246C98.2488 26.4564 96.5948 27.8113 94.4398 27.819C92.1496 27.8267 90.7581 26.7196 90.5434 25.0318L85.6926 25.0472C86.0584 29.1662 89.6368 32.0231 94.4557 31.9999C99.4814 31.9844 103.044 28.9262 103.02 23.8704L102.956 8.5638L98.3601 8.58703ZM94.4478 20.2083C91.5294 20.2083 89.9947 18.3734 89.9947 16.0584C89.9947 13.7667 91.6328 11.9085 94.4478 11.9085C97.0003 11.9085 98.9009 13.7667 98.9009 16.0584C98.9009 18.3501 97.0799 20.2083 94.4478 20.2083Z" fill="#8B8BEA"/>
<path d="M147.289 9.49287L152.497 1.78149L147.941 1.79698L144.792 6.51981L141.619 1.82021L137.07 1.84343L142.311 9.50835L137.031 17.0571L141.412 17.0339L144.831 12.3266L148.298 17.0107L152.68 16.9952L147.289 9.49287Z" fill="#8B8BEA"/>
<path d="M138.661 10.7316H134.812V10.7394C134.311 12.7369 132.983 13.7899 130.939 13.7976C128.395 13.7976 126.605 12.0014 126.598 9.43092C126.59 6.86046 128.363 5.04101 130.947 5.03327C132.959 5.03327 134.295 6.07848 134.804 8.06827L134.812 8.09924H138.661L138.637 7.94439C137.969 4.0345 134.955 1.5105 130.947 1.5105H130.915C128.697 1.51824 126.653 2.3157 125.15 3.76352C123.623 5.22682 122.789 7.24758 122.804 9.45415C122.82 13.9447 126.319 17.3359 130.947 17.3359H130.979C135.011 17.3204 138.017 14.7731 138.653 10.84L138.661 10.7316Z" fill="#8B8BEA"/>
</svg>
