<?xml version="1.0" encoding="UTF-8"?>
<svg width="54px" height="54px" viewBox="0 0 54 54" version="1.1" xmlns="http://www.w3.org/2000/svg" xmlns:xlink="http://www.w3.org/1999/xlink">
    <!-- Generator: Sketch 59.1 (86144) - https://sketch.com -->
    <title>chrome</title>
    <desc>Created with Sketch.</desc>
    <g id="页面-1" stroke="none" stroke-width="1" fill="none" fill-rule="evenodd">
        <g id="Phemex-Web-Template(Select)" transform="translate(-333.000000, -2784.000000)" fill="#003398" fill-rule="nonzero">
            <g id="编组-13" transform="translate(120.000000, 2594.000000)">
                <g id="chrome" transform="translate(213.000000, 190.000000)">
                    <path d="M13.61988,23.54832 L5.89248,10.16388 C10.83996,3.969 18.45612,2.84217094e-14 27,2.84217094e-14 C36.88416,2.84217094e-14 45.52632,5.31252 50.2308,13.23648 L28.19988,13.23648 C27.8046,13.20192 27.40392,13.18356 27,13.18356 C20.57292,13.18356 15.15672,17.59428 13.61988,23.54832 Z M36.666,17.13852 L52.14132,17.13852 C53.34012,20.19384 53.99892,23.51916 53.99892,27 C53.99892,41.80896 42.07572,53.83152 27.30564,53.99568 L38.34756,34.86996 C39.90168,32.63544 40.81536,29.92248 40.81536,27 C40.81536,23.14116 39.22452,19.64736 36.666,17.13852 Z M17.19144,27 C17.19144,21.59136 21.59136,17.19144 27,17.19144 C32.40864,17.19144 36.80856,21.59136 36.80856,27 C36.80856,32.40864 32.40864,36.80856 27,36.80856 C21.59136,36.80856 17.19144,32.40864 17.19144,27 Z M30.70116,40.31208 L22.9716,53.69976 C9.97056,51.75468 5.68434189e-14,40.54212 5.68434189e-14,26.99892 C5.68434189e-14,22.1886 1.25928,17.67312 3.46464,13.76136 L14.4882,32.8536 C16.69572,37.55268 21.47472,40.81536 27.00108,40.81536 C28.28304,40.81536 29.52396,40.63932 30.70224,40.311 L30.70116,40.31208 Z" id="Shape"></path>
                </g>
            </g>
        </g>
    </g>
</svg>