<svg width="113" height="25" viewBox="0 0 113 25" fill="none" xmlns="http://www.w3.org/2000/svg">
<path d="M40.0355 10.925H33.648V7.30284H47.0557L39.7342 18.2863H46.664V21.9085H32.7441L40.0355 10.925Z" fill="#3B4869"/>
<path d="M55.6734 22.2298C54.5887 22.2298 53.5643 22.0351 52.6002 21.6456C51.6361 21.2561 50.7924 20.7206 50.0693 20.039C49.3462 19.3379 48.7737 18.5297 48.3519 17.6144C47.9502 16.6797 47.7493 15.6768 47.7493 14.6057C47.7493 13.5346 47.9502 12.5414 48.3519 11.6261C48.7737 10.6914 49.3462 9.88318 50.0693 9.20158C50.7924 8.51998 51.6361 7.98444 52.6002 7.59495C53.5643 7.18599 54.5887 6.98151 55.6734 6.98151C56.7581 6.98151 57.7825 7.18599 58.7466 7.59495C59.7108 7.98444 60.5544 8.51998 61.2775 9.20158C62.0006 9.88318 62.563 10.6914 62.9648 11.6261C63.3866 12.5414 63.5975 13.5346 63.5975 14.6057C63.5975 15.6768 63.3866 16.6797 62.9648 17.6144C62.563 18.5297 62.0006 19.3379 61.2775 20.039C60.5544 20.7206 59.7108 21.2561 58.7466 21.6456C57.7825 22.0351 56.7581 22.2298 55.6734 22.2298ZM55.6734 18.4908C56.2157 18.4908 56.7079 18.3934 57.1498 18.1987C57.6117 18.0039 58.0034 17.741 58.3248 17.41C58.6663 17.0594 58.9274 16.6505 59.1082 16.1831C59.309 15.6962 59.4095 15.1704 59.4095 14.6057C59.4095 14.0409 59.309 13.5249 59.1082 13.0575C58.9274 12.5706 58.6663 12.1617 58.3248 11.8306C58.0034 11.4801 57.6117 11.2074 57.1498 11.0127C56.7079 10.8179 56.2157 10.7206 55.6734 10.7206C55.1311 10.7206 54.6289 10.8179 54.1669 11.0127C53.7049 11.2074 53.3032 11.4801 52.9618 11.8306C52.6404 12.1617 52.3792 12.5706 52.1784 13.0575C51.9976 13.5249 51.9072 14.0409 51.9072 14.6057C51.9072 15.1704 51.9976 15.6962 52.1784 16.1831C52.3792 16.6505 52.6404 17.0594 52.9618 17.41C53.3032 17.741 53.7049 18.0039 54.1669 18.1987C54.6289 18.3934 55.1311 18.4908 55.6734 18.4908Z" fill="#3B4869"/>
<path d="M72.9014 22.2298C71.8167 22.2298 70.7923 22.0351 69.8282 21.6456C68.864 21.2561 68.0204 20.7206 67.2973 20.039C66.5742 19.3379 66.0017 18.5297 65.5799 17.6144C65.1782 16.6797 64.9773 15.6768 64.9773 14.6057C64.9773 13.5346 65.1782 12.5414 65.5799 11.6261C66.0017 10.6914 66.5742 9.88318 67.2973 9.20158C68.0204 8.51998 68.864 7.98444 69.8282 7.59495C70.7923 7.18599 71.8167 6.98151 72.9014 6.98151C73.986 6.98151 75.0104 7.18599 75.9746 7.59495C76.9387 7.98444 77.7824 8.51998 78.5055 9.20158C79.2286 9.88318 79.791 10.6914 80.1927 11.6261C80.6145 12.5414 80.8254 13.5346 80.8254 14.6057C80.8254 15.6768 80.6145 16.6797 80.1927 17.6144C79.791 18.5297 79.2286 19.3379 78.5055 20.039C77.7824 20.7206 76.9387 21.2561 75.9746 21.6456C75.0104 22.0351 73.986 22.2298 72.9014 22.2298ZM72.9014 18.4908C73.4437 18.4908 73.9358 18.3934 74.3777 18.1987C74.8397 18.0039 75.2314 17.741 75.5528 17.41C75.8942 17.0594 76.1554 16.6505 76.3361 16.1831C76.537 15.6962 76.6374 15.1704 76.6374 14.6057C76.6374 14.0409 76.537 13.5249 76.3361 13.0575C76.1554 12.5706 75.8942 12.1617 75.5528 11.8306C75.2314 11.4801 74.8397 11.2074 74.3777 11.0127C73.9358 10.8179 73.4437 10.7206 72.9014 10.7206C72.359 10.7206 71.8569 10.8179 71.3949 11.0127C70.9329 11.2074 70.5312 11.4801 70.1897 11.8306C69.8683 12.1617 69.6072 12.5706 69.4063 13.0575C69.2256 13.5249 69.1352 14.0409 69.1352 14.6057C69.1352 15.1704 69.2256 15.6962 69.4063 16.1831C69.6072 16.6505 69.8683 17.0594 70.1897 17.41C70.5312 17.741 70.9329 18.0039 71.3949 18.1987C71.8569 18.3934 72.359 18.4908 72.9014 18.4908Z" fill="#3B4869"/>
<path d="M88.2914 22.2298C87.2469 22.2298 86.2326 22.1227 85.2483 21.9085C84.2842 21.7138 83.4205 21.4217 82.6572 21.0322V17.1471C83.5008 17.6534 84.3645 18.0526 85.2483 18.3447C86.1522 18.6368 87.0863 18.7829 88.0504 18.7829C89.7376 18.7829 90.5813 18.3934 90.5813 17.6144C90.5813 17.2834 90.4306 17.0302 90.1293 16.855C89.828 16.6602 89.346 16.5044 88.6831 16.3876L87.1465 16.1247C84.0331 15.6183 82.4764 14.0701 82.4764 11.4801C82.4764 10.8179 82.617 10.2142 82.8982 9.66896C83.1995 9.10421 83.6113 8.62709 84.1336 8.2376C84.6759 7.84812 85.3186 7.54627 86.0618 7.33205C86.8251 7.09836 87.6587 6.98151 88.5626 6.98151C89.6473 6.98151 90.5712 7.07889 91.3345 7.27363C92.1179 7.4489 92.8008 7.67285 93.3833 7.94549V11.6845C92.8008 11.3145 92.0877 10.9932 91.2441 10.7206C90.4005 10.4479 89.5669 10.3116 88.7434 10.3116C87.1967 10.3116 86.4234 10.6719 86.4234 11.3924C86.4234 11.7235 86.564 11.9767 86.8452 12.1519C87.1264 12.3077 87.5884 12.444 88.2312 12.5609L89.6171 12.7946C91.4048 13.0672 92.6903 13.5833 93.4737 14.3428C94.2571 15.0828 94.6488 16.1344 94.6488 17.4976C94.6488 18.9192 94.1064 20.0682 93.0218 20.9445C91.9371 21.8014 90.3603 22.2298 88.2914 22.2298Z" fill="#3B4869"/>
<path d="M101.113 15.1899V21.9085H96.985V0H101.113V12.6777L105.994 7.30284H110.965L104.999 13.8754L112.351 21.9085H107.259L101.113 15.1899Z" fill="#3B4869"/>
<path d="M14.861 4.42558C17.4374 2.09159 21.4199 2.16724 23.9052 4.65252C26.3904 7.1378 26.4661 11.1202 24.1321 13.6967L24.1379 13.7024L12.966 24.8743L11.2789 23.1872C7.084 18.9924 7.084 12.1911 11.2789 7.99628L14.6068 4.66833C14.6121 4.66305 14.6173 4.65778 14.6226 4.65252C14.6278 4.64726 14.6331 4.64201 14.6384 4.63677L14.8553 4.41987L14.861 4.42558Z" fill="#E95454"/>
<path d="M2.54852 14.557C2.32702 14.3856 2.11398 14.1979 1.91098 13.9939C-0.637234 11.4338 -0.637234 7.28313 1.91098 4.72304C4.4592 2.16296 8.59067 2.16296 11.1389 4.72304C11.6642 5.25075 12.3071 5.81929 12.8744 6.38919C17.6506 12.2384 15.4248 17.8288 12.8744 24.931L2.54852 14.557Z" fill="#FF6868"/>
</svg>
