<svg xmlns="http://www.w3.org/2000/svg" viewBox="0 0 20 30"><path d="M18.55 12.67a5.59 5.59 0 0 0-2.74-2A5 5 0 0 0 18 8.88a4.8 4.8 0 0 0 .82-2.81 5.38 5.38 0 0 0-.5-2.31A5.26 5.26 0 0 0 16.88 2 6.44 6.44 0 0 0 14.73.79 8.64 8.64 0 0 0 12 .37H.44v2.85a3.18 3.18 0 1 1 0 6.35v2.58a3.18 3.18 0 0 1 3.18 3.18v.52A3.18 3.18 0 0 1 .44 19v2.84h12.05a8.88 8.88 0 0 0 2.83-.43 6.82 6.82 0 0 0 2.24-1.22A5.49 5.49 0 0 0 19 18.34a5.57 5.57 0 0 0 .53-2.42 5.41 5.41 0 0 0-.98-3.25zM6.69 3.47h4.71a3.4 3.4 0 0 1 2.37.84 2.8 2.8 0 0 1 .92 2.17 2.75 2.75 0 0 1-.92 2.16 3.44 3.44 0 0 1-2.37.82H6.69zm7.7 14.39a3.66 3.66 0 0 1-2.58.91H6.69v-6.5h5.12a3.65 3.65 0 0 1 2.58.9 3 3 0 0 1 1 2.33 3.1 3.1 0 0 1-1 2.36z" fill="#282827" fill-rule="evenodd"/><path d="M.44 26.53h19.12v3.1H.44z" fill="#159e49" fill-rule="evenodd"/></svg>