<svg width="1110" height="24" xmlns="http://www.w3.org/2000/svg" xmlns:xlink="http://www.w3.org/1999/xlink"><defs><path d="M12.454 12.363c-.716.903-1.832 1.352-3.454 1.323-1.572-.027-2.68-.466-3.405-1.343L1.8 13.913c-.78.31-1.152 1.083-1.287 1.91L0 19.286h18l-.514-3.463c-.11-.86-.508-1.6-1.286-1.91l-3.746-1.55z" id="a"/></defs><g fill="#FFF" fill-rule="evenodd"><g fill-rule="nonzero"><path d="M998.36 9.907l2.344 1.775 8.183-3.637-6.344 5v6.136a.91.91 0 001.605.584l2.846-3.38 5.914 4.432a.91.91 0 001.437-.545l3.637-18.184a.91.91 0 00-1.229-1.023L998.569 8.34a.91.91 0 00-.208 1.568z" opacity=".5"/><path d="M998.36 9.907l2.344 1.775 8.183-3.637-6.344 5 4.45 3.34 5.915 4.432a.91.91 0 001.437-.545l3.637-18.184a.91.91 0 00-1.229-1.023L998.569 8.34a.91.91 0 00-.208 1.568z"/></g><path fill-rule="nonzero" d="M1045.586 17.81l-2.08-2.077 2.08-2.081 6.14-6.14 4.674 4.673v4.16l-4.674-4.674z"/><path fill-rule="nonzero" d="M1054.333 14.275l2.067-2.09 6.543-6.542 2.08 2.08-8.623 8.622z"/><path d="M1056.4 16.345l-.247-.247-6.506-6.507 2.08-2.08 6.348 6.349.404.405"/><path fill-rule="nonzero" d="M1059.511 4.568h6.932V11.5z"/><g transform="translate(1092 1)"><path d="M9.129 11.571c2.267 0 4.021-2.708 4.346-5.785C13.8 2.708 11.529 0 9.129 0c-2.4 0-4.595 2.775-4.346 5.786.248 3.01 2.078 5.785 4.346 5.785z"/><use xlink:href="#a"/></g><path d="M481.771 12L488 18h-2.198c-.377 0-.738-.145-1.004-.402L479 12l5.803-5.603A1.45 1.45 0 01485.807 6H488l-6.229 6zm-10.574-5.603A1.45 1.45 0 00470.193 6H468l6.229 6L468 18h2.198c.377 0 .738-.145 1.004-.402L477 12l-5.803-5.603zm67.55 14.748A11.025 11.025 0 00545 23.077c2.32 0 4.473-.714 6.253-1.932l-4.059-4.058a5.52 5.52 0 01-2.194.451 5.52 5.52 0 01-2.194-.452l-4.059 4.06zm-2.892-2.892l4.058-4.059a5.52 5.52 0 01-.451-2.194c0-.78.161-1.52.452-2.194l-4.06-4.059a11.025 11.025 0 00-1.93 6.253c0 2.32.713 4.473 1.931 6.253zm2.892-15.397l4.059 4.057a5.52 5.52 0 012.194-.45 5.52 5.52 0 012.194.451l4.059-4.059A11.025 11.025 0 00545 .923c-2.32 0-4.473.714-6.253 1.932v.001zm15.397 2.891l-4.057 4.06a5.52 5.52 0 01.451 2.193 5.52 5.52 0 01-.452 2.194l4.059 4.06A11.025 11.025 0 00556.077 12c0-2.32-.714-4.473-1.932-6.253h-.001zM545 24c-6.628 0-12-5.372-12-12s5.372-12 12-12 12 5.372 12 12-5.372 12-12 12zm0-7.385a4.615 4.615 0 100-9.23 4.615 4.615 0 000 9.23zM478 13l-5.603 5.803a1.45 1.45 0 00-.397 1.004V22l6-6.229 6 6.23v-2.194a1.45 1.45 0 00-.397-1.004L478 13zm0-2l5.603-5.803A1.45 1.45 0 00484 4.193V2l-6 6.23L472 2v2.193c0 .376.142.737.397 1.004L478 11zM168 8.935l-8.01-3.522 7.65-3.347c.18-.088.45-.088.72 0l7.65 3.347L168 8.935zm.9 1.497L177 6.91v10.04c0 .351-.18.615-.54.792L168.9 21V10.432zm-1.8 0V21l-7.56-3.258c-.36-.088-.54-.44-.54-.793V6.91l8.1 3.523zM255 14V8c0-.6-.4-1-1-1h-4V4c0-.6-.4-1-1-1h-6c-.6 0-1 .4-1 1v3h-4c-.6 0-1 .4-1 1v6c0 .6.4 1 1 1h16c.6 0 1-.4 1-1zm-11-9h4v2h-4V5zm-6 11h16v4c0 .6-.4 1-1 1h-14c-.6 0-1-.4-1-1v-4zm78-13h16a1 1 0 011 1v11a1 1 0 01-1 1h-6l-6 5v-5h-4a1 1 0 01-1-1V4a1 1 0 011-1zM80 6v10h-2V5a1 1 0 011-1h18a1 1 0 011 1v11h-2V6H80zm11 13v-2h9v3a1 1 0 01-1 1H77a1 1 0 01-1-1v-3h9v2h6zM394 1h12a2 2 0 012 2v18a2 2 0 01-2 2h-12a2 2 0 01-2-2V3a2 2 0 012-2zm0 2v18h12V3h-12zm2 0h8l-.724 1.447a1 1 0 01-.894.553h-4.764a1 1 0 01-.894-.553L396 3zM13.66 7.066H16V19.31h-.016L8 23 .016 19.31H0V7.066h2.342v-1.72C2.342 2.4 4.881 0 8.002 0c3.118 0 5.657 2.4 5.657 5.347v1.72h.001zm-.88 10.208V9.94H3.22v7.335L8 19.478l4.78-2.204zM5.245 5.347v1.72h5.512v-1.72c0-1.365-1.237-2.475-2.756-2.475-1.52 0-2.756 1.11-2.756 2.475zM613.155.311l7.69 4.464A2.324 2.324 0 01622 6.785v8.93c0 .83-.44 1.595-1.155 2.01l-7.69 4.464a2.299 2.299 0 01-2.31 0l-7.69-4.464a2.324 2.324 0 01-1.155-2.01v-8.93c0-.829.44-1.595 1.155-2.01l7.69-4.464a2.299 2.299 0 012.31 0zm-1.912 12.467l-2.829-2.828L607 11.364l4.243 4.243 1.414-1.415 4.95-4.95-1.415-1.414-4.95 4.95h.001zm68.908-.36l-13.376 8.807a.5.5 0 01-.775-.418V3.193a.5.5 0 01.775-.418l13.376 8.807a.5.5 0 010 .836zM791 2h8v8h-8V2zm-4 17h-3v3h-2v-3h-3v-2h3v-3h2v3h3v2zm-4-9c-2.205 0-4-1.795-4-4s1.795-4 4-4 4 1.795 4 4-1.795 4-4 4zm7 12l5-8 5 8h-10zM731.999 2a10.998 10.998 0 0110.438 14.475h-3.289V7.218l-7.15 7.151-7.147-7.15v9.254h-3.288A11.002 11.002 0 01731.999 2zm-1.644 14.014h.002l1.642 1.643 1.643-1.643 3.12-3.122v5.824h4.633A10.987 10.987 0 01732 24a10.994 10.994 0 01-9.398-5.284h4.634v-5.824l3.12 3.122h-.001z"/><g fill-rule="nonzero"><path d="M845.128 19l2.56-2H853a2 2 0 002-2V7h2a1 1 0 011 1v10a1 1 0 01-1 1h-2v4l-6-4h-3.872z"/><path d="M852 3h-15a1 1 0 00-1 1v10a1 1 0 001 1h3v5.47l7-5.47h5a1 1 0 001-1V4a1 1 0 00-1-1z"/></g><g fill-rule="nonzero"><path d="M914.957 2c.347 0 .608.087.782.26.174.175.261.436.261.697-.06.302-.669 4.778-2.442 8.877-4.64 1.584-7.086 2.464-7.338 2.643-.293.207-.293.361 0 .462l5.945-.426c-.469.757-1.02 1.46-1.643 2.096-1.74 1.739-3.826 2.608-6.087 2.608-1.55 0-2.792-.382-3.515-.716l-.137-.066-2.435 2.435a.79.79 0 01-.609.26c-.26 0-.435-.087-.696-.173a.837.837 0 01-.08-1.127l.08-.09 2.522-2.523 8.457-8.033c.232-.232-2.76 1.78-8.979 6.033-.434-2.087-.26-5.043 2.435-7.739.625-.624 1.395-1.189 2.249-1.696.132.075.25.168.357.276.96.983.24 3.468.75 2.842.367-.45 1.001-1.83.945-4.172 3.829-1.72 8.248-2.545 9.057-2.703l.12-.025h.001z"/></g><g transform="translate(947)" fill-rule="nonzero"><rect y="13" width="8" height="8" rx=".5"/><rect x="12" y="13" width="8" height="8" rx=".5"/><path d="M11.064 4.66L15.661.064l4.596 4.596-4.596 4.596z"/><rect y="1" width="8" height="8" rx=".5"/></g></g></svg>