<svg width="24" height="24" fill="none" xmlns="http://www.w3.org/2000/svg"><g clip-path="url(#clip0)"><circle cx="12" cy="12" r="12" fill="#000"/><path d="M13.2868 11.9862C13.2868 15.3989 10.539 18.1655 7.14962 18.1655 3.76022 18.1655 1.01221 15.3989 1.01221 11.9862 1.01221 8.57342 3.76001 5.80664 7.14962 5.80664 10.5392 5.80664 13.2868 8.57342 13.2868 11.9862zM20.0197 11.9875C20.0197 15.1998 18.6458 17.805 16.951 17.805 15.2562 17.805 13.8823 15.1998 13.8823 11.9875 13.8823 8.7751 15.256 6.16992 16.9508 6.16992 18.6456 6.16992 20.0195 8.77427 20.0195 11.9875M22.7731 11.9909C22.7731 14.8684 22.29 17.2025 21.6938 17.2025 21.0977 17.2025 20.6147 14.869 20.6147 11.9909 20.6147 9.11278 21.0979 6.7793 21.6938 6.7793 22.2897 6.7793 22.7731 9.11257 22.7731 11.9909z" fill="#fff"/></g><defs><clipPath id="clip0"><path fill="#fff" d="M0 0H24V24H0z"/></clipPath></defs></svg>