<svg width="24" height="24" fill="none" xmlns="http://www.w3.org/2000/svg"><g clip-path="url(#clip0)"><path d="M11.9766 23.9766C18.604 23.9766 23.9766 18.604 23.9766 11.9766C23.9766 5.34914 18.604 -0.0234375 11.9766 -0.0234375C5.34914 -0.0234375 -0.0234375 5.34914 -0.0234375 11.9766C-0.0234375 18.604 5.34914 23.9766 11.9766 23.9766Z" fill="#FF4500"/><path d="M20.0002 12.0022C20.0002 11.0338 19.2143 10.2478 18.2458 10.2478C17.7686 10.2478 17.3476 10.4303 17.0388 10.7391C15.8458 9.88294 14.1897 9.32152 12.3651 9.25134L13.1651 5.50397L15.7616 6.05133C15.7897 6.711 16.337 7.24434 17.0107 7.24434C17.6985 7.24434 18.2599 6.68292 18.2599 5.99522C18.2599 5.30747 17.6985 4.74609 17.0107 4.74609C16.5195 4.74609 16.0984 5.02678 15.902 5.44781L12.9967 4.83028C12.9125 4.81627 12.8283 4.83028 12.7581 4.87237C12.688 4.91452 12.6458 4.98469 12.6177 5.06887L11.7335 9.25134C9.86688 9.3075 8.19673 9.85486 6.9897 10.7391C6.68093 10.4443 6.24584 10.2478 5.78266 10.2478C4.81427 10.2478 4.02832 11.0338 4.02832 12.0022C4.02832 12.718 4.44935 13.3215 5.06688 13.6022C5.0388 13.7707 5.02479 13.9531 5.02479 14.1355C5.02479 16.8303 8.15463 19.0057 12.0283 19.0057C15.902 19.0057 19.0318 16.8303 19.0318 14.1355C19.0318 13.9531 19.0178 13.7847 18.9897 13.6163C19.5651 13.3356 20.0002 12.718 20.0002 12.0022ZM8.00023 13.2513C8.00023 12.5636 8.56165 12.0022 9.24935 12.0022C9.93705 12.0022 10.4985 12.5636 10.4985 13.2513C10.4985 13.9391 9.93705 14.5005 9.24935 14.5005C8.56165 14.5005 8.00023 13.9391 8.00023 13.2513ZM14.9756 16.5496C14.1195 17.4057 12.4915 17.4619 12.0143 17.4619C11.5371 17.4619 9.89496 17.3917 9.05285 16.5496C8.92652 16.4233 8.92652 16.2127 9.05285 16.0864C9.17918 15.9601 9.3897 15.9601 9.51602 16.0864C10.0494 16.6198 11.2002 16.8163 12.0283 16.8163C12.8564 16.8163 13.9932 16.6198 14.5406 16.0864C14.6669 15.9601 14.8774 15.9601 15.0037 16.0864C15.102 16.2268 15.102 16.4233 14.9756 16.5496ZM14.7511 14.5005C14.0634 14.5005 13.502 13.9391 13.502 13.2513C13.502 12.5636 14.0634 12.0022 14.7511 12.0022C15.4388 12.0022 16.0002 12.5636 16.0002 13.2513C16.0002 13.9391 15.4388 14.5005 14.7511 14.5005Z" fill="#fff"/></g><defs><clipPath id="clip0"><path fill="#fff" d="M0 0H24V24H0z"/></clipPath></defs></svg>