<svg width="40" height="40" xmlns="http://www.w3.org/2000/svg"><defs><linearGradient x1="106.38%" y1="115.934%" x2="-33.63%" y2="-54.191%" id="a"><stop stop-color="#1C4868" offset="0%"/><stop stop-color="#091A26" offset="100%"/></linearGradient></defs><g fill-rule="nonzero" fill="none"><path d="M20 1.155l13.32 7.69a4 4 0 012 3.464v15.382a4 4 0 01-2 3.464L20 38.845a4 4 0 01-4 0l-13.32-7.69a4 4 0 01-2-3.464V12.309a4 4 0 012-3.464L16 1.155a4 4 0 014 0z" fill="url(#a)" transform="translate(2)"/><path d="M24.695 18.033a.79.79 0 11-.056-1.579.79.79 0 01.056 1.579zm0 5.414a.79.79 0 11-.08-1.578.79.79 0 01.08 1.578zm2.345-2.818a.684.684 0 11-.052-1.367.684.684 0 01.052 1.367zm-14.09.036a.684.684 0 110-1.368.684.684 0 010 1.368zm3.518-6.106a.684.684 0 11-.052-1.367.684.684 0 01.052 1.367zm7.036-.01a.684.684 0 110-1.367.684.684 0 110 1.368v-.001zm.026 12.188a.684.684 0 110-1.368.684.684 0 010 1.368zm-7.039.005a.684.684 0 110-1.368.684.684 0 010 1.368zm3.486-14.9a.552.552 0 110-1.106.552.552 0 010 1.107v-.001zm-.017 17.339a.553.553 0 110-1.105.553.553 0 010 1.105zm7.55-4.35a.553.553 0 110-1.105.553.553 0 010 1.105zm-.019-8.663a.553.553 0 110-1.105.553.553 0 010 1.105zM15.21 12.153a.448.448 0 110-.895.448.448 0 010 .895zm-4.77 8.284a.448.448 0 110-.895.448.448 0 010 .895zm4.796 8.247a.448.448 0 110-.895.448.448 0 010 .895zm9.558-.02a.447.447 0 110-.893.447.447 0 110 .894v-.001zm4.751-8.26a.447.447 0 110-.894.447.447 0 010 .894zm-4.8-8.281a.447.447 0 110-.894.447.447 0 010 .894zm-12.26 4.071a.553.553 0 110-1.105.553.553 0 010 1.105zm.018 8.675a.553.553 0 110-1.105.553.553 0 010 1.105zm7.468 1.313a.79.79 0 11-.08-1.578.79.79 0 01.08 1.578zm-4.666-2.707a.79.79 0 11-.08-1.578.79.79 0 01.08 1.578zm-.008-5.426a.79.79 0 11-.08-1.578.79.79 0 01.08 1.578zm4.685-2.723a.79.79 0 11-.08-1.578.79.79 0 01.08 1.578zm-1.577 3.265a1.368 1.368 0 11-.074-2.735 1.368 1.368 0 01.074 2.735zm3.167-.01a1.368 1.368 0 010-2.736 1.368 1.368 0 010 2.735v.001zm1.59 2.74a1.368 1.368 0 110-2.736 1.368 1.368 0 010 2.736zm-1.579 2.749a1.368 1.368 0 110-2.736 1.368 1.368 0 010 2.736zm-4.755-2.734a1.368 1.368 0 110-2.736 1.368 1.368 0 010 2.736zm1.588 2.747a1.368 1.368 0 110-2.736 1.368 1.368 0 010 2.736z" fill="#FFF"/></g></svg>