<svg width="40" height="40" xmlns="http://www.w3.org/2000/svg"><defs><linearGradient x1="19.031%" y1="-66.682%" x2="123.324%" y2="91.487%" id="a"><stop stop-color="#FFF" offset="0%"/><stop stop-color="#EAEAEA" offset="100%"/></linearGradient></defs><g fill="none" fill-rule="evenodd"><path d="M20 1.155l13.32 7.69a4 4 0 0 1 2 3.464v15.382a4 4 0 0 1-2 3.464L20 38.845a4 4 0 0 1-4 0l-13.32-7.69a4 4 0 0 1-2-3.464V12.309a4 4 0 0 1 2-3.464L16 1.155a4 4 0 0 1 4 0z" fill="url(#a)" transform="translate(2)"/><path d="M10.231 24.644a1.583 1.583 0 1 1 0-3.167 1.583 1.583 0 0 1 0 3.167zm18.867-9.434c.857 0 1.55.693 1.55 1.518 0 .89-.726 1.583-1.583 1.583-1.22 0-1.584.429-1.584 1.583v.099a1.558 1.558 0 0 1-1.55 1.484h-.033c-1.187.033-1.55.462-1.55 1.583v.132c-.033.792-.726 1.452-1.55 1.452-.89 0-1.583-.726-1.583-1.584 0-.791.626-1.45 1.418-1.55.033-.033.099-.033.165-.033 1.352 0 1.583-.297 1.583-1.517v-.033c0-.825.627-1.484 1.418-1.55h.132c1.386 0 1.583-.33 1.583-1.583 0-.89.726-1.584 1.584-1.584zm-9.302 3.167a1.597 1.597 0 0 1 1.452 1.517c0 .89-.693 1.583-1.584 1.583-.89 0-1.583-.725-1.583-1.583 0-1.121-.363-1.55-1.583-1.55s-1.583.429-1.583 1.583v.099c-.033.792-.726 1.451-1.55 1.451a1.584 1.584 0 0 1-1.584-1.583c0-.825.627-1.484 1.419-1.55h.132c1.385 0 1.583-.297 1.583-1.55a1.584 1.584 0 0 1 3.166 0c0 1.253.198 1.583 1.583 1.583h.132z" fill="#4A90E2" fill-rule="nonzero"/></g></svg>
